<?xml version="1.0" standalone="no"?>
<!DOCTYPE svg PUBLIC "-//W3C//DTD SVG 20010904//EN"
 "http://www.w3.org/TR/2001/REC-SVG-20010904/DTD/svg10.dtd">
<svg version="1.0" xmlns="http://www.w3.org/2000/svg"
 width="1536.000000pt" height="768.000000pt" viewBox="0 0 1536.000000 768.000000"
 preserveAspectRatio="xMidYMid meet">
<metadata>
Created by potrace 1.16, written by Peter Selinger 2001-2019
</metadata>
<g transform="translate(0.000000,768.000000) scale(0.100000,-0.100000)"
fill="#000000" stroke="none">
<path d="M1104 7667 c-28 -73 256 -435 888 -1134 24 -27 38 -52 38 -69 0 -54
255 -287 695 -635 154 -122 313 -255 354 -296 136 -136 356 -311 729 -577 126
-90 201 -150 216 -174 34 -53 99 -112 190 -173 l79 -52 -64 -56 c-140 -122
-200 -203 -220 -298 -12 -60 -5 -56 -139 -73 -92 -12 -126 -28 -140 -65 -10
-27 -7 -27 -235 -55 -191 -23 -469 -47 -655 -55 -200 -9 -219 -12 -230 -40 -6
-16 -19 -26 -42 -29 -102 -17 -498 -38 -798 -43 -277 -4 -350 -8 -368 -19 -26
-17 -19 -18 -577 62 -291 41 -352 47 -515 48 -195 1 -248 -7 -292 -44 l-23
-20 23 -19 c74 -63 463 -112 1131 -142 221 -10 247 -13 272 -31 27 -20 37 -21
216 -15 191 6 359 23 749 76 121 16 285 32 366 35 172 6 398 38 765 106 219
41 267 48 293 38 38 -13 129 -7 257 18 l92 18 98 -46 c371 -175 562 -229 847
-244 67 -3 145 -12 174 -20 38 -11 93 -14 190 -12 l137 3 140 -61 c174 -76
333 -134 489 -180 67 -19 124 -38 129 -43 4 -4 3 -20 -2 -37 -5 -16 -12 -50
-16 -76 -6 -46 -8 -48 -48 -58 -66 -17 -118 -39 -179 -76 -59 -36 -187 -98
-494 -239 -99 -46 -210 -100 -245 -121 -108 -62 -528 -355 -554 -386 -32 -38
-45 -88 -45 -176 0 -71 1 -73 40 -116 22 -24 63 -53 90 -65 134 -57 418 -112
736 -141 126 -12 260 -28 298 -35 68 -14 173 -67 183 -92 7 -17 -215 -382
-352 -580 -19 -28 -44 -54 -54 -58 -22 -7 -105 -94 -98 -101 3 -3 31 8 62 25
71 38 91 39 127 4 22 -21 30 -24 42 -14 13 11 27 7 81 -23 36 -21 65 -33 65
-28 0 18 -57 87 -83 101 -15 8 -27 19 -27 24 0 6 38 69 84 141 46 72 93 149
104 171 20 39 34 58 153 216 62 82 89 129 89 155 0 29 -89 105 -164 139 -89
41 -245 81 -401 102 -66 8 -255 44 -420 78 l-300 62 59 17 c115 34 454 215
681 364 88 57 255 156 370 220 253 138 348 202 392 262 19 25 60 72 92 106 46
48 61 72 72 114 l13 53 74 -7 c60 -5 85 -13 131 -40 80 -48 183 -82 350 -116
130 -26 149 -33 169 -57 l22 -28 -25 -22 c-15 -13 -37 -23 -51 -23 -34 0 -165
-34 -234 -61 -95 -36 -284 -137 -327 -174 -23 -20 -74 -84 -114 -143 -127
-190 -117 -220 161 -480 80 -74 343 -309 585 -523 390 -344 450 -401 529 -501
48 -62 110 -130 136 -151 46 -37 48 -40 54 -105 16 -182 37 -612 31 -657 -6
-49 -9 -54 -56 -85 -43 -27 -105 -97 -95 -107 2 -2 23 8 47 22 24 13 72 34
106 46 61 20 65 20 115 4 29 -10 74 -30 101 -46 40 -25 47 -26 47 -11 0 32
-38 80 -85 107 l-46 28 7 411 7 411 -64 85 c-83 112 -452 484 -824 833 -477
447 -452 421 -463 494 l-9 62 96 52 c202 109 261 144 412 245 168 112 258 151
399 173 40 7 81 16 92 22 16 9 27 3 64 -31 91 -84 222 -118 387 -101 79 8 95
6 170 -16 112 -34 168 -33 240 2 32 15 73 44 91 64 19 20 56 60 83 90 l49 53
314 -65 c173 -36 367 -75 430 -88 111 -21 118 -24 200 -82 318 -226 708 -555
1410 -1187 263 -237 322 -286 356 -294 16 -4 43 -20 59 -35 39 -36 399 -292
490 -348 119 -73 268 -133 444 -179 105 -27 141 -52 188 -132 14 -23 29 -42
34 -42 12 0 11 72 -1 106 -6 15 -8 29 -5 32 3 3 35 -4 70 -15 36 -12 65 -17
65 -13 0 5 -19 25 -42 44 -35 30 -78 48 -261 107 -340 109 -406 138 -485 207
-37 32 -96 78 -132 102 -137 92 -298 225 -379 313 -46 51 -109 115 -141 142
-32 28 -197 174 -366 325 -170 152 -452 400 -626 553 -174 152 -320 282 -323
288 -5 7 7 9 36 5 271 -37 563 -56 929 -63 487 -8 707 10 940 78 114 33 262
50 274 30 4 -6 34 -140 66 -297 46 -223 64 -294 83 -323 14 -20 30 -54 37 -76
7 -22 62 -139 123 -260 146 -290 146 -289 384 -383 172 -68 279 -102 321 -102
24 0 92 -74 130 -142 15 -26 30 -48 35 -48 12 0 8 74 -8 125 -8 27 -12 51 -9
54 3 3 35 -5 71 -17 36 -13 67 -22 69 -20 9 9 -62 80 -97 99 -22 11 -110 42
-197 70 -191 62 -407 145 -419 162 -5 7 -22 44 -37 84 -15 40 -51 107 -80 150
-28 43 -80 132 -115 198 -62 116 -64 123 -66 200 -2 44 -22 182 -46 307 -23
125 -40 230 -37 234 4 3 62 16 130 29 68 12 149 33 180 44 56 22 108 68 108
97 0 29 115 19 405 -36 145 -27 327 -47 560 -60 380 -22 673 22 890 133 165
84 313 277 323 420 9 119 -87 314 -223 452 -204 209 -395 320 -1020 595 -110
49 -380 176 -600 283 -532 259 -631 298 -1070 417 l-210 57 -36 136 c-68 256
-126 409 -194 511 -19 29 -75 89 -125 133 -74 66 -100 83 -148 97 -78 21 -182
20 -275 -3 -86 -23 -116 -36 -207 -96 -102 -68 -440 -258 -611 -345 l-155 -79
-260 29 c-142 16 -432 47 -644 70 -212 22 -511 56 -665 75 -515 64 -685 76
-1035 73 -422 -3 -444 -2 -525 25 -62 19 -90 22 -235 21 -260 -1 -386 -23
-634 -106 -236 -79 -444 -192 -542 -295 -34 -35 -77 -66 -121 -87 -61 -29
-276 -189 -375 -278 l-36 -33 -229 0 c-255 0 -263 -1 -315 -66 -18 -23 -60
-60 -92 -82 -32 -22 -113 -85 -178 -140 -108 -90 -122 -98 -141 -88 -12 7 -80
54 -150 105 -142 104 -173 120 -217 114 -26 -4 -48 10 -172 110 -208 168 -364
301 -558 479 -209 191 -205 189 -239 176 -24 -8 -35 -2 -126 78 -214 187 -360
321 -602 555 -138 134 -258 244 -267 244 -16 0 -36 25 -373 470 -265 349 -410
516 -510 583 -76 52 -129 69 -139 44z m10584 -2003 c18 -23 55 -57 82 -74 28
-18 57 -44 64 -59 18 -35 68 -202 63 -207 -2 -3 -110 20 -238 50 -129 30 -276
64 -327 76 -70 17 -91 25 -83 34 22 21 396 234 402 227 3 -3 20 -25 37 -47z
m-4023 -464 c80 -18 113 -107 62 -166 l-24 -27 -424 -2 c-430 -2 -526 -8 -829
-51 -218 -31 -366 -79 -476 -154 -74 -51 -142 -40 -170 27 -21 49 -10 86 39
129 57 49 225 129 322 153 166 43 480 84 760 101 168 10 684 3 740 -10z m1431
-107 c333 -227 741 -545 709 -551 -9 -2 -92 4 -183 13 -235 24 -422 7 -630
-57 -79 -24 -109 -29 -129 -22 -60 21 -88 110 -47 155 40 44 171 92 314 114
25 4 51 10 58 14 8 4 -35 41 -117 100 -72 51 -138 102 -148 113 -25 28 -24 99
2 128 47 53 86 51 171 -7z m3203 -39 c30 -21 51 -71 44 -107 -3 -15 -18 -38
-34 -51 -25 -21 -42 -25 -146 -31 -372 -21 -780 -85 -1255 -195 -166 -38 -180
-40 -212 -26 -39 16 -56 42 -56 85 0 77 28 95 212 140 567 140 1366 242 1447
185z m-1534 -955 c412 -232 871 -450 1560 -739 160 -67 298 -130 308 -142 19
-23 23 -88 7 -119 -6 -10 -24 -26 -40 -34 -39 -20 -65 -14 -295 80 -685 277
-1586 712 -1723 831 -32 28 -37 37 -36 75 1 35 7 48 33 71 46 41 80 37 186
-23z m-4762 -210 c207 -52 946 -253 978 -265 75 -30 89 -117 27 -170 -43 -36
-52 -34 -463 76 -567 152 -687 188 -715 216 -36 35 -34 93 5 134 35 36 57 38
168 9z m1692 -259 c499 -84 1268 -274 1327 -327 41 -36 31 -126 -18 -158 -37
-24 -70 -19 -278 40 -392 111 -764 194 -1156 256 -189 30 -207 35 -232 60 -41
40 -39 99 3 141 30 30 32 31 102 25 40 -4 153 -20 252 -37z"/>
</g>
</svg>
