<?xml version="1.0" standalone="no"?>
<!DOCTYPE svg PUBLIC "-//W3C//DTD SVG 20010904//EN"
 "http://www.w3.org/TR/2001/REC-SVG-20010904/DTD/svg10.dtd">
<svg version="1.0" xmlns="http://www.w3.org/2000/svg"
 width="1536.000000pt" height="1228.000000pt" viewBox="0 0 1536.000000 1228.000000"
 preserveAspectRatio="xMidYMid meet">
<metadata>
Created by potrace 1.16, written by Peter Selinger 2001-2019
</metadata>
<g transform="translate(0.000000,1228.000000) scale(0.100000,-0.100000)"
fill="#000000" stroke="none">
<path d="M1457 12273 c-52 -51 273 -587 744 -1227 74 -100 87 -123 82 -147 -4
-19 2 -38 18 -61 103 -148 435 -506 743 -801 102 -99 203 -204 223 -235 49
-74 329 -355 659 -659 214 -199 262 -248 272 -280 13 -42 89 -126 183 -200
l59 -46 -47 -28 c-179 -103 -319 -285 -330 -430 -3 -48 -16 -88 -50 -162 -66
-140 -70 -233 -16 -298 38 -45 74 -57 230 -74 315 -36 429 -74 568 -188 l29
-25 -114 5 c-135 6 -338 -10 -377 -30 -22 -11 -117 -16 -443 -20 -626 -10
-954 -34 -1023 -75 -18 -11 -185 -68 -372 -127 -475 -150 -796 -265 -993 -356
-69 -32 -86 -44 -95 -70 -9 -24 -45 -53 -162 -132 -679 -455 -1245 -892 -1245
-961 0 -30 78 -15 175 33 160 79 353 219 830 601 356 285 430 340 453 340 11
0 51 14 89 31 296 133 566 243 973 396 256 96 310 113 341 108 21 -4 142 5
271 19 274 30 523 51 773 66 99 5 217 12 262 15 75 5 83 4 93 -14 5 -11 27
-25 47 -30 35 -10 62 -9 439 15 l101 7 7 -39 c18 -92 95 -179 186 -209 66 -22
159 -16 215 13 l40 20 55 -30 c30 -17 56 -32 58 -34 2 -1 9 -48 17 -105 21
-157 163 -955 184 -1031 l18 -67 -56 -59 c-31 -33 -180 -172 -331 -309 -321
-291 -372 -345 -548 -570 -72 -92 -157 -199 -188 -238 -86 -106 -98 -139 -85
-238 5 -45 15 -126 21 -180 15 -131 50 -271 110 -447 27 -80 55 -179 61 -220
11 -71 10 -78 -14 -135 -15 -37 -36 -68 -54 -81 -17 -11 -189 -211 -383 -445
-194 -233 -373 -441 -397 -463 -24 -21 -50 -51 -58 -65 -8 -16 -43 -45 -81
-67 -60 -35 -164 -133 -164 -155 0 -5 32 12 72 38 39 25 93 54 118 64 l47 18
22 -30 c27 -36 39 -36 66 -3 l21 27 62 -28 c34 -15 67 -34 73 -41 18 -21 29
-17 29 11 0 41 -27 82 -71 108 l-40 24 53 64 c29 35 107 127 173 204 66 77
155 186 197 241 43 56 112 134 155 173 43 40 103 101 133 136 38 46 61 65 78
65 50 0 107 50 132 116 36 93 28 259 -20 439 -25 94 -90 508 -90 572 0 17 17
31 81 64 70 37 106 67 284 243 206 204 290 296 428 468 42 53 146 169 232 257
l156 160 62 -30 c34 -16 67 -29 74 -29 7 0 62 -21 124 -46 166 -68 302 -115
519 -179 107 -32 196 -59 198 -60 6 -5 -57 -145 -84 -185 -47 -68 -429 -720
-468 -798 -44 -88 -71 -153 -166 -407 -43 -115 -88 -232 -100 -260 -110 -252
-110 -310 -8 -555 99 -236 232 -460 440 -743 48 -65 110 -164 138 -220 l51
-101 -3 -121 c-1 -66 1 -134 5 -150 7 -29 -10 -52 -334 -445 -187 -228 -363
-435 -389 -460 -27 -25 -56 -58 -66 -73 -9 -15 -31 -35 -48 -44 -59 -29 -135
-93 -167 -139 -17 -26 -25 -43 -18 -38 8 5 41 27 74 48 33 22 81 48 106 57
l46 18 22 -30 c26 -35 37 -36 63 -4 19 24 20 24 56 9 20 -8 54 -26 75 -40 22
-14 41 -23 45 -20 14 15 -21 87 -60 120 l-41 35 39 48 c21 26 93 111 159 188
66 77 149 178 184 225 35 47 118 141 185 210 67 69 144 150 172 180 29 30 68
68 88 84 65 51 81 95 80 221 0 93 -5 123 -28 190 -37 108 -124 279 -204 400
-39 59 -138 249 -242 465 l-177 365 71 75 c90 95 121 140 184 267 28 56 70
134 95 175 82 135 198 387 296 643 24 61 102 225 175 365 73 140 138 270 145
288 8 17 15 32 17 32 13 0 196 -74 369 -150 481 -210 880 -349 1343 -468 l113
-29 35 -52 c19 -28 157 -309 306 -624 150 -315 301 -624 336 -687 35 -63 159
-259 276 -435 117 -176 230 -349 251 -384 21 -36 57 -88 80 -115 22 -28 51
-72 64 -99 24 -51 80 -101 148 -136 76 -38 213 -70 518 -120 520 -87 573 -92
955 -101 359 -8 500 -21 930 -85 408 -61 589 -95 765 -145 345 -98 488 -124
567 -102 33 9 36 8 40 -12 3 -11 136 -220 297 -463 234 -353 298 -443 321
-451 21 -8 30 -19 35 -44 4 -18 21 -76 37 -128 52 -162 80 -199 55 -69 -21
104 -30 199 -19 199 5 0 29 -7 52 -15 24 -8 45 -13 48 -10 3 3 -3 23 -13 45
-15 32 -16 45 -7 65 13 29 109 102 170 129 23 10 42 22 42 26 0 12 -67 30
-112 30 -30 0 -65 -10 -107 -31 -34 -17 -64 -30 -65 -28 -2 2 -21 43 -44 91
-42 91 -67 131 -167 268 -36 49 -83 132 -111 195 -42 94 -67 133 -176 269 -70
87 -156 185 -193 217 -104 93 -245 154 -520 224 -420 108 -1194 205 -1630 205
-80 0 -327 22 -727 65 -334 36 -611 65 -617 65 -5 0 -17 26 -26 57 -37 126
-104 211 -184 233 -36 9 -41 15 -51 53 -26 104 -75 220 -144 341 -41 72 -91
168 -111 214 -72 165 -281 530 -435 762 -87 131 -156 245 -225 374 l-48 89 44
-7 c386 -62 939 -90 1304 -67 262 17 410 35 780 96 182 30 454 75 605 99 309
50 538 94 715 136 116 27 128 28 380 27 224 0 276 3 375 21 284 52 508 172
650 348 127 159 180 318 160 478 l-9 70 41 45 c192 218 135 549 -164 954 -133
179 -284 322 -455 430 l-82 52 -282 387 c-270 371 -289 394 -438 541 -242 236
-619 561 -774 665 -277 187 -822 483 -1162 632 -347 152 -721 276 -1083 360
-90 21 -166 40 -168 43 -3 3 13 70 35 149 23 78 53 197 67 263 14 66 46 194
70 285 46 173 63 271 64 356 0 47 3 54 33 77 l33 25 519 -317 c286 -175 570
-355 630 -401 217 -164 609 -413 916 -583 472 -261 819 -396 1019 -397 41 0
140 -11 220 -25 152 -26 255 -30 380 -15 55 7 107 5 195 -7 85 -11 161 -14
261 -9 l142 5 0 -62 c0 -34 5 -74 11 -89 11 -30 78 -108 92 -108 5 0 9 42 9
93 0 86 10 146 28 174 4 7 32 16 61 20 l54 8 -42 38 c-24 21 -41 40 -39 42 12
12 116 58 183 80 44 15 82 29 85 32 11 12 -135 -9 -231 -33 -101 -26 -102 -26
-128 -7 -28 21 -98 27 -809 70 l-292 18 -25 36 c-49 75 -170 140 -519 281
-201 81 -393 180 -826 426 -343 195 -497 295 -670 435 -178 143 -396 277 -815
500 -268 142 -376 192 -462 212 -213 51 -347 -48 -434 -320 -12 -38 -75 -214
-140 -390 -126 -343 -183 -521 -219 -678 l-22 -98 -36 5 c-21 3 -75 10 -122
16 -272 34 -623 113 -911 205 -129 41 -285 90 -347 107 l-113 33 -24 49 c-14
28 -25 64 -25 80 0 34 -28 101 -59 145 l-20 27 392 57 c275 40 422 57 492 57
127 0 326 23 430 50 106 28 212 81 261 131 21 22 55 71 74 108 49 97 144 236
206 304 43 46 229 273 255 311 4 5 23 -1 43 -13 32 -20 146 -42 146 -28 0 3
-24 19 -53 35 -68 38 -84 57 -67 77 11 13 7 18 -30 32 l-42 17 5 60 c3 34 8
69 12 80 7 16 5 17 -13 7 -24 -13 -62 -87 -62 -123 0 -14 -9 -33 -21 -44 -12
-10 -29 -34 -38 -52 -9 -18 -104 -138 -211 -266 l-195 -233 -61 -5 c-54 -3
-68 -9 -128 -53 -122 -89 -131 -95 -186 -107 -37 -8 -187 -12 -455 -13 -418
-1 -465 -5 -730 -55 -209 -39 -316 -94 -356 -184 l-17 -40 -131 -32 c-230 -56
-335 -125 -450 -293 -33 -49 -116 -149 -184 -223 -67 -73 -179 -203 -248 -288
-69 -85 -146 -177 -171 -205 l-45 -50 -53 105 c-56 112 -142 215 -205 244 -55
27 -143 21 -211 -14 -32 -16 -59 -28 -60 -27 -1 1 -13 38 -28 82 -20 60 -30
114 -37 215 -5 74 -16 197 -24 272 -21 188 -20 249 4 290 37 62 68 228 42 228
-5 0 -12 -12 -15 -26 -16 -63 -66 -154 -88 -163 -19 -7 -26 -3 -42 23 -10 17
-31 65 -46 105 -27 72 -28 74 -35 43 -8 -40 9 -127 40 -197 13 -29 21 -55 19
-58 -3 -3 4 -42 15 -86 15 -58 24 -139 32 -283 5 -111 12 -204 13 -207 2 -3 9
-98 16 -211 7 -113 16 -213 22 -222 13 -26 57 -22 143 12 42 17 84 30 95 30
19 0 29 -22 130 -292 l32 -87 -62 -68 c-74 -80 -129 -162 -161 -237 l-22 -54
-46 47 c-82 84 -219 114 -337 74 -60 -20 -145 -102 -160 -153 l-10 -35 -129 0
c-104 -1 -145 -5 -205 -23 -85 -25 -170 -30 -170 -9 0 8 -39 46 -86 87 -48 40
-125 110 -173 154 -137 130 -146 136 -199 136 l-47 0 -251 263 c-293 306 -361
379 -497 542 -55 66 -106 124 -114 128 -8 5 -26 6 -42 2 -26 -6 -38 5 -168
147 -221 243 -354 398 -525 613 -227 285 -227 285 -246 285 -21 0 -42 33 -284
448 -208 358 -309 517 -403 637 -114 146 -225 231 -258 198z m5263 -3089 c0
-18 4 -44 10 -59 9 -24 7 -27 -28 -42 -38 -16 -172 -31 -172 -19 0 18 42 85
72 113 63 60 118 64 118 7z m654 -110 c25 -25 19 -58 -29 -149 -26 -48 -45
-96 -43 -108 4 -30 -39 -45 -82 -27 -86 35 -96 175 -18 247 51 48 142 68 172
37z m1134 -40 c35 -4 45 -10 53 -32 7 -18 7 -34 0 -48 l-10 -23 -52 20 c-52
20 -132 70 -145 90 -6 10 25 9 154 -7z m2032 -104 c14 -14 20 -33 20 -61 0
-38 -6 -48 -79 -122 -69 -70 -81 -79 -104 -73 -16 4 -33 19 -43 38 -22 42 -15
134 11 170 48 64 153 90 195 48z m-3929 -309 c25 -31 24 -72 -3 -106 -37 -48
-105 -65 -188 -49 -31 7 -32 9 -27 45 6 45 39 94 79 119 43 26 115 21 139 -9z
m1665 -27 l39 -17 -70 -33 c-83 -40 -95 -42 -95 -11 0 30 44 72 81 76 4 1 24
-6 45 -15z m3410 -29 c18 -12 24 -24 24 -54 0 -64 -61 -121 -130 -121 -44 0
-90 47 -90 92 1 85 118 134 196 83z m-4348 -55 c2 -36 -5 -50 -65 -130 -19
-25 -33 -55 -33 -71 0 -24 -5 -29 -37 -36 -55 -11 -151 -9 -164 4 -19 19 8 88
57 142 46 52 191 135 223 129 10 -2 17 -16 19 -38z m890 -66 c52 -14 8 -53
-60 -54 -47 0 -48 1 -48 30 0 29 2 30 43 30 23 0 52 -3 65 -6z m-2893 -339
c160 -14 311 -25 336 -25 29 0 51 -6 59 -15 7 -9 11 -17 9 -19 -2 -1 -44 2
-94 8 -55 6 -348 10 -749 10 -362 0 -650 3 -638 7 39 15 229 50 317 59 132 13
430 3 760 -25z m5965 -5 c25 -25 25 -34 -5 -98 -27 -57 -104 -140 -155 -167
-55 -29 -128 -31 -187 -5 -29 12 -56 19 -61 16 -18 -11 -52 25 -52 56 0 58
113 135 280 189 103 34 152 37 180 9z m-4904 -31 c61 -11 126 -43 157 -76 17
-20 16 -20 -59 -27 -267 -22 -554 13 -562 70 -3 18 3 19 75 16 43 -1 125 4
183 12 136 18 136 18 206 5z m6000 -132 c1 -50 8 -76 37 -137 43 -86 46 -116
16 -155 -17 -21 -27 -26 -48 -21 -14 4 -36 8 -48 10 -43 6 -241 166 -324 261
l-31 35 60 0 c77 0 217 25 279 49 26 10 50 19 53 20 3 0 5 -27 6 -62z m-4332
-46 c36 -40 12 -130 -54 -198 -25 -28 -42 -29 -62 -5 -43 48 -25 124 45 184
23 21 45 38 48 38 3 0 14 -9 23 -19z m953 -6 c20 -9 57 -35 83 -59 62 -58 77
-65 175 -81 47 -7 105 -24 131 -36 96 -49 147 -144 90 -170 -20 -9 -40 -4
-122 31 -116 49 -253 120 -381 198 -100 61 -115 85 -71 116 28 20 49 20 95 1z
m-1930 -73 c12 -19 25 -53 28 -76 6 -37 2 -50 -24 -92 -46 -75 -95 -99 -201
-99 -47 0 -107 6 -134 14 l-48 14 4 75 c3 68 6 76 35 102 68 61 148 57 169 -9
l11 -33 13 31 c7 18 26 50 42 72 37 51 71 51 105 1z m-842 -292 c30 -34 21
-137 -16 -184 -29 -37 -70 -35 -103 5 -32 37 -33 74 -5 139 18 42 26 49 52 53
18 2 37 5 43 5 6 1 19 -7 29 -18z m2680 -219 c224 -60 404 -120 426 -142 10
-10 19 -32 19 -49 0 -44 -28 -54 -145 -54 -110 1 -196 24 -317 85 -74 37 -235
136 -243 149 -14 23 60 63 100 53 6 -1 78 -20 160 -42z m-1035 -108 c0 -14
-44 -53 -60 -53 -11 0 -21 -14 -29 -40 -8 -28 -19 -42 -35 -46 -31 -7 -65 11
-76 42 -15 38 -3 51 53 58 29 4 70 15 92 26 45 21 55 23 55 13z m-1182 -107
c59 -30 117 -93 127 -135 5 -24 0 -45 -20 -87 -31 -63 -54 -80 -94 -66 -31 11
-189 123 -190 134 -1 4 17 35 39 69 21 33 42 69 45 79 3 10 14 21 23 23 9 3
18 5 20 6 1 0 24 -10 50 -23z m-558 -191 c20 -24 2 -35 -57 -35 -54 0 -55 1
-40 18 10 10 14 22 10 25 -3 4 12 7 34 7 23 0 46 -6 53 -15z m-30 -126 c0 -21
-58 -69 -84 -69 -34 0 -92 35 -75 45 44 28 159 45 159 24z m7535 -181 c3 -13
11 -78 19 -146 18 -146 31 -173 102 -208 48 -23 62 -25 184 -25 145 1 186 -10
210 -54 15 -29 16 -81 0 -99 -5 -8 -8 -20 -5 -28 5 -11 -8 -8 -47 11 -52 25
-58 26 -301 31 -198 4 -250 8 -256 19 -14 23 -3 37 37 47 34 8 37 13 44 54 4
25 10 58 13 74 l5 29 -81 -6 c-105 -8 -172 6 -216 47 -45 42 -53 89 -24 149
37 76 137 125 258 126 47 1 53 -2 58 -21z m-5987 -101 c24 -22 28 -56 12 -88
-8 -15 -7 -19 4 -19 15 0 49 -84 38 -94 -11 -12 -58 -5 -97 13 -68 31 -115 96
-115 156 0 20 7 25 35 31 19 3 40 12 46 20 14 17 45 10 77 -19z m5067 -3 c22
-10 103 -80 181 -155 99 -96 154 -141 187 -155 39 -16 47 -23 47 -45 0 -19 18
-47 60 -93 64 -71 72 -94 40 -126 -47 -47 -123 -13 -156 70 -15 36 -20 40 -43
35 -19 -4 -38 3 -70 24 -34 23 -39 30 -25 33 13 3 -7 17 -61 46 -133 70 -185
126 -185 201 0 29 -2 30 -30 25 -42 -9 -98 4 -121 27 -35 35 -16 108 35 130
30 13 95 5 141 -17z m1397 -15 c149 -31 228 -34 311 -14 22 6 27 4 27 -11 0
-10 45 -64 100 -119 62 -64 107 -119 120 -147 23 -53 38 -138 23 -138 -17 0
-82 74 -97 112 -13 31 -144 178 -159 178 -21 0 -428 62 -457 70 -53 14 -74 32
-66 58 4 12 12 20 17 17 5 -4 9 1 9 9 0 21 -2 21 172 -15z m-1775 -534 c94
-19 185 -60 237 -105 35 -31 37 -35 20 -47 -10 -7 -37 -13 -60 -13 -36 0 -51
7 -95 45 -58 49 -104 64 -140 44 -23 -12 -23 -13 19 -27 62 -20 105 -68 125
-137 9 -32 29 -71 44 -87 19 -20 24 -31 16 -39 -8 -8 -30 -2 -80 22 -70 35
-109 77 -120 130 -5 25 -10 27 -62 31 -96 7 -160 75 -161 172 l0 39 90 -6 c49
-4 125 -14 167 -22z m-2298 -31 c48 -61 15 -153 -87 -245 -71 -65 -133 -74
-152 -24 -6 16 -23 26 -57 34 -86 22 -105 63 -57 121 62 73 195 139 281 140
44 0 55 -4 72 -26z m528 0 c54 -26 161 -131 188 -184 18 -35 6 -70 -24 -70
-10 0 -30 -18 -45 -40 -31 -47 -63 -52 -124 -21 -84 43 -192 197 -192 273 0
10 11 30 25 43 34 35 103 34 172 -1z m2713 -145 c68 -64 113 -87 207 -105 41
-8 76 -14 77 -14 2 0 39 -29 82 -65 142 -119 263 -134 433 -55 115 53 169 62
285 50 114 -12 135 -19 169 -60 51 -59 27 -151 -49 -196 -40 -24 -50 -25 -153
-22 -108 3 -110 3 -138 -24 -35 -33 -86 -36 -198 -13 -113 24 -184 65 -257
147 -34 40 -76 85 -93 100 -37 35 -156 94 -208 103 -48 9 -95 -10 -103 -41 -9
-37 1 -52 46 -65 51 -15 70 -41 70 -94 0 -92 -61 -124 -238 -125 -121 0 -123
0 -134 25 -8 19 -19 25 -41 25 -32 0 -67 24 -67 46 0 26 43 44 105 44 65 0
108 16 113 41 2 9 -14 36 -34 60 -74 88 -93 171 -53 235 26 42 44 53 89 54 29
0 46 -9 90 -51z m-1605 -383 c113 -47 45 -213 -110 -267 -43 -15 -263 -18
-368 -5 l-58 8 1 71 c0 40 0 87 -1 105 -2 37 21 68 66 88 44 19 423 19 470 0z
m2759 -387 c0 -56 -29 -107 -82 -142 -30 -19 -43 -38 -61 -86 -30 -82 -48 -86
-151 -35 -54 27 -80 46 -84 62 -9 31 -59 59 -120 67 -72 9 -150 32 -192 57
l-36 21 83 34 c46 18 93 33 104 33 12 0 68 -22 124 -50 157 -77 190 -71 330
63 58 56 64 59 74 41 6 -10 11 -40 11 -65z m-3679 37 c19 -14 19 -15 2 -34
-25 -27 -116 -70 -178 -83 -78 -17 -186 -6 -258 26 -33 15 -59 31 -56 35 2 4
28 10 57 14 29 4 56 12 59 18 8 12 187 35 290 37 42 1 72 -4 84 -13z"/>
</g>
</svg>
