<?xml version="1.0" standalone="no"?>
<!DOCTYPE svg PUBLIC "-//W3C//DTD SVG 20010904//EN"
 "http://www.w3.org/TR/2001/REC-SVG-20010904/DTD/svg10.dtd">
<svg version="1.0" xmlns="http://www.w3.org/2000/svg"
 width="1536.000000pt" height="1260.000000pt" viewBox="0 0 1536.000000 1260.000000"
 preserveAspectRatio="xMidYMid meet">
<metadata>
Created by potrace 1.16, written by Peter Selinger 2001-2019
</metadata>
<g transform="translate(0.000000,1260.000000) scale(0.100000,-0.100000)"
fill="#000000" stroke="none">
<path d="M8721 12586 c-1 -5 15 -79 35 -165 35 -152 36 -156 24 -248 -6 -51
-32 -171 -56 -265 -25 -95 -58 -222 -74 -283 -15 -60 -44 -164 -63 -230 -19
-66 -51 -191 -73 -277 -21 -87 -41 -158 -45 -158 -4 0 -18 29 -30 64 -13 36
-25 63 -27 61 -2 -2 6 -50 18 -108 22 -102 22 -106 6 -178 -14 -61 -75 -622
-76 -696 0 -37 -18 -26 -31 17 -7 22 -14 38 -17 36 -2 -3 3 -29 12 -59 16 -54
16 -57 -15 -174 -19 -72 -33 -155 -36 -213 -7 -110 -12 -103 -48 60 -25 113
-30 104 -16 -25 5 -44 19 -102 31 -130 22 -49 22 -54 10 -223 -7 -95 -12 -230
-12 -300 1 -70 -4 -143 -10 -162 -27 -88 -91 -131 -203 -137 -70 -5 -104 3
-238 54 l-49 18 -18 -22 c-10 -13 -22 -23 -27 -23 -10 0 -73 112 -73 131 0 8
69 83 153 168 83 84 145 150 137 146 -38 -21 -143 -107 -222 -183 l-86 -83
-56 57 -56 58 47 49 c27 27 109 103 183 170 165 146 162 144 122 121 -55 -31
-277 -200 -340 -259 -40 -37 -65 -53 -76 -49 -32 12 -16 38 113 188 99 114
151 161 241 216 40 25 57 40 45 40 -52 0 -120 -51 -298 -222 l-185 -178 -38
16 c-22 9 -50 21 -63 26 -24 9 -14 20 195 231 120 122 203 208 184 191 -392
-343 -393 -343 -367 -303 8 13 52 87 97 164 46 77 92 155 102 173 11 17 17 32
14 32 -3 0 -87 -99 -186 -220 -100 -121 -188 -220 -196 -220 -8 0 -14 2 -14 5
0 3 27 58 60 123 85 165 173 283 339 454 79 81 137 148 129 148 -27 0 -102
-58 -268 -205 -163 -145 -247 -211 -256 -202 -9 9 47 210 72 256 13 25 41 68
60 94 20 26 34 50 31 53 -3 3 -36 -24 -75 -60 -68 -65 -70 -68 -112 -188 -28
-80 -51 -174 -67 -268 -13 -79 -25 -145 -26 -146 -1 -1 -2 115 -2 259 0 275
-5 307 -44 307 -28 0 -31 -20 -25 -133 10 -165 -19 -457 -45 -457 -13 0 -37
41 -55 93 -26 78 -45 205 -58 398 -9 142 -16 186 -29 203 -15 18 -19 19 -34 6
-16 -13 -17 -28 -11 -140 4 -69 13 -192 21 -275 16 -162 18 -288 6 -319 -17
-43 -65 80 -167 429 -47 161 -64 206 -92 238 -39 44 -57 -1 -23 -57 40 -65
122 -583 103 -651 l-8 -30 -27 55 c-14 30 -51 141 -82 245 -52 178 -58 192
-96 230 -48 47 -49 63 10 -169 45 -173 68 -325 57 -369 -6 -27 -7 -27 -32 -11
-31 21 -160 277 -229 454 -29 74 -54 124 -66 130 -27 15 -59 -4 -59 -36 0 -14
50 -141 111 -281 99 -230 172 -414 165 -420 -4 -4 -78 112 -141 222 -92 158
-223 353 -250 371 -30 20 -105 31 -105 16 0 -15 40 -52 56 -52 42 0 162 -199
171 -284 7 -59 -3 -59 -89 0 -55 38 -77 48 -120 51 l-53 4 48 -44 c26 -23 47
-46 47 -50 0 -4 -11 -7 -24 -7 -37 0 -40 -17 -6 -36 42 -25 38 -34 -17 -34
-58 0 -98 19 -98 45 0 12 9 21 25 25 l25 6 -25 16 c-38 25 -141 57 -217 68
-37 5 -69 8 -71 6 -1 -2 32 -24 75 -50 l78 -46 -96 0 c-102 0 -128 11 -115 46
13 34 -21 62 -129 103 -58 22 -116 43 -130 47 -23 6 -25 4 -19 -25 6 -28 4
-31 -17 -32 -46 -2 -74 3 -97 17 -37 24 -31 35 31 48 53 12 32 27 -78 55 -22
6 -66 26 -97 45 l-57 34 -3 -32 c-3 -29 -7 -32 -60 -45 -75 -17 -128 -8 -128
22 0 36 -34 81 -89 116 -29 19 -54 31 -56 29 -3 -3 2 -24 10 -48 17 -49 20
-96 5 -105 -6 -3 -45 29 -88 72 -81 81 -189 153 -230 153 -13 0 -37 -14 -54
-30 -24 -25 -28 -35 -23 -60 6 -27 4 -30 -17 -30 -14 0 -37 13 -53 30 -33 34
-83 47 -115 30 -18 -10 -21 -18 -17 -46 3 -20 2 -34 -5 -34 -5 0 -46 16 -90
35 -137 60 -405 130 -578 150 l-55 6 73 -47 c40 -25 71 -48 68 -51 -3 -3 -76
15 -163 40 -202 58 -227 63 -221 46 2 -8 26 -30 53 -49 74 -54 121 -98 112
-106 -4 -4 -44 11 -90 35 -151 77 -383 104 -717 82 -96 -6 -260 -15 -365 -21
-273 -13 -531 -61 -580 -106 -14 -13 -27 -24 -29 -24 -18 0 -280 -43 -309 -51
-21 -6 -57 -24 -80 -42 -24 -18 -91 -61 -151 -97 -60 -36 -130 -85 -156 -110
-46 -43 -97 -126 -86 -137 6 -6 37 7 211 85 128 58 369 142 408 142 20 0 27
-5 27 -20 0 -31 36 -25 62 10 12 17 26 30 30 30 5 0 43 -20 86 -45 115 -67
144 -61 67 15 -25 24 -45 48 -45 52 0 23 333 80 483 82 112 1 119 0 135 -22
20 -25 73 -41 139 -42 50 0 90 -14 121 -42 l22 -22 53 22 c62 26 80 27 112 6
29 -19 157 -40 300 -49 184 -11 347 -34 388 -55 48 -26 95 -25 210 1 56 13
131 22 194 23 80 2 106 6 121 19 24 22 28 21 63 -4 16 -11 52 -28 81 -38 l52
-18 -58 -7 c-58 -6 -116 -29 -116 -45 0 -17 29 -20 99 -9 62 9 74 8 90 -6 22
-20 88 -32 216 -41 169 -10 278 -26 325 -46 45 -20 45 -20 62 0 19 25 41 26
99 6 77 -28 131 -38 239 -44 l105 -6 -70 -23 c-96 -32 -186 -40 -204 -18 -7 9
-25 16 -38 16 -22 0 -24 -3 -19 -25 l6 -25 -82 2 c-70 3 -83 1 -86 -14 -5 -25
31 -32 153 -31 130 1 259 22 387 62 121 38 133 40 149 30 20 -12 -5 -57 -38
-70 -15 -6 -66 -15 -112 -21 -113 -13 -155 -30 -213 -84 -66 -61 -157 -102
-393 -175 -110 -33 -239 -76 -286 -95 -48 -18 -164 -56 -259 -84 -179 -53
-255 -84 -245 -100 10 -16 124 -11 215 9 47 11 157 40 243 66 87 25 190 50
230 55 40 4 122 24 182 44 133 43 168 46 163 14 -2 -17 -22 -32 -78 -60 -126
-62 -858 -291 -1062 -333 -15 -3 -29 -14 -33 -25 -6 -20 -58 -40 -105 -40 -35
0 -70 -27 -70 -54 0 -12 -4 -26 -9 -31 -5 -6 -25 -72 -45 -148 -20 -75 -39
-145 -43 -155 -3 -9 -3 -14 1 -11 3 3 31 71 61 150 44 116 58 143 72 141 10
-1 42 -5 71 -9 28 -3 52 -11 52 -17 0 -6 -13 -80 -30 -165 -16 -85 -28 -156
-26 -158 6 -6 54 144 79 247 l23 92 47 18 c26 10 47 17 47 16 0 -2 -13 -70
-30 -151 -36 -178 -37 -201 -4 -80 59 211 73 250 103 279 16 15 34 25 40 22 6
-4 11 -37 11 -74 0 -91 7 -114 34 -110 22 3 90 94 81 109 -3 4 -16 4 -29 -1
-17 -6 -30 -5 -42 5 -31 22 -1 45 58 45 42 0 49 -3 44 -17 -29 -103 -56 -216
-53 -219 4 -5 77 179 77 195 0 20 18 20 23 1 3 -12 -7 -44 -24 -76 -16 -30
-27 -59 -23 -65 9 -15 47 23 120 122 71 96 99 119 144 119 31 0 34 3 44 53 4
17 13 27 25 27 17 0 16 -13 -20 -192 -22 -105 -39 -197 -38 -202 0 -6 14 36
30 94 73 259 78 272 100 265 13 -4 28 0 40 11 10 9 19 14 19 10 0 -3 -16 -68
-35 -143 -19 -75 -33 -138 -32 -140 6 -5 58 133 103 272 26 83 47 130 55 130
15 0 16 -24 4 -95 -7 -41 -6 -44 8 -30 9 8 35 53 58 100 24 47 44 78 46 70 1
-8 -10 -79 -26 -158 -15 -79 -25 -139 -20 -135 11 12 65 188 84 275 12 54 22
79 33 82 30 8 102 18 102 14 0 -3 -16 -83 -35 -178 -41 -202 -43 -230 -9 -106
13 49 29 95 35 102 6 7 7 19 3 26 -4 7 -3 9 2 5 4 -4 23 29 42 75 18 46 31 68
28 51 -3 -18 -4 -33 -2 -33 3 0 14 16 26 36 12 19 24 33 26 31 2 -2 -12 -61
-31 -132 -19 -71 -33 -131 -31 -132 4 -4 67 159 96 249 13 42 31 75 46 87 27
21 122 56 130 48 3 -3 -13 -100 -35 -217 -42 -217 -47 -250 -30 -215 7 14 8 4
4 -35 -6 -68 -21 -82 -118 -111 -212 -62 -541 -225 -1254 -620 -539 -298 -654
-366 -943 -553 -90 -58 -189 -115 -219 -126 -118 -45 -482 -241 -569 -306 -17
-14 -39 -39 -48 -56 -14 -27 -14 -32 -1 -45 21 -21 51 -10 277 97 175 83 265
120 612 254 81 31 191 80 245 108 469 242 899 446 1083 514 103 38 171 71 360
172 134 71 676 302 726 309 37 5 44 3 59 -21 10 -14 24 -73 33 -131 14 -95 14
-107 0 -121 -13 -14 -17 -13 -32 10 -20 32 -39 33 -59 4 l-16 -23 0 23 c-2 81
-98 100 -212 42 -50 -26 -73 -61 -65 -97 4 -17 44 -64 97 -115 87 -86 98 -101
80 -112 -5 -3 -44 -58 -87 -121 -42 -63 -80 -115 -84 -115 -3 0 -16 23 -27 50
-13 29 -28 50 -37 50 -24 0 -37 -35 -30 -78 11 -69 -30 -66 -70 4 -23 41 -62
57 -77 32 -5 -7 -6 -37 -2 -65 l6 -53 -37 0 c-43 0 -45 -10 -11 -65 14 -22 25
-46 25 -52 0 -26 -37 -12 -75 27 -46 47 -55 49 -55 14 0 -33 14 -59 62 -113
51 -59 50 -73 -8 -70 -51 3 -64 -8 -64 -58 0 -17 -4 -43 -10 -57 -12 -33 -51
-35 -65 -4 -6 13 -23 29 -39 37 -27 13 -31 12 -48 -9 -13 -17 -24 -21 -43 -16
-20 5 -25 3 -25 -13 0 -22 47 -66 124 -115 79 -51 90 -71 94 -185 5 -120 -9
-167 -58 -198 -72 -45 -83 -58 -89 -104 -6 -41 -8 -44 -40 -47 -25 -3 -42 4
-70 26 -47 38 -79 48 -87 29 -13 -34 59 -122 112 -136 19 -5 30 -15 32 -29 4
-25 -28 -102 -65 -155 -25 -36 -98 -97 -115 -97 -5 0 -6 16 -2 35 7 37 -9 48
-34 23 -32 -32 1 -98 49 -98 45 0 113 -126 90 -168 -15 -28 -15 -28 17 -27 26
0 27 -2 30 -55 5 -81 -5 -119 -33 -130 -14 -5 -26 -20 -30 -39 -9 -40 -34 -46
-136 -34 -43 5 -79 5 -79 1 0 -4 4 -8 8 -8 5 0 43 -34 86 -75 71 -67 78 -77
73 -103 -4 -19 1 -42 14 -67 11 -20 18 -39 16 -42 -3 -2 -34 2 -71 8 -36 7
-68 10 -71 7 -3 -3 6 -29 20 -59 33 -71 32 -104 -3 -137 l-29 -27 79 4 c100 4
124 -2 143 -39 33 -63 5 -240 -38 -240 -8 0 -26 18 -41 40 -16 24 -34 40 -46
40 -39 0 -22 -40 45 -106 36 -36 63 -69 59 -75 -4 -6 -26 -8 -60 -3 -66 8 -84
-4 -84 -56 0 -39 28 -100 79 -171 57 -78 73 -182 38 -241 -7 -11 -33 -31 -60
-44 -63 -33 -147 -149 -147 -205 0 -19 4 -21 33 -15 17 4 56 10 86 13 44 5 53
4 49 -8 -55 -146 -99 -295 -94 -321 9 -45 58 -100 148 -168 96 -73 167 -110
207 -110 38 0 51 23 51 85 0 39 -5 52 -30 77 -34 33 -36 63 -5 63 12 0 31 -17
48 -42 51 -76 84 -52 128 91 38 124 63 168 93 164 19 -3 21 -8 18 -67 l-3 -64
22 15 c13 8 26 21 29 29 38 82 67 122 170 233 66 70 144 166 175 212 43 65 60
84 78 84 51 0 291 239 358 357 33 57 51 68 81 52 11 -6 18 -7 14 -1 -11 18 25
117 94 257 73 148 118 213 138 201 18 -11 14 -60 -12 -161 -13 -49 -22 -91
-21 -93 5 -6 122 163 168 243 55 95 87 183 87 239 0 60 19 91 55 91 l30 0 0
135 c0 149 14 202 63 240 42 33 48 12 23 -82 -11 -46 -21 -94 -21 -107 0 -21
2 -22 16 -10 9 8 31 45 49 84 40 88 55 102 82 78 71 -62 261 -318 548 -736
252 -369 361 -542 449 -717 86 -171 110 -233 151 -404 19 -81 68 -249 109
-374 82 -248 156 -490 156 -509 0 -7 55 -157 123 -335 68 -178 129 -341 135
-363 24 -86 50 -370 67 -745 4 -74 10 -349 14 -610 3 -261 10 -481 15 -488 6
-10 11 -10 21 -2 41 34 60 327 50 790 -4 195 -7 414 -6 485 3 131 -9 291 -34
485 -12 94 -30 150 -166 520 -92 251 -187 534 -241 715 -49 165 -122 401 -163
525 -40 124 -81 257 -91 295 -9 39 -28 93 -42 120 -48 97 -183 304 -373 576
-106 151 -266 384 -357 519 -90 135 -181 266 -203 292 -21 25 -43 58 -49 73
-15 39 -12 144 10 385 24 275 41 332 153 525 23 39 41 71 41 72 1 0 88 6 194
12 229 13 395 35 472 62 74 25 106 62 114 130 4 30 9 77 13 104 l6 50 33 -72
c40 -90 59 -101 140 -84 90 18 191 74 290 160 100 87 227 223 261 278 26 43
39 53 75 53 43 0 157 -115 341 -345 89 -110 200 -245 247 -300 48 -55 212
-255 365 -445 154 -190 356 -439 450 -555 235 -290 374 -466 492 -626 55 -75
120 -151 143 -170 105 -85 189 -166 720 -695 318 -317 657 -665 775 -796 176
-196 237 -255 374 -368 90 -74 229 -190 307 -258 98 -84 214 -169 371 -272
205 -133 255 -167 365 -247 17 -13 46 -23 63 -23 45 0 136 31 132 44 -7 21
-103 86 -157 107 -76 28 -186 94 -363 217 -225 156 -441 320 -537 408 -300
275 -734 697 -1179 1148 -643 653 -747 762 -906 961 -71 88 -210 255 -310 370
-547 634 -1425 1760 -1425 1828 0 16 119 1 305 -39 228 -48 402 -57 487 -24
183 69 340 362 272 506 -28 58 -175 179 -475 391 -58 41 -125 63 -192 63 -85
1 -181 39 -202 81 -22 41 -19 59 20 135 43 86 136 210 307 411 73 85 138 161
145 170 14 17 -18 26 365 -96 433 -136 857 -258 1402 -402 524 -138 501 -134
736 -134 113 0 342 8 510 17 168 10 519 25 780 33 261 9 485 21 498 26 30 12
28 37 -5 52 -36 15 -770 14 -888 -2 -44 -6 -219 -16 -389 -23 -538 -20 -716 2
-1401 173 -658 165 -1266 352 -1494 460 -57 27 -116 49 -130 49 -61 0 -168
-97 -306 -276 -182 -236 -221 -274 -281 -274 -53 0 -102 53 -189 204 l-28 49
59 -60 c69 -70 121 -90 183 -70 30 10 41 22 71 83 44 88 65 117 210 279 64 72
183 209 265 305 186 219 754 790 845 850 36 24 75 52 87 63 15 14 29 18 47 13
14 -3 34 -2 43 3 10 5 54 21 98 35 44 14 121 39 170 57 79 28 108 33 241 40
171 8 150 1 394 136 145 79 275 178 291 221 13 35 8 77 -11 77 -8 0 -25 -20
-39 -44 -17 -30 -43 -56 -90 -85 -266 -171 -341 -215 -377 -225 -22 -6 -97
-15 -165 -20 -129 -9 -373 -65 -489 -111 -30 -12 -84 -33 -119 -46 -35 -13
-69 -28 -75 -32 -6 -5 -63 -47 -126 -94 -63 -47 -164 -131 -225 -186 l-110
-101 -5 67 -5 67 -11 -84 -12 -84 -98 -98 c-55 -55 -100 -95 -102 -89 -2 5 4
64 12 131 18 139 20 197 7 183 -11 -10 -24 -89 -41 -249 l-12 -109 -158 -166
c-200 -209 -325 -351 -411 -465 -89 -120 -108 -140 -148 -170 -66 -48 -104
-24 -93 59 4 31 0 42 -16 55 -21 16 -21 18 -7 121 7 58 21 179 30 270 9 91 27
228 40 305 44 250 72 520 110 1055 29 414 31 423 112 725 41 154 86 307 98
341 29 76 40 132 65 309 10 77 29 187 41 245 l23 105 -61 185 c-34 102 -62
181 -62 176z m-4530 -2924 c21 -18 22 -52 1 -52 -16 0 -62 41 -62 56 0 20 33
17 61 -4z m-1747 -106 c9 -13 7 -20 -8 -32 -46 -34 -90 2 -46 38 26 21 39 20
54 -6z m528 -11 c273 -26 509 -64 532 -86 26 -24 -159 -49 -227 -30 -23 6 -91
15 -151 20 -90 7 -112 11 -123 27 -13 18 -29 19 -216 19 -174 0 -210 3 -257
19 l-55 20 40 12 c56 17 272 17 457 -1z m1248 -179 c75 -24 88 -49 28 -54 -40
-3 -169 31 -207 55 -61 39 60 39 179 -1z m1038 -28 c45 -27 41 -42 -9 -35 -43
6 -79 31 -79 55 0 18 41 9 88 -20z m-764 -38 c43 -16 30 -30 -28 -30 -56 0
-116 16 -116 31 0 12 112 12 144 -1z m174 -16 c19 -13 32 -54 16 -54 -11 0
-49 23 -56 34 -23 34 2 47 40 20z m932 -238 c0 -55 -9 -86 -26 -86 -20 0 -45
43 -51 87 -4 30 0 43 18 62 l22 24 19 -23 c11 -13 18 -38 18 -64z m-420 62 c0
-14 -30 -48 -42 -48 -10 0 -11 44 -1 53 11 12 43 8 43 -5z m74 -104 c9 -24 7
-72 -3 -78 -11 -7 -44 71 -36 85 10 14 32 11 39 -7z m206 -14 c0 -26 -38 -60
-67 -60 -40 0 -27 39 22 64 39 21 45 20 45 -4z m-258 -346 c74 -24 75 -28 50
-162 -11 -64 -19 -118 -18 -120 3 -3 40 103 71 205 3 9 13 8 42 -4 21 -8 68
-19 106 -24 84 -11 107 -22 107 -54 0 -22 -4 -25 -37 -25 -21 0 -76 13 -122
30 -47 16 -89 26 -95 23 -5 -4 14 -27 42 -53 29 -26 52 -49 52 -52 0 -3 -51
-31 -113 -62 l-114 -56 -133 -10 c-85 -6 -141 -15 -155 -24 l-22 -15 23 77
c30 96 64 258 64 306 0 25 4 36 15 36 8 0 15 -2 15 -3 0 -2 -13 -71 -30 -152
-16 -81 -30 -153 -29 -159 0 -6 18 53 40 131 59 215 47 197 127 189 37 -4 88
-13 114 -22z m2543 -398 c25 -20 39 -40 48 -73 10 -38 20 -52 57 -75 56 -36
188 -78 243 -78 56 0 117 -18 117 -34 0 -15 -76 -123 -209 -298 -52 -67 -105
-148 -118 -178 -14 -30 -30 -66 -36 -79 -14 -29 -68 -64 -80 -52 -5 5 -26 87
-48 182 -57 257 -74 313 -136 436 -62 127 -75 187 -49 229 40 59 146 70 211
20z m696 -373 c25 -59 57 -93 183 -196 191 -155 404 -295 484 -316 23 -7 42
-18 42 -25 0 -34 -99 -139 -161 -171 -71 -37 -421 -45 -546 -12 -29 8 -94 39
-145 70 -51 31 -113 63 -137 72 -89 31 -160 13 -196 -49 -17 -29 -341 -352
-370 -369 -33 -18 -66 62 -68 168 l-2 60 -62 24 c-70 27 -78 44 -39 80 35 33
78 39 208 28 206 -18 270 12 381 181 36 54 95 138 132 188 82 108 257 313 268
314 4 0 17 -21 28 -47z m-3105 22 c39 -16 38 -30 -10 -74 -23 -21 -26 -22 -32
-7 -4 9 -19 23 -35 32 -27 13 -38 42 -22 57 11 12 62 8 99 -8z m2213 -78 c5
-18 15 -59 21 -92 14 -66 35 -114 59 -132 13 -9 16 -33 16 -131 0 -66 -3 -123
-7 -127 -3 -3 -25 5 -47 20 -43 26 -63 60 -78 130 -6 30 -13 40 -27 40 -21 0
-32 -16 -41 -57 -6 -31 -47 -48 -74 -31 -41 26 -18 173 49 310 56 113 107 140
129 70z m1559 -210 c19 -18 32 -77 17 -77 -19 0 -67 34 -86 61 -18 26 -19 33
-8 40 18 11 48 2 77 -24z m163 -126 c20 -16 21 -21 10 -35 -17 -21 -40 -20
-63 1 -21 19 -23 39 -5 46 23 10 35 7 58 -12z m5 -289 c-35 -67 -153 -146
-260 -173 -41 -10 -50 -10 -63 4 -22 22 -5 41 55 63 93 34 128 52 196 103 74
55 99 56 72 3z m-2717 -169 c86 -51 251 -185 334 -271 57 -60 67 -75 67 -105
0 -20 -4 -38 -9 -42 -14 -8 -327 32 -384 49 -74 22 -93 39 -106 93 -16 60 -16
264 -1 292 15 29 26 27 99 -16z m505 -378 c9 -25 -5 -45 -30 -45 -14 0 -27 7
-30 15 -10 25 4 45 30 45 13 0 26 -7 30 -15z m-1884 -2608 c0 -28 -44 -100
-89 -144 -34 -35 -71 -44 -71 -18 0 39 66 133 117 166 36 24 43 24 43 -4z
m-410 -372 c0 -13 -51 -178 -60 -195 -20 -37 -33 -23 -25 28 7 54 59 172 74
172 6 0 11 -2 11 -5z"/>
<path d="M307 9059 c-78 -52 -219 -218 -258 -305 -12 -27 -17 -53 -13 -72 5
-22 0 -39 -15 -60 -28 -39 -27 -53 7 -84 50 -47 286 -217 343 -248 59 -31 104
-39 97 -17 -3 6 -62 56 -133 109 -165 126 -166 126 -120 176 19 22 35 44 35
50 0 16 -34 32 -67 32 -55 0 -73 10 -73 41 0 77 179 333 264 378 14 8 26 18
26 23 0 18 -49 6 -93 -23z"/>
<path d="M3922 9078 c-19 -19 -14 -56 11 -70 15 -9 62 -13 142 -12 128 0 205
15 205 39 0 17 -5 18 -130 19 -74 1 -102 5 -123 19 -30 20 -87 23 -105 5z"/>
<path d="M3518 9043 c-32 -2 -58 -8 -58 -12 0 -4 19 -17 42 -27 60 -27 247
-27 297 0 54 29 26 40 -106 42 -65 1 -144 -1 -175 -3z"/>
<path d="M2943 8983 c-44 -9 -22 -23 34 -23 35 0 53 4 48 9 -13 13 -55 20 -82
14z"/>
<path d="M2610 8951 c-60 -19 -160 -68 -160 -78 0 -11 167 6 203 20 45 19 54
35 31 57 -18 18 -21 18 -74 1z"/>
<path d="M3803 8924 c-40 -20 -42 -31 -6 -40 31 -8 78 14 78 36 0 21 -34 23
-72 4z"/>
<path d="M2020 8871 c-12 -9 -12 -11 2 -16 23 -9 73 -2 73 10 0 13 -56 18 -75
6z"/>
<path d="M1182 8773 c-12 -2 -20 -9 -17 -14 8 -12 112 -12 119 0 12 18 -42 25
-102 14z"/>
<path d="M583 8743 c-49 -10 -53 -63 -4 -63 36 0 108 49 90 61 -14 9 -47 10
-86 2z"/>
<path d="M15260 8675 c-25 -7 -86 -29 -137 -49 -51 -20 -161 -54 -244 -76
-226 -59 -214 -64 54 -25 314 45 470 99 415 142 -24 19 -43 20 -88 8z"/>
<path d="M14610 8491 c-12 -9 -12 -11 2 -16 23 -9 83 -2 83 10 0 13 -66 18
-85 6z"/>
<path d="M3333 8428 c-58 -60 -67 -128 -17 -128 39 0 151 55 158 78 7 21 -7
66 -23 76 -6 4 -18 -5 -27 -19 -21 -32 -34 -32 -34 0 0 34 -20 31 -57 -7z"/>
<path d="M14335 8445 c-93 -17 -153 -35 -166 -52 -25 -29 137 -10 310 37 104
28 -9 40 -144 15z"/>
<path d="M13802 8319 c-169 -22 -353 -67 -360 -88 -6 -18 83 -10 259 25 155
30 231 52 224 64 -7 11 -33 11 -123 -1z"/>
<path d="M580 8288 c-70 -36 -64 -87 13 -120 30 -12 23 -13 -93 -18 l-125 -5
135 -12 c242 -23 304 -31 378 -54 39 -12 72 -25 72 -28 0 -4 -47 -24 -105 -45
-58 -22 -104 -41 -101 -43 5 -5 177 35 229 53 35 13 45 11 135 -19 53 -17 98
-33 100 -34 2 0 -29 -45 -68 -100 -78 -105 -72 -102 35 20 l69 79 112 -4 c62
-2 111 -2 109 0 -1 2 -49 14 -107 26 -57 13 -222 63 -367 111 -144 47 -285 89
-312 92 -27 3 -52 10 -55 14 -3 5 7 26 21 46 14 21 25 43 25 50 0 20 -51 15
-100 -9z"/>
<path d="M3092 8298 c-21 -21 -14 -58 13 -68 48 -18 77 15 50 56 -17 26 -44
31 -63 12z"/>
<path d="M2915 8271 c-16 -4 -41 -13 -55 -21 l-24 -13 24 -9 c50 -19 182 15
165 42 -7 11 -65 11 -110 1z"/>
<path d="M2575 8180 c-30 -11 -49 -36 -35 -45 20 -13 180 28 180 45 0 12 -117
12 -145 0z"/>
<path d="M2013 8078 c-24 -11 -36 -34 -27 -49 7 -12 81 -11 105 1 23 13 24 24
3 44 -18 18 -49 20 -81 4z"/>
<path d="M2985 8083 c-11 -2 -69 -20 -130 -40 -82 -26 -130 -36 -187 -37 -43
-1 -83 -7 -89 -13 -17 -17 -3 -43 21 -43 33 0 60 -19 60 -40 0 -11 4 -20 9
-20 8 0 -4 -58 -33 -160 -14 -51 12 6 49 105 47 127 57 138 140 145 36 3 65 2
65 -3 0 -4 -14 -78 -31 -163 -16 -86 -28 -158 -25 -161 7 -7 61 169 82 265 9
45 21 82 26 82 5 0 27 9 48 19 22 11 40 16 40 12 0 -4 -14 -75 -30 -156 -17
-82 -29 -150 -27 -151 2 -2 26 78 53 176 48 172 50 179 30 178 -12 0 -28 2
-36 4 -8 3 -24 4 -35 1z"/>
<path d="M2406 7954 c-9 -8 -18 -25 -21 -37 -14 -58 -55 -271 -54 -281 0 -6
18 53 41 132 34 120 43 142 60 142 11 0 28 5 39 11 20 10 20 11 3 30 -21 23
-47 24 -68 3z"/>
<path d="M1587 7943 c-17 -3 -42 -20 -60 -41 -18 -20 -64 -71 -104 -113 -40
-41 -73 -79 -73 -83 0 -10 77 54 174 145 69 65 77 69 120 69 25 0 46 5 46 10
0 6 -8 10 -17 10 -10 0 -27 2 -38 4 -11 2 -33 1 -48 -1z"/>
<path d="M2145 7923 c-84 -5 -94 -10 -93 -41 0 -15 -14 -78 -31 -141 -18 -62
-30 -115 -28 -117 1 -2 24 52 49 119 l46 122 78 7 c43 4 79 6 80 5 1 -1 -13
-76 -31 -167 -18 -91 -32 -166 -30 -168 3 -4 41 104 63 183 29 103 49 194 44
200 -5 5 -52 4 -147 -2z"/>
<path d="M1668 7833 c-71 -87 -43 -76 52 21 46 47 51 56 33 56 -15 0 -42 -24
-85 -77z"/>
<path d="M1825 7828 l-58 -73 71 70 c40 38 72 71 72 72 0 2 -6 3 -13 3 -7 0
-39 -33 -72 -72z"/>
<path d="M4011 7864 c0 -11 3 -14 6 -6 3 7 2 16 -1 19 -3 4 -6 -2 -5 -13z"/>
<path d="M1749 7733 c-13 -16 -12 -17 4 -4 9 7 17 15 17 17 0 8 -8 3 -21 -13z"/>
<path d="M2321 7604 c0 -11 3 -14 6 -6 3 7 2 16 -1 19 -3 4 -6 -2 -5 -13z"/>
</g>
</svg>
