<?xml version="1.0" standalone="no"?>
<!DOCTYPE svg PUBLIC "-//W3C//DTD SVG 20010904//EN"
 "http://www.w3.org/TR/2001/REC-SVG-20010904/DTD/svg10.dtd">
<svg version="1.0" xmlns="http://www.w3.org/2000/svg"
 width="1536.000000pt" height="814.000000pt" viewBox="0 0 1536.000000 814.000000"
 preserveAspectRatio="xMidYMid meet">
<metadata>
Created by potrace 1.16, written by Peter Selinger 2001-2019
</metadata>
<g transform="translate(0.000000,814.000000) scale(0.100000,-0.100000)"
fill="#000000" stroke="none">
<path d="M1180 8132 c0 -4 6 -14 13 -21 10 -10 7 -16 -13 -29 -13 -10 -36 -27
-50 -39 l-25 -22 40 -1 40 0 -40 -25 c-32 -19 -36 -24 -19 -25 12 0 25 -7 28
-16 6 -16 41 -16 107 1 22 6 29 2 47 -27 12 -18 48 -55 82 -82 41 -34 60 -57
60 -72 0 -17 16 -34 55 -61 30 -21 57 -45 60 -54 3 -8 23 -26 46 -40 124 -75
157 -100 152 -119 -4 -15 30 -41 175 -137 150 -98 180 -121 176 -138 -5 -20 0
-20 238 -21 326 -1 1049 -51 1056 -73 2 -6 11 -20 20 -31 l17 -21 655 10 c360
6 784 14 943 17 l287 7 0 -81 c0 -70 7 -102 44 -216 77 -234 178 -458 296
-657 33 -56 60 -102 60 -103 0 -1 -35 6 -77 16 -127 29 -583 117 -731 140
-200 32 -603 32 -812 -1 -216 -33 -355 -66 -552 -131 l-177 -59 -383 10 c-613
17 -1213 -2 -1328 -41 -30 -11 -118 -41 -195 -69 l-140 -49 270 -132 c301
-147 322 -154 650 -205 94 -15 176 -29 183 -31 7 -2 -31 -38 -85 -80 -54 -42
-110 -88 -125 -101 -38 -36 -80 -136 -85 -207 -6 -75 16 -112 75 -121 155 -25
315 -74 727 -223 739 -267 948 -339 1030 -352 123 -19 598 -58 750 -61 68 -2
69 -2 20 -8 -27 -3 -70 -18 -95 -32 -25 -14 -220 -153 -435 -310 -348 -255
-889 -646 -1065 -770 -36 -26 -101 -64 -145 -87 -97 -48 -129 -80 -129 -126 0
-31 -4 -36 -55 -61 -229 -110 -1281 -708 -1311 -745 -8 -10 -51 -28 -95 -40
-128 -34 -289 -117 -365 -186 -16 -15 -52 -28 -104 -39 -96 -20 -202 -61 -219
-85 -6 -9 -36 -22 -65 -29 -30 -6 -63 -16 -75 -23 -13 -6 -78 -12 -162 -13
-163 -1 -217 -16 -234 -66 -5 -16 -17 -29 -26 -29 -29 0 -155 -75 -155 -92 0
-3 13 -3 29 0 28 4 28 4 36 -62 3 -36 11 -68 16 -72 5 -3 18 14 28 38 l20 43
0 -45 c2 -64 17 -85 27 -35 8 45 18 32 29 -39 20 -144 44 -119 53 55 l7 134
55 7 c30 3 93 22 140 42 54 22 88 32 94 26 17 -17 44 -11 114 24 37 18 84 36
104 39 20 3 63 23 95 45 83 56 166 97 171 83 10 -30 75 -1 365 166 70 40 130
73 132 73 3 0 5 -7 5 -15 0 -23 24 -18 51 11 57 62 524 349 1133 695 l189 108
28 -20 c36 -25 61 -24 96 4 50 42 266 195 863 614 322 226 653 461 737 524
200 151 243 176 319 184 l60 7 17 -60 c29 -103 81 -144 271 -211 310 -110 815
-132 907 -40 19 19 20 19 47 -1 25 -19 33 -20 77 -10 91 20 346 138 550 253
75 43 81 45 107 31 28 -14 37 -38 19 -49 -5 -3 -11 5 -13 17 -7 46 -127 -139
-254 -392 -199 -397 -452 -1030 -552 -1380 -30 -106 -42 -133 -77 -175 -107
-127 -261 -387 -415 -700 -119 -241 -191 -408 -193 -450 -2 -22 -22 -54 -70
-110 -79 -95 -127 -180 -127 -227 0 -30 -10 -43 -89 -114 -50 -43 -97 -93
-107 -110 -14 -26 -27 -33 -88 -47 -78 -18 -149 -61 -154 -93 -2 -13 -20 -29
-50 -43 -70 -34 -118 -76 -141 -124 -25 -52 -28 -107 -6 -107 8 0 15 4 15 9 0
5 28 33 62 62 l61 54 -6 -70 c-4 -39 -9 -88 -12 -110 l-5 -40 14 30 c8 17 20
60 27 98 7 37 16 67 20 67 4 0 11 -27 15 -60 4 -33 10 -60 14 -60 5 0 11 24
15 52 4 29 11 62 15 73 6 17 8 14 14 -15 16 -76 21 -71 26 23 l5 98 60 24 c33
14 72 38 87 55 15 16 32 30 37 30 6 0 47 49 92 110 62 82 86 107 95 99 9 -7
17 -4 28 13 9 12 16 26 16 30 0 8 25 54 136 248 30 52 57 86 87 107 46 32 55
50 93 177 33 111 366 760 488 950 34 53 39 57 66 51 63 -14 87 22 125 180 39
164 145 438 403 1040 l60 140 54 6 c52 6 145 45 181 77 9 8 17 27 17 41 0 20
12 34 51 61 28 19 96 77 150 128 l100 95 58 -32 c78 -41 185 -56 356 -48 140
7 201 20 280 59 82 41 321 90 334 69 4 -6 15 -44 25 -84 14 -63 21 -76 49 -93
78 -47 155 -55 259 -29 118 31 157 56 286 182 l124 120 66 12 c82 15 98 27
277 201 77 75 150 142 162 148 20 11 25 6 71 -66 27 -42 87 -144 132 -227 135
-245 148 -265 400 -630 320 -462 316 -457 370 -475 25 -8 55 -26 67 -40 13
-14 57 -92 99 -175 42 -82 80 -151 85 -153 5 -2 100 -155 211 -340 l202 -336
136 -140 c89 -93 163 -181 215 -258 l80 -118 107 -57 108 -58 0 -75 c0 -67 3
-80 30 -120 l30 -45 0 48 c0 51 2 52 50 36 30 -11 34 -10 51 12 25 33 24 37
-13 41 l-33 3 38 24 c33 20 43 22 65 12 16 -6 -26 40 -97 109 -114 109 -128
120 -162 120 -35 0 -49 12 -279 250 -229 236 -250 261 -370 437 -165 245 -304
519 -349 689 -7 25 -34 69 -70 112 -50 59 -58 72 -45 82 31 26 11 68 -98 205
-43 55 -135 176 -205 269 -139 187 -453 590 -616 791 -58 71 -103 133 -101
137 3 5 43 8 90 8 l84 0 0 -32 c1 -57 34 -110 147 -233 168 -182 295 -276 533
-395 214 -107 209 -106 500 -119 147 -7 268 -8 285 -3 20 6 37 22 53 50 23 42
23 43 8 137 -14 86 -66 280 -102 379 -7 22 -13 40 -11 41 1 1 85 -47 187 -107
102 -59 273 -154 380 -210 147 -76 246 -137 405 -249 188 -132 220 -159 310
-260 181 -202 184 -208 245 -489 42 -195 41 -192 52 -151 7 26 0 75 -32 224
l-42 191 -79 120 c-101 156 -188 236 -496 459 -127 92 -234 176 -238 186 -10
33 -41 51 -161 97 -111 42 -659 332 -676 358 -4 6 -10 30 -14 54 -9 59 12 80
159 153 l118 60 62 -37 c93 -56 276 -172 326 -206 31 -22 45 -27 51 -19 5 9
33 -5 96 -47 49 -32 99 -64 112 -71 27 -14 52 -8 52 13 0 11 9 13 40 9 31 -4
54 2 115 30 46 22 75 42 75 52 0 8 2 15 5 15 13 0 55 -57 65 -87 13 -38 26
-42 35 -13 7 22 20 26 31 9 5 -8 9 -8 14 1 5 9 19 2 47 -24 22 -20 43 -36 47
-36 3 0 6 17 6 38 0 76 -77 150 -197 191 -50 17 -59 18 -69 6 -6 -8 -18 -15
-26 -15 -31 0 -104 -31 -155 -66 l-52 -36 -63 30 c-35 16 -95 41 -134 56 -50
19 -74 34 -82 50 -6 14 -66 66 -134 116 -68 51 -124 95 -126 99 -8 23 199 93
648 217 417 115 495 134 557 134 70 0 73 1 73 24 0 22 4 23 83 29 45 4 246 7
447 7 201 0 412 5 470 10 58 5 215 19 350 31 282 23 1120 157 1120 179 0 3
-18 15 -40 27 l-41 22 -177 -40 c-113 -25 -316 -57 -562 -89 l-385 -50 -655
-11 c-593 -9 -665 -12 -760 -31 -153 -30 -1028 -307 -1133 -359 l-85 -42 -123
80 c-68 43 -164 104 -214 133 -49 29 -320 205 -601 391 -482 317 -528 350
-810 580 -165 134 -356 281 -424 326 l-125 82 -92 3 -93 3 -55 -125 c-54 -124
-72 -198 -77 -310 -3 -54 -3 -55 -33 -53 -16 2 -195 6 -397 9 l-367 7 98 196
c108 215 202 422 222 489 12 42 12 44 -18 74 -26 26 -33 29 -52 19 -18 -10
-32 -6 -95 28 -139 77 -281 120 -331 101 -15 -6 -29 -9 -30 -8 -2 2 -10 102
-19 223 -27 359 -39 430 -78 463 -14 11 -12 20 18 78 37 72 42 110 19 157 -16
33 -62 73 -72 63 -4 -3 -6 -23 -5 -43 l2 -38 -25 30 c-13 17 -24 33 -25 38 0
4 -4 7 -9 7 -10 0 7 -91 20 -105 19 -20 8 -26 -17 -10 l-27 17 6 -40 c3 -23 1
-42 -5 -44 -6 -2 -5 -20 1 -48 6 -25 19 -97 31 -160 18 -100 129 -559 145
-601 4 -10 -3 -19 -20 -27 -30 -14 -33 -42 -5 -42 26 0 206 -35 348 -67 92
-21 112 -29 107 -42 -2 -9 -14 -47 -26 -86 -23 -77 -125 -299 -226 -496 l-64
-127 -112 -6 c-146 -9 -245 -24 -282 -43 -53 -27 -134 -101 -415 -377 -151
-149 -309 -304 -351 -345 l-77 -73 -83 22 c-68 18 -120 23 -274 27 -104 2
-204 9 -222 14 -42 13 -59 53 -70 161 l-9 87 49 11 c26 5 57 10 67 10 43 0 16
17 -53 33 l-72 18 -18 77 c-19 84 -64 183 -103 223 -13 14 -24 34 -24 45 0 34
-39 171 -82 288 -81 221 -421 964 -446 973 -8 3 -18 0 -23 -8 -6 -11 -15 -7
-41 17 -18 18 -43 37 -55 43 -29 15 -172 14 -709 -4 -403 -14 -948 -21 -1063
-13 -36 2 -47 -2 -66 -24 l-22 -26 -114 14 c-144 18 -602 58 -914 80 l-240 17
-76 71 c-77 72 -183 143 -229 152 -14 3 -36 21 -49 40 -32 46 -138 144 -157
144 -28 0 -117 104 -155 182 -46 93 -101 158 -136 158 -14 0 -39 11 -55 25
-37 31 -108 69 -108 57z m8080 -1748 c47 -47 566 -515 849 -764 63 -55 140
-105 310 -202 647 -368 951 -544 951 -548 0 -3 -41 -26 -90 -50 -111 -54 -118
-52 -141 51 -22 95 -45 115 -238 211 l-146 73 -140 0 c-115 0 -154 -4 -219
-23 -107 -31 -212 -84 -274 -138 l-53 -46 -56 28 c-31 16 -60 36 -64 44 -4 8
-18 76 -32 150 -59 311 -161 524 -310 648 -70 58 -191 116 -307 148 -52 14
-100 27 -106 29 -6 2 -25 75 -43 164 l-32 161 27 47 c33 57 44 73 53 73 4 0
31 -25 61 -56z m-2885 -1690 l115 -58 -6 -46 c-10 -74 13 -159 51 -195 l32
-31 -41 -29 c-192 -137 -305 -228 -320 -259 l-16 -34 -55 30 c-143 77 -548
181 -965 248 l-135 21 -17 -21 -17 -21 -98 24 -97 25 354 4 c489 7 521 14 740
171 58 41 148 112 200 157 114 97 108 97 275 14z"/>
</g>
</svg>
