<?xml version="1.0" standalone="no"?>
<!DOCTYPE svg PUBLIC "-//W3C//DTD SVG 20010904//EN"
 "http://www.w3.org/TR/2001/REC-SVG-20010904/DTD/svg10.dtd">
<svg version="1.0" xmlns="http://www.w3.org/2000/svg"
 width="696.000000pt" height="1536.000000pt" viewBox="0 0 696.000000 1536.000000"
 preserveAspectRatio="xMidYMid meet">
<metadata>
Created by potrace 1.16, written by Peter Selinger 2001-2019
</metadata>
<g transform="translate(0.000000,1536.000000) scale(0.100000,-0.100000)"
fill="#000000" stroke="none">
<path d="M2000 15350 c0 -5 22 -38 50 -71 128 -160 323 -615 536 -1254 112
-336 157 -495 308 -1070 120 -455 159 -629 245 -1090 85 -459 104 -644 90
-884 -8 -125 -32 -302 -45 -322 -10 -16 -24 -9 -24 12 0 29 -18 59 -35 59 -19
0 -19 -40 0 -104 18 -59 19 -135 2 -157 -19 -25 -53 -39 -93 -39 l-38 0 27
-28 27 -28 -38 -37 c-54 -52 -76 -49 -51 7 9 19 9 29 0 40 -6 7 -16 49 -21 93
-15 131 -67 259 -95 231 -3 -3 4 -34 16 -69 20 -59 22 -84 23 -322 0 -141 -2
-257 -6 -257 -16 0 -41 66 -39 105 4 111 3 134 -8 168 -7 21 -27 53 -45 72
-66 69 -155 274 -280 641 -104 306 -170 467 -200 486 -30 19 -23 -20 25 -133
29 -68 89 -236 135 -374 106 -321 120 -360 207 -540 l72 -150 0 -135 c1 -157
15 -209 90 -330 44 -73 54 -100 36 -100 -23 0 -94 122 -121 205 -28 88 -55
124 -219 285 -210 207 -293 315 -471 615 -112 191 -182 295 -197 295 -16 0 -9
-15 86 -195 162 -307 334 -550 534 -758 112 -116 135 -156 176 -302 22 -77 43
-126 69 -163 20 -29 56 -80 80 -113 38 -54 55 -109 34 -109 -11 0 -68 77 -134
181 -60 93 -98 129 -135 129 -62 0 -328 112 -430 181 -43 29 -207 159 -407
322 -81 66 -154 112 -163 103 -9 -9 30 -49 117 -119 41 -34 121 -102 178 -152
243 -213 274 -234 472 -324 63 -28 139 -67 168 -87 63 -42 132 -131 183 -239
21 -45 54 -102 74 -128 44 -57 79 -133 71 -153 -13 -34 -104 44 -145 125 -11
21 -26 38 -34 38 -7 0 -43 20 -78 45 -78 56 -98 62 -324 94 -287 40 -328 52
-551 155 -309 143 -417 189 -446 189 -16 0 -28 -3 -28 -7 0 -5 78 -46 173 -93
446 -220 545 -258 759 -291 153 -23 199 -34 249 -59 48 -25 203 -179 227 -227
22 -41 49 -64 129 -107 59 -32 66 -44 49 -77 -16 -32 -40 -28 -113 16 -32 19
-66 35 -76 35 -23 0 -112 45 -157 79 l-35 26 -170 -3 c-93 -2 -213 -8 -265
-14 -175 -18 -294 -20 -500 -9 -388 21 -415 22 -430 12 -27 -18 -1 -24 142
-32 79 -4 184 -13 233 -20 59 -8 230 -13 495 -13 l405 -1 80 -56 c44 -31 141
-92 215 -137 163 -98 216 -141 207 -166 -6 -15 -15 -17 -55 -11 -54 7 -258 74
-340 112 -54 24 -68 26 -312 33 -283 9 -351 19 -561 81 -76 22 -150 39 -165
37 l-29 -3 33 -22 c19 -11 102 -43 185 -71 161 -53 204 -60 518 -82 81 -6 160
-15 178 -20 17 -5 71 -34 119 -64 48 -30 103 -61 122 -67 18 -7 49 -27 66 -45
38 -37 166 -104 200 -104 16 0 30 -10 43 -30 22 -37 56 -148 48 -156 -22 -22
-161 72 -297 201 -126 118 -103 110 -235 87 -102 -18 -286 -32 -431 -32 -155
-1 -199 6 -533 89 -295 74 -371 69 -126 -8 220 -68 384 -111 529 -136 76 -13
143 -28 148 -33 6 -6 31 -2 66 10 48 17 89 21 247 25 l190 4 60 -71 c61 -72
79 -102 90 -154 11 -51 62 -91 135 -105 76 -15 115 -34 130 -61 14 -25 11 -30
-40 -65 l-40 -28 -67 30 c-92 41 -198 64 -323 70 -102 5 -108 4 -225 -35 -156
-52 -520 -149 -610 -162 -38 -5 -155 -14 -259 -20 -191 -11 -398 -35 -424 -49
-34 -19 22 -20 290 -6 156 8 350 15 431 15 138 0 151 2 190 24 84 48 379 128
472 128 68 0 192 -18 243 -36 23 -9 57 -27 75 -40 58 -44 100 -56 199 -56 69
0 100 -4 116 -16 31 -21 27 -47 -10 -76 -68 -52 -70 -52 -224 -38 -165 15
-351 3 -476 -30 -272 -74 -552 -141 -640 -155 -61 -9 -234 -19 -428 -25 -179
-6 -334 -13 -345 -17 l-20 -6 20 -8 c28 -11 675 -10 815 0 82 7 158 21 265 50
250 69 351 85 515 85 125 0 160 -4 252 -27 91 -24 124 -27 217 -25 118 3 146
-6 125 -40 -21 -32 -69 -50 -164 -62 -150 -17 -239 -45 -403 -124 -576 -279
-618 -296 -914 -376 -496 -135 -543 -150 -543 -169 0 -18 40 -12 226 33 98 24
204 47 234 51 68 8 359 100 526 166 68 26 206 86 306 133 167 77 233 102 383
148 47 15 53 14 100 -4 97 -38 114 -41 195 -27 80 13 120 4 120 -26 0 -47
-311 -181 -479 -205 -56 -9 -81 -17 -81 -26 0 -25 -71 -60 -315 -159 -132 -53
-296 -121 -365 -150 -192 -81 -599 -186 -943 -245 -205 -34 -244 -55 -87 -47
187 11 575 89 885 178 211 60 286 87 533 194 109 47 229 92 267 100 39 9 84
21 100 27 99 35 149 48 222 57 45 6 97 18 115 27 46 24 124 22 177 -5 l44 -23
-69 -70 c-38 -38 -85 -80 -104 -93 -19 -12 -93 -77 -164 -144 -123 -115 -189
-161 -232 -161 -30 0 -35 -10 -19 -33 26 -37 29 -34 -351 -295 -105 -72 -240
-168 -300 -212 -162 -122 -565 -357 -971 -565 -94 -48 -184 -99 -200 -112
l-28 -24 32 5 c77 13 528 238 888 443 116 66 235 133 265 148 30 15 78 47 105
70 28 23 106 81 175 130 69 49 175 126 236 171 61 46 146 101 190 123 43 21
93 54 109 71 17 18 59 51 95 75 36 23 71 50 79 59 8 10 36 28 61 41 26 13 68
44 94 69 63 62 108 71 161 33 19 -14 18 -16 -23 -69 -23 -30 -42 -59 -42 -64
0 -5 -17 -34 -37 -64 -35 -51 -38 -60 -38 -130 -1 -68 -6 -88 -50 -190 -27
-63 -66 -141 -87 -174 -41 -63 -44 -72 -26 -78 18 -6 -28 -94 -62 -118 -15
-11 -40 -45 -55 -75 -43 -89 -390 -598 -487 -715 -129 -156 -409 -480 -519
-600 -190 -208 -339 -402 -339 -441 0 -33 27 -10 112 94 46 56 155 183 243
282 453 510 704 807 807 957 150 217 261 371 332 462 39 49 94 135 122 190
182 353 184 357 143 190 -21 -81 -21 -92 -9 -199 16 -142 9 -271 -25 -435 -14
-69 -32 -165 -40 -215 -9 -49 -27 -130 -42 -178 -22 -74 -24 -90 -13 -97 24
-15 0 -95 -129 -429 -67 -172 -144 -378 -172 -459 -80 -232 -473 -1054 -623
-1304 -78 -130 -115 -186 -563 -849 -554 -819 -865 -1241 -1441 -1952 -80 -98
-99 -127 -82 -127 33 0 277 285 540 630 58 75 139 182 181 236 174 227 563
781 958 1362 140 205 256 371 258 368 2 -2 -11 -42 -30 -87 -43 -105 -51 -129
-40 -129 13 0 59 80 191 335 164 316 261 480 497 835 637 958 633 952 844
1444 62 142 118 268 126 279 8 12 15 31 15 42 0 11 11 37 25 57 30 44 44 103
45 180 0 31 7 88 15 127 8 38 17 132 21 208 4 76 11 144 17 151 18 22 58 13
193 -48 73 -33 142 -60 151 -60 26 0 104 -55 208 -146 50 -43 114 -99 143
-123 29 -24 85 -89 124 -145 80 -114 126 -166 145 -166 33 0 36 -39 27 -334
-15 -484 -12 -577 25 -746 61 -287 172 -616 323 -960 116 -263 233 -539 242
-567 4 -13 12 -23 17 -23 31 0 -14 144 -132 424 -174 410 -313 797 -380 1056
-42 164 -46 275 -25 633 9 155 18 317 19 359 l2 78 178 -364 c323 -661 605
-1284 1172 -2591 288 -666 418 -957 574 -1286 212 -452 281 -583 281 -538 0
23 -75 198 -197 457 -230 491 -347 754 -665 1492 -399 927 -773 1772 -968
2185 -285 605 -340 727 -340 760 0 20 -76 102 -111 120 -15 8 -37 35 -49 61
-26 53 -155 232 -269 372 -128 158 -252 265 -406 348 -128 68 -145 96 -153
251 l-5 102 54 -5 c30 -3 96 -12 146 -20 51 -8 125 -14 164 -14 127 0 504
-110 590 -172 30 -22 44 -27 49 -18 12 19 23 8 92 -97 83 -125 156 -251 183
-318 16 -41 35 -64 82 -101 34 -27 100 -80 147 -117 191 -153 419 -276 709
-382 178 -65 257 -86 257 -68 0 16 -70 50 -245 118 -217 85 -347 152 -537 277
-252 165 -264 178 -403 438 -86 161 -202 344 -239 379 -15 14 -50 29 -91 37
-37 8 -103 30 -148 50 -176 77 -388 122 -631 133 -192 9 -185 6 -212 99 -11
37 -13 64 -7 89 l8 36 183 -2 c115 -2 195 2 216 9 27 9 83 7 255 -9 225 -21
317 -36 338 -53 9 -7 22 -7 42 2 38 15 59 8 244 -80 78 -37 160 -73 182 -80
22 -7 54 -23 70 -36 17 -12 58 -32 92 -43 78 -26 328 -76 453 -91 133 -15 715
-26 723 -13 9 14 -47 21 -318 38 -298 19 -425 32 -561 55 -147 26 -231 55
-361 127 -214 119 -359 192 -403 203 -25 6 -63 22 -85 35 -34 20 -54 23 -140
23 -58 0 -134 8 -180 18 -66 15 -136 18 -405 20 l-325 2 0 73 0 73 170 57
c146 50 180 58 245 58 41 1 108 8 148 18 62 14 81 15 136 4 47 -9 69 -10 84
-2 12 6 31 11 44 11 34 0 246 -74 318 -110 35 -18 86 -34 115 -37 61 -6 603
13 789 28 153 13 194 23 126 33 -40 6 -229 1 -692 -20 l-147 -7 -58 48 c-69
57 -83 63 -241 110 -165 50 -223 58 -387 56 -202 -3 -441 -39 -642 -97 -81
-23 -86 -24 -99 -7 -18 25 -36 101 -29 124 8 24 58 50 155 79 41 12 99 34 130
50 60 30 229 73 355 91 43 6 100 18 125 26 54 19 205 13 341 -13 81 -16 95
-16 202 0 63 9 197 34 298 56 101 21 234 46 294 54 138 20 155 24 155 36 0 25
-228 4 -489 -45 -189 -35 -286 -43 -420 -33 -149 10 -335 36 -366 50 -18 8
-42 6 -107 -11 -46 -11 -98 -21 -115 -21 -61 0 -245 -41 -379 -85 -187 -61
-184 -61 -200 0 -8 28 -14 56 -14 63 0 7 29 26 64 42 36 16 90 45 120 64 31
20 83 49 117 66 72 37 256 100 291 100 13 0 33 7 44 15 15 11 52 14 164 15
113 0 161 4 217 20 179 49 583 250 583 290 0 15 -93 -21 -279 -109 -96 -45
-208 -94 -250 -108 -72 -24 -84 -25 -231 -20 -85 3 -178 10 -205 17 -46 11
-55 10 -110 -13 -33 -13 -105 -39 -160 -57 -55 -18 -153 -57 -219 -87 -178
-81 -166 -79 -166 -38 0 47 21 65 121 105 46 18 134 57 194 86 61 29 162 73
225 99 156 63 398 187 615 315 99 59 250 144 335 190 162 86 180 97 180 111 0
28 -232 -75 -474 -210 -285 -160 -468 -241 -541 -241 -17 0 -53 -11 -81 -24
-133 -64 -597 -231 -618 -223 -18 7 -31 94 -17 111 6 8 48 35 94 61 106 62
448 290 547 365 131 100 692 632 679 644 -10 11 -93 -51 -209 -156 -218 -197
-286 -255 -393 -336 -86 -65 -116 -82 -142 -82 -25 0 -46 -10 -80 -40 -25 -22
-51 -40 -56 -40 -6 0 -67 -34 -136 -76 -69 -42 -168 -97 -220 -122 -103 -49
-114 -49 -143 1 -13 24 -13 28 10 53 14 15 68 61 120 102 183 146 261 215 349
313 84 94 96 112 220 357 152 300 224 425 282 490 48 55 94 130 85 139 -10 11
-58 -30 -116 -99 -77 -93 -167 -240 -288 -476 -88 -169 -111 -208 -141 -227
-20 -13 -85 -69 -146 -125 -119 -110 -286 -240 -359 -280 -35 -18 -48 -22 -57
-13 -21 21 8 66 70 111 64 47 337 320 418 419 29 35 78 118 116 195 36 73 115
234 175 358 60 124 130 261 155 304 43 74 49 96 27 96 -23 0 -124 -164 -225
-363 -185 -367 -195 -383 -357 -547 -79 -80 -181 -177 -228 -216 -90 -75 -186
-144 -201 -144 -15 0 -10 64 8 90 9 14 65 75 124 137 114 119 222 256 248 313
9 20 31 59 49 88 47 73 65 125 107 312 58 264 96 390 206 688 11 29 17 57 14
63 -32 50 -142 -257 -301 -840 -10 -35 -27 -64 -48 -85 -18 -17 -66 -80 -107
-141 -88 -131 -302 -356 -320 -338 -17 17 -3 60 27 86 14 12 33 36 41 52 9 17
39 55 67 85 52 57 167 215 199 273 62 115 97 227 132 423 41 237 77 403 107
498 38 122 123 244 742 1071 231 308 461 623 512 701 52 77 129 180 171 230
43 49 181 213 308 364 291 348 380 446 695 764 246 250 308 331 162 213 -172
-139 -532 -521 -945 -1003 -312 -365 -368 -434 -406 -505 -17 -30 -62 -98
-101 -150 -40 -51 -122 -161 -183 -244 -631 -848 -828 -1104 -867 -1125 -11
-6 -35 -34 -53 -63 -34 -52 -199 -218 -250 -252 -15 -10 -31 -15 -34 -11 -4 4
1 102 11 219 24 282 30 406 17 387 -16 -26 -50 -258 -66 -453 -9 -119 -20
-198 -30 -217 -16 -31 -82 -90 -101 -90 -16 0 -73 139 -144 350 -68 201 -76
253 -85 555 -7 248 -15 359 -26 348 -4 -4 -11 -57 -15 -117 -5 -69 -10 -102
-15 -89 -4 11 -31 137 -59 279 -103 520 -221 1004 -366 1514 -244 853 -508
1572 -668 1819 -73 113 -156 193 -156 151z m1350 -4514 c0 -16 15 -59 34 -95
40 -78 66 -161 66 -211 0 -46 -42 -106 -107 -155 -67 -49 -82 -44 -105 35 -22
78 -23 119 -4 202 8 35 22 124 31 198 8 74 18 155 22 180 l6 45 28 -85 c16
-47 28 -98 29 -114z m535 -188 c-45 -161 -94 -401 -95 -460 0 -49 -15 -87 -48
-121 -14 -15 -32 -40 -38 -55 -21 -46 -15 -6 7 50 25 63 27 174 9 396 -7 79
-10 145 -8 146 1 1 46 38 98 80 52 43 96 73 98 68 2 -6 -9 -52 -23 -104z
m-227 -158 c2 -19 9 -70 17 -114 23 -123 22 -127 -66 -291 -88 -165 -144 -236
-232 -302 -65 -47 -75 -50 -83 -28 -9 22 11 64 62 131 24 32 67 105 95 160 49
95 53 109 61 205 12 140 31 201 74 245 44 44 68 42 72 -6z m-468 -85 c0 -34
-13 -47 -23 -22 -5 13 9 57 18 57 3 0 5 -16 5 -35z m234 -108 c-17 -120 -63
-247 -89 -247 -8 0 -21 10 -29 22 -14 20 -14 24 5 44 15 16 20 31 16 51 -3 15
-8 44 -12 63 -6 33 -4 37 45 77 29 24 56 40 61 37 5 -3 6 -24 3 -47z m151
-529 c-32 -49 -208 -228 -224 -228 -6 0 -11 5 -11 11 0 13 251 271 258 264 3
-2 -8 -24 -23 -47z m-280 -3611 c0 -93 22 -147 65 -157 20 -5 28 -16 36 -50 6
-25 23 -67 38 -94 18 -34 26 -64 26 -99 0 -45 2 -49 21 -44 30 8 40 -30 42
-168 l1 -120 -98 -235 c-105 -249 -210 -493 -271 -624 -20 -44 -91 -165 -157
-270 -152 -239 -547 -836 -553 -836 -8 0 8 35 114 258 55 118 101 216 101 217
0 2 29 57 64 122 35 65 71 145 81 177 9 33 38 114 65 180 26 67 71 186 100
266 29 80 81 206 117 281 41 88 67 159 74 200 12 73 63 298 121 539 22 91 40
181 40 200 1 19 -9 66 -20 104 -39 124 -45 236 -14 236 4 0 7 -37 7 -83z m519
27 c21 -15 76 -44 121 -65 79 -36 104 -54 92 -66 -8 -7 -142 34 -191 59 -47
24 -86 61 -86 83 0 22 20 19 64 -11z"/>
</g>
</svg>
