<?xml version="1.0" standalone="no"?>
<!DOCTYPE svg PUBLIC "-//W3C//DTD SVG 20010904//EN"
 "http://www.w3.org/TR/2001/REC-SVG-20010904/DTD/svg10.dtd">
<svg version="1.0" xmlns="http://www.w3.org/2000/svg"
 width="1536.000000pt" height="1255.000000pt" viewBox="0 0 1536.000000 1255.000000"
 preserveAspectRatio="xMidYMid meet">
<metadata>
Created by potrace 1.16, written by Peter Selinger 2001-2019
</metadata>
<g transform="translate(0.000000,1255.000000) scale(0.100000,-0.100000)"
fill="#000000" stroke="none">
<path d="M2644 12536 c-8 -9 -32 -12 -75 -9 -97 6 -121 4 -147 -13 -17 -11
-54 -17 -126 -19 -112 -3 -153 -10 -178 -33 -11 -9 -50 -17 -106 -21 -50 -3
-96 -12 -105 -19 -9 -8 -21 -11 -27 -7 -5 3 -20 -6 -32 -20 -17 -19 -35 -27
-69 -30 -26 -3 -72 -16 -103 -30 -31 -14 -65 -25 -76 -25 -11 0 -24 -9 -30
-20 -9 -17 -72 -43 -110 -45 -8 0 -29 -8 -47 -18 -18 -9 -40 -17 -50 -17 -10
0 -27 -7 -37 -15 -11 -8 -27 -15 -37 -15 -9 0 -22 -6 -28 -14 -7 -8 -24 -17
-38 -21 -15 -3 -38 -15 -51 -26 -14 -10 -33 -19 -43 -19 -10 0 -28 -13 -41
-30 -12 -16 -27 -30 -34 -30 -6 0 -15 -7 -18 -16 -24 -64 16 -88 149 -91 55
-1 123 2 150 8 90 19 160 41 176 55 8 8 26 14 38 14 13 0 39 14 58 31 28 24
41 29 63 24 16 -3 31 -2 35 4 3 6 17 11 30 11 13 0 37 11 53 25 17 14 35 25
41 25 7 0 22 6 34 14 12 7 46 16 76 19 29 4 69 16 88 27 19 11 39 18 43 15 5
-3 26 3 47 13 29 15 52 18 94 15 42 -4 59 -1 71 11 9 9 28 16 43 16 14 0 39 7
54 15 22 11 37 12 66 4 44 -13 185 -5 216 11 18 10 30 7 71 -15 39 -21 55 -25
72 -18 35 16 177 3 205 -18 13 -11 38 -19 56 -19 17 0 35 -3 39 -7 4 -5 46 -8
93 -8 64 0 87 -4 96 -15 13 -17 148 -40 234 -40 40 0 55 -5 65 -19 16 -23 70
-46 129 -56 24 -4 49 -11 54 -15 6 -4 29 -11 53 -15 28 -5 48 -15 58 -30 8
-13 27 -25 42 -28 15 -3 45 -11 67 -17 22 -7 60 -14 85 -17 25 -3 50 -9 55
-13 6 -5 34 -12 64 -16 30 -4 55 -13 58 -21 12 -32 60 -43 220 -49 87 -3 162
-9 167 -14 33 -32 42 -300 12 -358 -9 -17 -19 -53 -22 -79 -3 -27 -9 -66 -14
-88 -6 -22 -11 -58 -13 -80 -2 -22 -8 -49 -14 -60 -14 -27 -33 -118 -33 -160
0 -19 -4 -37 -10 -40 -5 -3 -10 -19 -10 -35 0 -32 -7 -67 -40 -205 -12 -49
-24 -121 -27 -160 -2 -38 -7 -77 -10 -85 -4 -8 -7 -86 -9 -172 -1 -86 -5 -161
-8 -167 -4 -5 -2 -30 4 -54 5 -24 12 -104 14 -176 3 -72 8 -136 11 -141 7 -12
-15 -41 -103 -127 -40 -40 -79 -73 -87 -73 -23 0 -116 101 -154 166 -19 33
-48 82 -66 109 -18 28 -66 129 -107 225 -70 163 -83 195 -110 275 -6 17 -16
43 -24 58 -8 16 -14 37 -14 47 0 9 -7 23 -15 30 -8 7 -15 22 -15 35 0 12 -18
56 -40 98 -22 41 -40 86 -40 99 0 13 -10 39 -22 58 -11 19 -46 78 -76 130 -30
52 -79 129 -108 172 -30 42 -54 80 -54 85 0 12 -87 103 -98 103 -5 0 -14 11
-20 25 -7 14 -20 29 -29 32 -10 4 -30 16 -46 27 -21 15 -30 17 -39 8 -7 -7
-22 -12 -34 -12 -29 0 -72 -23 -90 -49 -9 -12 -22 -21 -30 -21 -15 0 -76 -39
-82 -52 -2 -4 -59 -64 -127 -133 -111 -115 -124 -131 -130 -172 -5 -35 -13
-48 -36 -61 -16 -10 -29 -21 -29 -27 0 -5 -15 -21 -33 -35 -57 -44 -157 -143
-157 -155 0 -11 -41 -37 -203 -130 -26 -15 -52 -36 -58 -46 -5 -10 -16 -19
-23 -19 -8 0 -19 -6 -25 -14 -7 -8 -20 -12 -30 -9 -10 3 -37 -5 -59 -16 -23
-12 -52 -21 -66 -21 -13 0 -37 -10 -53 -23 -25 -20 -97 -42 -213 -63 -19 -3
-53 -11 -75 -16 -22 -6 -106 -11 -187 -12 -103 -1 -151 -5 -159 -13 -7 -7 -25
-13 -39 -13 -14 0 -31 -5 -37 -11 -6 -6 -31 -13 -55 -14 -55 -4 -129 -24 -149
-41 -8 -8 -27 -14 -41 -14 -13 0 -28 -3 -31 -7 -4 -3 -21 -8 -39 -10 -18 -2
-37 -8 -42 -13 -6 -6 -19 -10 -31 -10 -12 0 -30 -7 -41 -15 -10 -8 -27 -15
-36 -15 -9 0 -21 -8 -27 -17 -6 -12 -20 -17 -40 -15 -17 1 -31 -2 -31 -8 0 -5
-9 -10 -19 -10 -10 0 -21 -7 -25 -15 -3 -8 -14 -15 -24 -15 -11 0 -31 -9 -45
-20 -14 -11 -28 -20 -32 -20 -3 0 -18 -12 -33 -26 -15 -14 -40 -32 -55 -40
-31 -17 -67 -50 -67 -62 0 -4 -11 -14 -24 -22 -40 -25 -106 -89 -106 -103 0
-8 -12 -24 -26 -38 -14 -13 -34 -40 -44 -59 -10 -19 -30 -46 -44 -59 -14 -14
-26 -31 -26 -39 0 -8 -9 -33 -19 -56 -10 -23 -25 -61 -32 -86 -7 -25 -16 -49
-19 -55 -15 -21 -31 -163 -22 -182 6 -10 15 -31 21 -47 10 -24 15 -27 39 -21
30 7 107 82 117 114 4 12 17 29 31 37 13 9 24 24 24 34 0 10 7 20 15 24 8 3
15 11 15 19 0 7 11 24 25 37 14 13 25 27 25 31 0 13 19 52 45 94 14 22 30 50
36 61 6 12 22 27 35 33 14 6 34 26 45 45 11 19 31 42 45 50 13 9 24 23 24 32
0 8 20 23 46 35 26 10 60 31 76 44 16 14 35 25 42 25 7 0 21 9 32 21 28 31 66
48 97 42 19 -4 37 2 60 19 37 28 119 55 192 64 28 4 69 17 92 30 23 13 50 24
60 24 11 0 25 6 31 13 8 7 43 12 90 13 67 1 127 12 182 32 8 3 59 6 112 7 71
1 103 6 122 18 14 10 45 17 69 17 32 0 49 6 63 21 16 18 27 20 65 16 32 -4 53
-1 65 8 11 8 27 15 36 15 10 0 33 14 51 30 19 17 43 30 54 30 11 0 32 13 47
29 16 17 44 32 64 36 44 8 119 53 127 76 3 9 20 23 38 29 18 7 48 28 67 45 19
18 46 36 60 40 26 8 110 86 110 102 0 6 9 18 20 28 11 10 20 24 20 32 0 7 12
23 26 36 14 12 35 39 46 61 17 34 23 38 49 32 20 -4 29 -2 29 8 0 7 11 23 25
36 14 13 25 29 25 37 0 7 4 13 9 13 5 0 15 16 22 35 7 19 17 35 21 35 4 0 8 7
8 15 0 17 18 52 38 73 6 7 12 21 12 31 0 10 13 32 29 50 26 29 32 31 53 21 37
-20 88 -72 88 -92 0 -10 6 -21 14 -24 8 -3 16 -18 20 -34 3 -16 19 -48 36 -71
16 -23 30 -48 30 -54 0 -7 6 -18 14 -25 8 -6 13 -17 10 -24 -3 -7 7 -29 21
-50 14 -20 25 -40 25 -45 0 -4 9 -16 20 -26 11 -10 20 -23 20 -30 0 -7 11 -32
25 -56 24 -42 32 -58 69 -139 9 -19 31 -63 50 -97 19 -34 32 -64 29 -67 -3 -3
9 -23 26 -44 17 -22 31 -47 31 -55 0 -8 7 -20 15 -27 8 -7 15 -17 15 -24 0
-13 52 -119 63 -127 10 -7 47 -81 47 -94 0 -5 20 -35 45 -65 25 -30 45 -62 45
-71 0 -9 7 -19 15 -22 8 -4 23 -23 34 -44 10 -21 33 -51 50 -67 17 -17 31 -36
31 -43 0 -7 9 -18 20 -25 11 -7 20 -17 20 -21 0 -5 11 -22 25 -39 14 -16 25
-36 25 -43 0 -8 9 -19 19 -25 29 -15 37 -49 15 -64 -9 -7 -15 -20 -12 -27 7
-17 -9 -39 -37 -55 -13 -8 -20 -22 -21 -44 0 -18 -9 -42 -20 -54 -28 -29 -84
-112 -84 -124 0 -6 -7 -12 -15 -16 -8 -3 -15 -16 -15 -30 0 -13 -7 -27 -16
-30 -29 -11 -13 -59 28 -81 32 -17 36 -23 31 -45 -3 -14 -12 -32 -19 -41 -8
-8 -14 -20 -14 -25 0 -13 -46 -54 -60 -54 -9 0 -11 -4 -14 -36 -1 -6 -7 -18
-14 -26 -10 -13 -10 -17 3 -21 20 -8 10 -34 -28 -74 -33 -35 -32 -52 2 -32 11
7 23 11 26 7 11 -10 -19 -138 -32 -138 -8 0 -13 -14 -13 -39 0 -22 -5 -43 -10
-46 -7 -4 -7 -13 0 -25 7 -14 7 -25 -2 -39 -10 -16 -10 -37 0 -103 8 -54 8
-86 2 -92 -14 -14 -12 -26 5 -26 9 0 15 -9 15 -22 0 -33 18 -91 34 -113 14
-19 15 -19 34 -2 11 10 26 41 32 68 13 55 24 66 45 49 23 -19 85 8 85 36 0 14
8 25 19 29 11 3 31 15 44 25 33 27 25 58 -21 77 -34 14 -34 15 -13 29 11 8 38
21 58 29 24 9 31 14 18 14 -43 2 -47 15 -16 56 27 36 32 39 72 36 70 -5 160
-27 222 -55 38 -17 75 -26 109 -26 28 0 48 -3 45 -6 -12 -12 14 -45 31 -40 20
7 36 -3 45 -26 5 -15 18 -17 102 -13 l95 4 22 -29 c16 -22 29 -30 52 -29 17 0
43 -2 58 -6 39 -10 169 21 208 50 26 19 46 25 84 25 65 0 259 32 267 44 4 5
12 5 18 2 6 -4 21 0 33 8 12 9 32 16 44 16 12 0 46 11 76 25 29 14 65 25 79
25 15 0 38 9 52 20 14 11 29 20 34 20 5 0 29 10 54 22 24 12 47 21 51 20 4 -1
12 7 18 18 6 11 21 20 33 20 13 0 49 25 87 59 35 32 69 57 75 55 13 -5 70 63
80 96 4 14 16 34 27 45 39 40 78 98 78 116 0 11 5 19 10 19 6 0 10 9 10 20 0
11 4 20 9 20 11 0 74 -32 81 -41 14 -18 89 -49 116 -49 18 0 38 -8 49 -20 10
-11 26 -20 35 -20 10 0 23 -7 30 -15 7 -8 22 -15 33 -15 18 0 158 -130 140
-130 -4 0 -3 -4 2 -8 18 -13 55 -71 55 -87 0 -8 4 -15 9 -15 5 0 17 -24 25
-54 11 -36 26 -61 46 -77 36 -29 37 -36 8 -44 -55 -17 -133 -143 -110 -179 8
-14 3 -59 -8 -66 -5 -3 -2 -36 6 -74 8 -37 14 -86 13 -109 -2 -78 10 -216 20
-235 5 -10 12 -47 15 -83 5 -66 16 -120 32 -154 5 -11 9 -36 9 -55 0 -32 -2
-35 -27 -32 -41 5 -52 -6 -34 -33 21 -32 9 -39 -78 -38 -128 1 -252 24 -342
63 -23 11 -51 16 -63 13 -12 -3 -21 -1 -21 6 0 6 -15 11 -34 11 -19 0 -38 5
-41 10 -3 6 -21 10 -39 10 -18 0 -55 7 -82 16 -27 8 -67 17 -89 19 -39 4 -103
13 -155 22 -14 2 -63 6 -108 9 -46 2 -87 6 -92 9 -4 2 -80 7 -169 11 -119 4
-166 2 -176 -6 -9 -8 -28 -10 -51 -5 -20 3 -59 1 -88 -6 -131 -30 -152 -38
-174 -69 -13 -16 -31 -30 -41 -30 -10 0 -41 -16 -67 -35 -27 -20 -67 -44 -90
-55 -22 -11 -49 -28 -59 -40 -10 -11 -24 -20 -32 -20 -7 0 -32 -17 -56 -39
-23 -21 -67 -54 -97 -74 -30 -19 -77 -58 -105 -86 -27 -28 -54 -51 -60 -51 -6
0 -24 -14 -41 -31 -16 -17 -46 -39 -66 -50 -20 -10 -47 -30 -60 -44 -13 -13
-52 -38 -87 -55 -35 -17 -84 -47 -109 -66 -25 -19 -51 -34 -58 -34 -7 0 -17
-6 -21 -12 -9 -15 -37 -34 -73 -49 -14 -6 -34 -19 -45 -29 -11 -10 -30 -21
-42 -25 -13 -3 -23 -11 -23 -16 0 -5 -6 -9 -14 -9 -8 0 -36 -18 -61 -40 -25
-22 -52 -40 -60 -40 -7 0 -23 -13 -35 -30 -12 -17 -27 -30 -33 -30 -7 0 -18
-9 -25 -20 -7 -11 -19 -20 -27 -20 -8 0 -41 -27 -73 -59 -32 -33 -71 -65 -86
-71 -15 -5 -30 -19 -33 -29 -3 -11 -12 -22 -21 -25 -48 -18 -88 -53 -93 -81
-4 -17 -15 -20 -88 -22 -46 -1 -89 -7 -94 -12 -6 -6 -23 -11 -37 -11 -14 0
-42 -9 -63 -20 -20 -11 -44 -20 -52 -20 -8 0 -41 -12 -72 -26 -32 -14 -76 -34
-98 -44 -22 -10 -55 -21 -72 -25 -18 -4 -35 -11 -38 -16 -4 -5 -16 -9 -28 -9
-12 0 -31 -7 -41 -15 -11 -8 -28 -15 -38 -15 -11 0 -38 -9 -60 -20 -23 -11
-51 -20 -62 -20 -11 0 -45 -6 -75 -14 -31 -8 -68 -17 -83 -20 -14 -3 -39 -19
-54 -35 -18 -19 -43 -32 -68 -37 -22 -3 -47 -10 -56 -15 -8 -5 -40 -15 -70
-23 -40 -9 -56 -19 -59 -32 -5 -27 -21 -44 -41 -44 -10 0 -43 -19 -74 -42 -42
-31 -55 -46 -50 -60 3 -12 0 -18 -9 -18 -25 0 -49 -47 -37 -70 8 -16 7 -26 -5
-42 -21 -31 -21 -151 1 -169 9 -7 20 -23 25 -36 7 -20 12 -21 34 -13 15 6 50
7 78 4 43 -5 56 -3 77 14 28 23 22 39 -8 23 -29 -15 -65 22 -60 60 3 19 -1 34
-13 45 -10 9 -15 23 -12 32 11 30 116 122 183 162 36 22 79 48 95 59 36 25 45
26 45 6 0 -20 9 -19 45 5 17 11 44 20 61 20 17 0 37 7 44 15 7 8 22 15 34 15
12 0 39 9 61 20 22 11 47 20 57 20 10 0 26 4 36 9 38 18 89 39 127 50 59 19
109 42 117 56 4 7 24 16 43 19 20 4 51 20 69 37 44 38 116 69 163 70 21 1 52
7 69 15 26 11 38 11 85 -1 70 -19 103 -19 120 1 10 12 25 15 64 11 34 -4 75 1
128 15 42 12 80 19 82 16 3 -3 -5 -35 -19 -72 -14 -36 -22 -66 -17 -66 15 0
38 35 56 83 22 57 65 97 106 97 19 0 41 10 62 29 17 17 42 33 56 36 14 4 31
15 39 26 7 10 19 19 27 19 8 0 20 8 27 19 7 10 28 26 46 35 17 9 32 21 32 26
0 5 17 18 38 29 20 11 43 29 50 40 7 12 19 21 27 21 8 0 15 5 15 10 0 6 6 10
13 10 6 0 38 25 70 55 33 30 65 55 72 55 8 0 17 9 20 20 3 11 13 20 21 20 8 0
14 5 14 10 0 6 7 10 15 10 9 0 20 10 26 23 6 12 31 36 57 52 26 16 121 104
212 196 184 186 230 237 241 266 8 23 138 157 168 172 28 16 69 -11 73 -47 l3
-27 95 3 c68 2 108 -1 139 -12 24 -9 57 -16 73 -16 17 0 67 -17 112 -39 46
-21 99 -41 118 -45 20 -4 41 -13 48 -21 7 -8 20 -15 30 -15 10 0 23 -7 30 -15
7 -8 28 -15 46 -15 19 0 34 -4 34 -9 0 -4 21 -14 48 -21 26 -7 56 -19 67 -27
11 -7 29 -13 42 -13 12 0 25 -4 28 -10 3 -6 23 -10 44 -10 21 0 53 -8 71 -17
24 -12 35 -13 38 -5 4 14 22 16 22 2 0 -5 -24 -22 -52 -36 -29 -15 -69 -39
-88 -54 -19 -15 -51 -35 -70 -45 -29 -14 -100 -69 -156 -120 -6 -5 -40 -35
-75 -65 -167 -144 -239 -236 -239 -307 0 -11 -10 -28 -22 -39 -11 -10 -40 -59
-64 -109 -60 -127 -177 -442 -169 -455 4 -6 0 -22 -9 -35 -9 -13 -16 -37 -16
-53 0 -15 -5 -33 -10 -38 -6 -6 -17 -39 -25 -75 -14 -64 -33 -124 -65 -209
-28 -74 -42 -114 -47 -140 -3 -14 -12 -34 -19 -45 -8 -11 -14 -29 -14 -40 0
-11 -7 -29 -15 -39 -8 -11 -15 -31 -15 -46 0 -14 -6 -34 -14 -45 -7 -11 -13
-27 -14 -35 0 -17 -15 -61 -47 -140 -13 -30 -30 -91 -39 -135 -9 -44 -26 -118
-38 -165 -12 -47 -22 -99 -22 -117 -1 -17 -4 -35 -8 -39 -12 -12 -9 -92 4
-113 10 -16 7 -25 -16 -55 -37 -49 -56 -106 -66 -201 -5 -44 -14 -112 -19
-152 -6 -40 -13 -157 -16 -260 -4 -113 -12 -210 -20 -244 -19 -71 -19 -109 -1
-135 12 -17 12 -27 0 -74 -8 -30 -14 -91 -14 -136 0 -70 3 -82 18 -86 14 -4
20 -24 31 -97 11 -82 15 -93 37 -101 17 -7 27 -24 39 -64 12 -40 22 -57 38
-62 28 -9 96 -64 157 -127 41 -43 52 -49 93 -51 38 -2 48 1 53 16 3 10 14 23
25 28 11 6 19 21 19 35 0 14 5 25 10 25 6 0 10 15 10 34 0 19 -4 38 -10 41 -5
3 -10 -3 -10 -14 0 -25 -16 -36 -23 -17 -3 8 -21 16 -39 18 -27 2 -35 8 -43
36 -12 42 -25 41 -25 -1 0 -19 -3 -36 -6 -39 -13 -14 -42 7 -73 55 -19 29 -43
62 -54 73 -10 12 -24 45 -32 73 -7 29 -21 63 -29 77 -13 18 -17 55 -19 162 -2
119 0 141 16 166 11 16 17 39 14 52 -2 14 0 27 4 30 5 3 9 34 9 70 0 50 3 64
15 64 17 0 20 32 5 60 -7 12 -6 21 3 28 8 7 11 39 10 99 -3 130 -11 188 -31
235 -9 22 -9 90 1 163 8 53 84 155 116 155 12 0 31 57 31 93 0 17 7 38 16 48
15 17 19 17 45 3 30 -15 38 -37 18 -50 -6 -3 -9 -19 -5 -35 3 -15 1 -31 -4
-34 -6 -3 -10 -17 -10 -31 0 -14 -11 -45 -25 -68 -30 -52 -49 -202 -24 -194 7
2 17 24 21 47 7 39 23 73 106 222 35 62 72 200 72 271 0 50 12 67 35 48 12
-10 15 -9 15 4 0 10 -5 27 -11 38 -8 14 -8 23 0 27 5 4 12 29 14 56 2 28 7 57
11 66 4 9 8 32 9 52 2 20 8 42 15 49 7 7 12 36 12 64 0 29 5 56 11 59 6 4 9
19 7 35 -1 15 3 34 10 43 7 8 14 30 16 49 2 18 6 40 9 48 3 8 13 56 22 105 9
50 20 110 25 135 4 25 11 63 15 85 3 22 13 57 22 77 9 20 13 47 10 59 -3 11
-1 33 4 48 17 44 40 258 44 406 5 177 11 225 31 225 9 0 29 14 46 30 35 35 48
38 55 10 10 -37 58 -26 116 28 29 27 77 61 107 77 30 15 62 31 70 36 8 5 20
11 25 13 6 1 25 8 43 14 62 23 88 31 257 81 177 53 232 66 252 63 6 -2 14 2
18 8 3 5 14 10 24 10 9 0 36 9 59 20 22 11 48 20 56 20 19 0 110 42 114 53 2
4 14 7 27 7 27 0 91 25 100 40 3 5 12 10 19 10 11 0 80 39 160 90 42 27 100
74 151 122 28 26 62 56 76 67 14 11 46 48 70 82 24 34 54 72 67 84 12 12 22
27 22 32 0 5 18 15 40 22 27 8 45 21 55 41 8 15 25 37 38 47 46 36 61 81 62
178 1 93 29 297 45 327 5 9 7 32 3 51 -3 21 -1 37 6 41 8 5 9 32 5 85 -5 54
-3 80 5 85 6 4 9 11 7 15 -3 4 -7 49 -10 99 -5 97 -10 117 -28 106 -7 -5 -9
-1 -5 9 3 9 2 19 -2 21 -5 3 -11 28 -15 55 -3 27 -13 54 -21 61 -19 15 -20 34
-2 27 7 -3 18 3 25 13 6 10 22 18 36 18 29 0 87 36 131 82 35 37 45 38 45 5 0
-27 10 -31 42 -14 18 10 20 9 15 -5 -4 -9 -2 -16 3 -16 6 0 10 6 10 13 0 6 5
4 11 -5 13 -24 22 -23 58 8 33 28 56 24 47 -9 -3 -11 3 -36 14 -56 18 -36 96
-122 103 -114 5 4 77 -104 77 -115 0 -5 9 -17 20 -27 11 -10 20 -24 20 -31 0
-7 6 -17 13 -21 7 -4 21 -25 32 -45 11 -21 22 -38 26 -38 11 0 22 -91 20 -163
-3 -93 21 -168 68 -220 38 -42 61 -113 61 -187 0 -15 6 -33 14 -40 8 -6 13
-17 10 -25 -3 -7 -1 -16 5 -20 6 -3 11 -17 11 -31 0 -13 4 -24 10 -24 5 0 12
-16 16 -35 9 -51 40 -86 68 -79 18 4 25 1 30 -18 12 -46 7 -87 -14 -101 -17
-12 -21 -28 -24 -93 -3 -44 -5 -80 -6 -81 -2 -2 -3 -6 -4 -10 -1 -5 -32 -37
-69 -72 -37 -35 -67 -72 -67 -82 0 -9 -13 -29 -30 -42 -16 -14 -30 -31 -30
-37 0 -7 -12 -26 -26 -44 -22 -26 -122 -175 -160 -238 -6 -10 -17 -26 -26 -35
-8 -10 -22 -35 -32 -55 -9 -20 -21 -40 -26 -43 -5 -3 -26 -36 -47 -73 -20 -37
-43 -73 -50 -80 -7 -7 -13 -18 -13 -23 0 -5 -20 -40 -45 -77 -25 -37 -45 -73
-45 -81 0 -8 -8 -24 -19 -35 -16 -18 -38 -56 -91 -156 -7 -14 -17 -32 -22 -40
-4 -8 -17 -35 -28 -59 -11 -23 -29 -54 -40 -68 -11 -14 -20 -32 -20 -40 0 -8
-9 -26 -20 -40 -11 -14 -20 -33 -20 -43 0 -9 -9 -25 -20 -35 -11 -10 -20 -22
-20 -26 0 -4 -23 -38 -50 -74 -60 -80 -76 -109 -85 -158 -6 -30 -4 -37 9 -37
13 0 15 -6 10 -28 -4 -15 -13 -34 -20 -43 -8 -8 -14 -19 -14 -24 0 -10 -110
-110 -157 -142 -77 -52 -313 -265 -362 -326 -28 -36 -58 -67 -66 -71 -8 -3
-15 -10 -15 -16 0 -19 -91 -118 -114 -124 -12 -3 -34 -19 -50 -35 -33 -34 -46
-109 -28 -161 10 -28 8 -34 -33 -84 -24 -30 -53 -74 -64 -98 -11 -25 -27 -50
-35 -57 -8 -7 -18 -25 -21 -41 -3 -16 -13 -34 -21 -41 -9 -7 -26 -34 -39 -59
-13 -25 -31 -52 -39 -59 -9 -8 -16 -22 -16 -32 0 -11 -11 -29 -25 -41 -14 -12
-25 -28 -25 -36 0 -8 -16 -32 -35 -53 -19 -22 -35 -47 -35 -57 0 -21 -52 -113
-74 -131 -9 -7 -16 -21 -16 -30 0 -9 -23 -42 -50 -74 -49 -57 -61 -89 -40
-102 7 -4 2 -15 -12 -29 -13 -12 -45 -49 -73 -81 -27 -32 -76 -86 -108 -119
-43 -46 -57 -66 -53 -82 4 -14 -4 -29 -24 -49 -17 -16 -30 -34 -30 -41 0 -7
-23 -32 -50 -56 -61 -51 -94 -101 -87 -129 4 -13 -5 -31 -24 -53 -16 -19 -29
-37 -29 -41 0 -4 -9 -14 -20 -23 -26 -23 -37 -70 -17 -78 13 -4 10 -13 -14
-50 -17 -24 -46 -75 -65 -113 -36 -73 -62 -95 -71 -61 -7 26 -23 15 -23 -16 0
-15 17 -42 49 -74 46 -47 52 -50 104 -52 57 -2 87 11 87 40 0 13 -3 12 -20 -3
-19 -18 -20 -17 -20 4 0 12 16 69 35 127 19 57 35 110 35 118 0 8 8 16 18 18
17 5 48 88 54 148 2 15 12 29 26 35 12 5 27 25 33 45 7 19 29 61 51 94 21 32
46 75 54 95 14 31 17 34 27 20 9 -15 13 -14 33 10 12 15 26 39 29 54 4 15 11
29 15 32 5 3 18 26 31 53 12 26 32 56 43 68 12 11 30 36 41 54 47 81 51 85 84
88 39 4 65 41 81 115 10 46 26 86 39 97 8 7 38 62 77 142 18 36 38 69 43 73 6
3 21 27 32 53 12 26 29 56 40 67 10 11 25 38 34 60 10 22 25 49 35 60 11 11
29 42 41 70 12 27 38 70 58 96 20 27 45 62 56 80 11 17 43 43 70 58 28 14 75
51 106 81 78 77 151 140 161 140 5 0 16 6 23 12 8 7 33 29 56 48 23 19 68 61
100 93 32 31 65 57 74 57 8 0 15 5 15 11 0 6 30 40 66 77 112 112 131 141 199
297 23 53 73 105 102 105 22 0 63 35 63 53 0 26 137 232 225 339 51 62 92 122
99 146 4 12 12 22 17 22 6 0 28 37 50 83 21 45 43 89 48 97 5 8 24 44 41 80
18 36 40 73 48 82 15 18 50 79 76 136 9 18 24 46 35 61 11 15 28 50 39 78 11
28 24 57 31 64 28 34 71 106 71 121 0 9 6 23 13 30 6 7 28 49 49 93 115 253
131 293 133 333 2 31 10 51 29 71 17 17 26 38 26 58 0 18 5 35 10 38 6 4 9 14
6 23 -2 10 -7 38 -11 63 l-6 47 36 6 c43 8 65 -6 65 -40 0 -21 20 -93 38 -134
3 -8 6 -20 7 -26 0 -6 5 -18 12 -25 6 -8 12 -18 12 -24 3 -27 35 -107 67 -167
8 -14 14 -33 14 -40 0 -8 11 -37 25 -64 14 -27 25 -56 25 -65 0 -9 9 -28 20
-42 11 -14 20 -31 20 -39 0 -8 20 -47 44 -88 25 -40 50 -94 57 -119 7 -25 27
-66 44 -91 37 -52 77 -128 94 -182 7 -20 18 -42 26 -48 8 -6 24 -42 36 -78 12
-37 32 -88 45 -114 13 -26 24 -55 24 -64 0 -10 6 -25 14 -33 8 -9 19 -43 25
-76 18 -116 68 -212 91 -176 4 7 19 4 40 -8 31 -16 35 -24 38 -62 3 -41 -2
-76 -44 -274 -8 -38 -14 -86 -14 -105 -1 -19 -7 -64 -15 -100 -8 -36 -14 -82
-15 -102 0 -20 -4 -39 -9 -43 -6 -3 -10 -13 -9 -23 0 -25 -21 -172 -26 -181
-3 -4 -7 -45 -10 -91 -10 -140 -15 -184 -25 -251 -6 -35 -11 -107 -11 -160 0
-80 -3 -98 -16 -103 -14 -5 -14 -9 -3 -23 18 -21 15 -209 -3 -231 -11 -13 -11
-14 0 -8 35 21 21 -79 -24 -167 -13 -27 -24 -56 -24 -64 0 -9 -6 -21 -14 -27
-7 -6 -28 -40 -47 -76 -18 -36 -43 -78 -56 -93 -13 -16 -23 -35 -23 -43 0 -18
-69 -114 -82 -114 -5 0 -7 -8 -3 -19 3 -10 -1 -24 -10 -31 -8 -7 -15 -19 -15
-28 0 -8 -9 -24 -20 -36 -54 -57 -70 -78 -70 -92 0 -8 -7 -17 -15 -20 -8 -4
-15 -12 -15 -19 0 -6 -9 -20 -20 -30 -11 -10 -20 -26 -20 -36 0 -10 -14 -28
-32 -40 -17 -13 -26 -25 -20 -27 7 -2 12 -9 12 -16 0 -21 -148 -164 -185 -179
-16 -7 -17 -10 -5 -18 12 -7 7 -16 -27 -47 -72 -64 -100 -82 -118 -76 -14 6
-16 3 -10 -15 5 -15 2 -23 -12 -27 -10 -3 -27 -10 -38 -14 -11 -5 -31 -11 -45
-14 -14 -3 -36 -19 -49 -36 -26 -36 -20 -50 35 -76 40 -19 73 -13 108 19 49
44 82 64 117 71 28 5 50 22 97 75 42 46 71 70 91 74 23 5 42 23 81 79 28 40
65 97 81 125 21 36 37 53 50 53 11 0 22 8 26 17 3 10 14 27 23 38 10 11 25 43
34 72 10 28 24 57 32 64 9 7 29 39 45 70 16 32 34 61 40 64 6 4 19 26 30 49
26 55 66 126 83 145 7 9 37 63 67 120 52 103 155 252 186 269 10 6 15 27 17
73 0 35 5 70 9 77 9 13 10 25 21 159 4 40 11 95 16 123 5 27 7 57 3 66 -3 9
-1 19 5 23 9 5 40 326 47 481 1 30 6 71 9 90 26 133 28 519 3 655 -10 55 -22
114 -28 131 -7 22 -6 46 3 78 11 41 10 51 -10 98 -12 30 -22 67 -22 83 0 17
-9 44 -19 62 -11 17 -16 33 -11 35 9 3 -6 59 -23 85 -4 7 -11 35 -14 63 -3 28
-10 53 -14 56 -5 3 -6 16 -3 28 3 14 -1 29 -10 39 -9 8 -16 22 -16 30 0 8 -6
20 -14 26 -8 6 -17 33 -21 58 -4 26 -18 63 -31 82 -13 20 -24 46 -24 59 0 13
-9 35 -20 49 -11 14 -20 34 -20 44 0 11 -11 40 -25 66 -13 27 -35 73 -48 103
-14 31 -32 62 -41 69 -9 7 -16 22 -16 32 0 10 -4 21 -10 24 -5 3 -10 16 -11
28 0 12 -9 36 -20 52 -10 17 -21 37 -25 45 -3 8 -10 23 -15 32 -5 10 -9 23 -9
29 0 7 -13 33 -29 58 -15 26 -32 58 -36 71 -4 13 -18 35 -31 49 -28 30 -29 40
-10 66 14 19 15 19 70 -9 31 -16 62 -26 70 -23 7 3 17 2 22 -3 5 -5 38 -11 73
-14 35 -4 70 -11 78 -17 7 -6 19 -9 27 -6 7 3 18 1 23 -4 6 -6 37 -12 69 -15
112 -10 108 -9 115 -40 3 -16 18 -51 33 -78 14 -27 26 -55 26 -62 0 -8 5 -14
10 -14 6 0 14 -8 17 -17 8 -21 64 -96 76 -101 4 -2 7 -8 7 -13 0 -5 8 -17 18
-27 9 -10 33 -37 52 -61 19 -24 40 -47 45 -52 72 -60 95 -83 96 -93 0 -6 27
-30 61 -54 33 -24 63 -52 65 -63 3 -10 10 -19 17 -19 6 0 17 -9 23 -20 18 -27
121 -102 133 -95 5 3 16 -8 25 -25 8 -16 22 -30 31 -30 8 0 13 -4 9 -9 -9 -16
64 -83 84 -76 21 6 57 -29 66 -66 4 -16 46 -64 102 -115 52 -49 141 -134 198
-189 57 -55 110 -105 117 -111 7 -6 31 -31 54 -55 22 -24 72 -71 109 -104 38
-33 78 -71 89 -83 12 -13 37 -41 56 -62 55 -59 76 -92 90 -135 14 -46 66 -105
91 -105 10 0 22 8 27 17 8 14 14 15 40 4 16 -7 42 -26 58 -42 l28 -29 -5 -123
c-7 -206 5 -1139 15 -1156 3 -4 8 -57 11 -117 12 -211 23 -308 53 -459 8 -44
16 -101 16 -126 1 -25 6 -52 13 -60 6 -8 12 -28 12 -44 0 -35 19 -89 46 -129
18 -28 18 -30 1 -90 -9 -33 -30 -108 -45 -166 -16 -58 -40 -142 -55 -188 -14
-46 -26 -90 -26 -98 0 -33 17 -9 54 73 36 81 47 111 77 208 13 44 45 95 60 95
13 0 11 -37 -2 -45 -6 -4 -7 -19 -4 -35 3 -16 2 -31 -4 -35 -6 -3 -11 -17 -11
-30 0 -13 -4 -27 -10 -30 -5 -3 -10 -14 -10 -24 0 -10 -10 -33 -23 -52 -13
-19 -33 -68 -46 -109 -12 -41 -29 -90 -37 -108 -8 -18 -14 -44 -14 -57 0 -14
-4 -25 -10 -25 -5 0 -10 -13 -10 -28 0 -16 -9 -47 -20 -70 -11 -22 -20 -47
-20 -54 0 -7 -18 -51 -40 -98 -22 -47 -40 -97 -40 -112 0 -15 -11 -48 -25 -74
-14 -26 -25 -56 -25 -68 0 -28 -24 -94 -38 -108 -7 -7 -12 -20 -12 -30 0 -10
-7 -21 -15 -24 -8 -4 -15 -10 -15 -16 0 -5 5 -6 10 -3 19 12 10 -24 -36 -137
-25 -62 -57 -144 -70 -182 -13 -38 -29 -75 -35 -82 -6 -7 -9 -19 -6 -26 6 -17
-15 -58 -42 -82 -12 -11 -21 -25 -21 -31 0 -7 -7 -18 -15 -25 -8 -7 -15 -21
-15 -31 0 -9 -13 -27 -30 -39 -16 -12 -30 -27 -30 -35 0 -11 -23 -38 -128
-150 -34 -35 -86 -75 -99 -75 -7 0 -21 -7 -30 -15 -47 -41 -106 -85 -115 -85
-6 0 -19 -11 -30 -25 -15 -20 -28 -25 -64 -25 -24 0 -44 -4 -44 -9 0 -4 -28
-11 -62 -15 -34 -3 -67 -11 -72 -16 -6 -6 -16 -10 -23 -10 -7 0 -22 -9 -32
-19 -23 -23 -165 -41 -184 -22 -20 20 -65 13 -83 -14 -13 -20 -19 -23 -30 -14
-8 6 -14 22 -14 34 0 25 -15 41 -45 46 -11 2 -28 21 -38 42 -21 42 -42 40 -33
-4 3 -17 1 -29 -5 -29 -5 0 -12 14 -15 30 -7 30 -24 42 -24 16 0 -28 20 -66
34 -66 7 0 16 -13 19 -29 4 -17 29 -52 58 -81 l52 -52 71 6 c39 4 98 13 131
21 33 8 75 14 93 15 18 0 42 5 52 10 13 7 21 7 25 0 11 -18 81 -11 108 10 14
11 31 20 39 20 7 0 33 11 57 25 23 14 54 25 66 25 13 0 26 4 29 9 3 5 22 12
42 15 49 10 199 119 237 172 17 24 39 44 48 44 22 0 119 76 119 94 0 7 12 31
27 52 46 67 153 271 153 293 0 6 14 24 30 39 31 27 44 63 75 201 7 35 19 69
24 74 6 6 11 22 11 34 0 13 6 36 14 51 7 15 17 45 20 67 4 22 14 50 21 62 8
11 20 43 26 70 7 26 23 69 35 95 13 26 24 58 24 72 0 14 5 28 10 31 6 3 10 17
10 29 0 13 7 29 15 36 8 7 15 24 15 39 0 29 36 141 51 156 5 5 9 17 9 26 0 9
11 41 25 71 14 29 25 64 25 76 0 13 9 35 20 49 11 14 20 39 20 54 0 16 9 46
20 66 11 21 20 47 20 58 0 11 10 36 22 55 11 19 23 47 24 63 4 34 25 75 54
105 19 20 21 31 17 85 -6 92 -47 397 -57 432 -5 17 -12 75 -15 130 -4 55 -12
109 -19 120 -6 11 -12 43 -13 70 -4 105 -13 187 -21 199 -9 10 -22 148 -24
236 0 19 -5 71 -10 115 -6 44 -12 96 -13 115 -2 19 -5 55 -8 80 -3 25 -8 92
-12 150 -3 58 -11 115 -18 128 -8 17 -8 31 2 57 10 29 10 38 -3 57 -9 12 -16
37 -16 55 0 17 -5 35 -11 38 -6 4 -8 13 -5 21 6 16 -11 108 -26 141 -6 12 -8
31 -5 42 3 12 1 21 -4 21 -5 0 -9 16 -9 36 0 37 -67 195 -89 208 -6 4 -11 25
-11 46 0 49 -44 142 -97 207 -22 26 -52 69 -67 94 -14 25 -35 54 -46 64 -11
10 -20 24 -20 31 0 7 -6 19 -12 26 -7 7 -37 47 -67 88 -29 41 -69 88 -87 103
-19 16 -34 36 -34 46 0 10 -11 24 -25 31 -14 7 -25 18 -25 23 0 5 -10 20 -22
32 -56 54 -117 123 -143 163 -15 23 -34 42 -42 42 -7 0 -17 8 -20 17 -7 17
-30 43 -173 189 -33 34 -60 66 -60 73 0 6 -6 11 -12 11 -22 1 -113 129 -101
141 8 8 17 8 32 0 11 -6 33 -11 48 -10 15 1 73 -7 128 -16 55 -9 118 -18 140
-20 22 -1 82 -7 133 -14 51 -6 98 -8 104 -5 6 4 13 2 17 -4 3 -5 42 -13 86
-15 44 -3 93 -11 109 -17 16 -6 52 -10 80 -9 28 1 69 -3 91 -8 22 -6 67 -11
100 -12 33 -1 127 -13 210 -27 82 -14 204 -32 270 -39 66 -8 136 -19 155 -24
19 -6 54 -11 77 -11 23 0 59 -7 80 -16 21 -9 49 -21 63 -27 14 -5 41 -18 61
-28 20 -11 39 -19 43 -19 3 0 20 13 39 30 19 16 53 34 78 39 54 12 92 -8 129
-68 13 -22 50 -63 82 -91 32 -28 58 -56 58 -62 0 -5 40 -51 89 -101 49 -51
113 -121 142 -157 58 -70 120 -134 212 -218 31 -29 57 -56 57 -60 0 -10 97
-92 109 -92 5 0 12 -9 16 -19 5 -18 28 -42 124 -130 19 -17 38 -31 43 -31 5 0
30 -22 56 -50 26 -27 51 -50 54 -50 4 0 18 -10 31 -22 44 -41 79 -68 87 -68 5
0 15 -8 22 -19 7 -10 65 -50 129 -90 l117 -71 -5 -83 c-9 -136 26 -447 50
-447 6 0 7 28 4 68 -15 158 -19 368 -8 395 13 33 40 35 68 5 31 -34 43 -63 43
-100 0 -18 9 -66 20 -106 11 -39 20 -83 20 -97 0 -14 7 -51 15 -83 51 -201 75
-317 70 -333 -4 -10 -2 -19 3 -19 10 0 26 -91 23 -129 -2 -14 1 -21 8 -17 7 5
11 -12 11 -51 0 -31 6 -75 14 -98 22 -61 66 -276 66 -321 0 -23 3 -44 7 -48 4
-4 8 -32 9 -62 1 -30 6 -60 12 -67 5 -6 12 -59 15 -116 4 -62 12 -112 20 -125
9 -13 11 -29 7 -41 -5 -12 -2 -29 7 -44 12 -19 13 -37 5 -100 -5 -42 -10 -89
-10 -106 -1 -61 -15 -166 -23 -171 -5 -3 -9 -35 -9 -72 0 -46 -5 -75 -16 -91
-11 -15 -13 -26 -6 -33 12 -12 3 -47 -30 -113 -14 -28 -29 -66 -33 -85 -4 -19
-17 -54 -28 -76 -13 -27 -17 -48 -12 -60 11 -27 6 -63 -16 -106 -10 -20 -19
-44 -19 -51 0 -8 -6 -20 -14 -26 -22 -19 -26 -71 -5 -92 9 -9 15 -20 12 -23
-3 -3 -7 -20 -9 -38 -5 -62 -35 -182 -50 -206 -24 -37 -58 -48 -88 -29 -13 9
-27 26 -31 37 -10 31 -25 24 -25 -12 0 -25 10 -41 52 -79 70 -64 115 -84 165
-72 37 8 38 10 44 60 4 28 10 56 13 62 4 6 10 68 13 138 4 98 9 132 22 147 12
14 17 45 20 137 2 80 7 119 15 119 21 1 43 44 61 120 10 41 21 83 26 92 5 10
9 30 9 46 0 15 4 32 8 37 12 14 32 87 32 116 0 12 10 33 23 47 19 21 22 35 23
115 1 51 2 142 3 202 1 61 0 146 -3 190 -3 58 0 92 11 122 15 40 14 46 -10
125 -38 126 -81 319 -98 448 -7 59 -41 227 -64 327 -8 34 -15 78 -15 98 0 19
-9 67 -20 106 -11 40 -17 76 -14 81 3 4 -1 27 -10 51 -8 23 -18 69 -21 102 -3
33 -17 105 -29 160 -31 128 -48 243 -50 326 -2 83 -16 106 -106 164 -39 25
-70 52 -70 59 0 7 -29 29 -64 50 -35 21 -74 49 -87 63 -13 14 -41 34 -61 44
-21 10 -55 36 -76 57 -57 54 -114 98 -139 106 -12 4 -25 15 -28 25 -3 10 -17
23 -32 30 -26 12 -38 22 -120 101 -24 23 -43 38 -43 35 0 -3 -10 5 -23 20 -12
14 -45 45 -74 68 -124 101 -233 197 -298 263 -38 39 -80 77 -93 84 -13 6 -28
24 -34 40 -6 19 -35 46 -83 79 -40 28 -77 51 -82 51 -5 0 -19 11 -31 25 -12
14 -28 25 -34 25 -7 0 -33 18 -58 40 -25 22 -67 47 -95 56 -72 24 -103 41
-109 62 -8 23 -77 63 -125 73 -49 9 -185 57 -247 85 -28 13 -62 24 -76 24 -14
0 -55 11 -90 24 -62 24 -363 91 -518 116 -41 7 -118 20 -170 30 -52 10 -171
32 -265 50 -93 17 -258 53 -365 80 -228 57 -357 83 -420 86 -25 1 -76 5 -115
9 -38 4 -118 8 -177 9 -76 1 -109 5 -113 14 -2 6 -16 12 -30 12 -14 0 -43 9
-65 20 -22 11 -48 20 -60 20 -14 0 -20 7 -20 24 0 19 -12 31 -53 54 -29 16
-69 48 -90 71 -33 36 -37 47 -37 94 0 29 5 58 11 64 14 14 -34 106 -70 134
-20 16 -51 61 -51 75 0 4 25 -16 89 -72 52 -45 124 -84 154 -84 15 0 27 -4 27
-9 0 -8 93 -23 160 -25 19 -1 40 -4 45 -7 8 -4 90 -3 90 1 0 3 59 10 101 13
47 2 69 17 78 52 8 32 30 24 75 -27 18 -21 52 -48 75 -60 22 -11 60 -34 84
-50 23 -16 46 -27 51 -24 5 3 12 -1 15 -10 4 -9 13 -13 24 -10 10 4 27 -1 38
-9 10 -8 30 -15 45 -15 14 0 30 -5 37 -12 8 -8 15 -8 27 2 14 11 21 11 46 -4
21 -12 49 -17 97 -16 37 0 84 -3 106 -6 27 -5 37 -3 32 5 -4 6 4 16 19 23 21
9 28 9 35 -1 4 -8 13 -10 20 -6 7 4 15 2 19 -4 6 -9 19 -9 52 -2 24 6 79 11
121 11 52 0 78 4 81 13 3 9 10 9 30 -2 24 -13 29 -12 47 4 14 13 29 16 55 12
27 -4 35 -2 35 10 0 9 6 13 15 10 8 -4 17 -2 20 2 3 5 13 7 24 4 10 -2 35 0
55 5 21 6 38 7 42 1 9 -14 44 -10 50 6 4 8 19 15 35 15 37 0 79 20 79 37 0 17
8 16 60 -2 53 -19 60 -19 60 -1 0 11 14 14 63 11 38 -1 72 3 90 12 15 7 27 9
27 4 0 -13 93 -9 102 3 4 6 29 9 57 9 28 0 54 3 57 8 3 5 22 9 42 9 20 1 48 7
62 15 14 8 37 14 52 15 15 0 29 4 32 9 3 4 27 11 53 14 26 3 49 10 51 16 2 6
10 11 17 11 8 0 22 14 32 30 10 17 23 28 30 26 7 -3 27 0 44 6 25 8 33 8 40
-3 6 -10 9 -8 9 9 0 14 6 22 18 22 9 1 42 16 72 35 30 20 63 38 73 41 9 4 17
10 17 15 0 5 7 9 15 9 8 0 15 7 15 15 0 8 10 21 23 30 14 8 28 33 35 61 12 44
11 50 -16 108 -28 60 -71 112 -119 143 -12 8 -23 22 -23 29 0 8 -4 14 -10 14
-17 0 -11 18 8 23 9 3 -2 5 -25 6 -23 0 -58 9 -78 18 -30 14 -35 22 -37 55 -1
21 -2 52 -3 68 -1 17 -9 38 -18 48 -10 10 -17 28 -17 40 0 15 -10 26 -32 36
-20 9 -26 15 -15 15 21 1 23 21 2 21 -8 0 -12 6 -9 14 3 8 -3 19 -15 26 -12 6
-21 17 -21 24 0 7 -12 18 -26 25 -19 8 -23 15 -16 24 16 19 2 33 -51 56 -46
20 -62 41 -31 41 27 0 -2 27 -35 33 -20 4 -31 14 -35 31 -3 13 -15 28 -26 31
-11 3 -20 10 -20 15 0 4 -8 11 -17 14 -22 8 -48 23 -93 56 -19 14 -52 33 -73
42 -20 10 -45 31 -55 47 -9 17 -21 30 -27 30 -22 -3 -33 2 -55 21 -13 11 -29
20 -37 20 -7 0 -13 5 -13 10 0 6 -14 10 -30 10 -22 0 -42 11 -67 35 -35 34
-45 39 -71 36 -7 -1 -22 9 -33 23 -11 14 -26 26 -32 26 -7 0 -18 9 -25 20 -7
11 -21 20 -32 20 -12 0 -23 7 -26 15 -4 9 -19 15 -39 15 -18 0 -38 7 -45 15
-7 8 -29 15 -50 15 -21 0 -43 7 -50 15 -7 8 -24 15 -39 15 -15 0 -37 7 -49 16
-15 10 -32 14 -48 10 -17 -5 -37 0 -57 12 -37 23 -134 34 -177 22 -19 -5 -32
-5 -36 2 -4 6 -21 7 -41 3 -26 -5 -40 -2 -54 11 -14 13 -40 18 -99 20 -84 3
-186 21 -207 37 -7 5 -18 5 -25 1 -7 -5 -60 -9 -118 -10 -181 -3 -341 -21
-405 -44 -33 -12 -76 -27 -95 -33 -19 -6 -39 -17 -43 -24 -4 -7 -20 -13 -35
-13 -59 -1 -198 -105 -369 -277 -68 -68 -113 -121 -113 -133 0 -11 -4 -20 -9
-20 -14 0 -61 -75 -61 -98 0 -13 -7 -25 -15 -28 -8 -4 -15 -16 -15 -29 0 -13
-7 -25 -15 -29 -8 -3 -15 -12 -15 -20 0 -8 -3 -16 -7 -18 -5 -1 -18 -25 -31
-52 -23 -48 -23 -50 -6 -100 9 -28 25 -72 35 -98 11 -26 19 -57 19 -70 0 -30
26 -71 88 -139 54 -59 71 -90 26 -48 -25 24 -26 24 -40 5 -8 -11 -14 -28 -14
-38 0 -22 -7 -22 -53 -3 -28 11 -37 22 -44 52 -7 31 -14 39 -36 41 -15 2 -33
13 -42 24 -9 14 -27 23 -51 24 -20 2 -38 5 -39 6 -14 15 -127 258 -144 308
-13 36 -33 83 -46 105 -13 22 -29 51 -36 65 -29 63 -68 132 -88 155 -10 11
-21 28 -24 38 -4 11 -17 17 -37 17 -20 0 -30 5 -30 15 0 10 -6 12 -17 8 -16
-6 -16 -5 -4 10 8 10 12 19 10 20 -2 1 -17 11 -34 23 -16 11 -41 23 -55 27
-14 3 -43 10 -64 16 -22 5 -60 7 -85 4 -38 -4 -49 -2 -65 16 -11 12 -31 21
-46 21 -27 0 -60 27 -60 48 0 7 -5 12 -10 12 -6 0 -22 11 -35 24 -13 13 -34
26 -47 29 -14 4 -30 18 -36 32 -6 14 -18 25 -26 25 -8 0 -21 6 -28 13 -22 21
-67 47 -81 47 -8 0 -26 9 -40 20 -14 11 -32 20 -40 20 -8 0 -20 7 -27 15 -7 8
-23 15 -35 15 -13 0 -25 6 -28 14 -3 7 -17 16 -31 20 -14 3 -42 17 -62 31 -20
14 -42 25 -49 25 -7 0 -18 6 -24 14 -14 17 -188 73 -253 81 -26 3 -54 13 -62
21 -8 8 -26 14 -40 14 -14 0 -26 5 -26 10 0 6 -14 10 -31 10 -17 0 -39 5 -51
11 -12 6 -110 12 -245 14 -195 3 -230 2 -257 -12 -17 -9 -56 -20 -87 -24 -43
-5 -71 -17 -120 -50 -35 -23 -72 -42 -81 -42 -10 1 -23 -7 -29 -18 -6 -11 -17
-18 -24 -15 -8 3 -25 -4 -38 -15 -14 -10 -34 -19 -45 -19 -10 0 -37 -14 -58
-31 -25 -19 -45 -28 -59 -25 -11 3 -27 1 -35 -4 -12 -8 -12 -14 3 -44 20 -43
11 -46 -53 -20 -30 12 -40 22 -40 38 1 30 25 94 45 115 11 13 14 27 9 45 -3
15 -1 32 6 41 6 7 11 24 10 37 -1 13 -1 25 0 28 1 3 3 34 6 69 3 45 0 69 -10
80 -15 18 -25 68 -31 152 -2 31 -7 65 -13 75 -5 11 -17 36 -27 57 -19 39 -44
66 -133 142 -75 65 -87 71 -218 121 -110 42 -147 51 -304 71 -30 4 -152 7
-270 8 -189 0 -228 -3 -325 -24 -131 -28 -245 -66 -279 -92 -13 -10 -32 -19
-42 -19 -9 0 -38 -12 -63 -28 -71 -43 -103 -60 -147 -81 -23 -11 -45 -24 -49
-30 -3 -6 -25 -21 -48 -33 -23 -11 -48 -29 -55 -39 -7 -11 -18 -19 -25 -19 -6
0 -23 -12 -39 -27 -15 -14 -31 -24 -34 -20 -24 24 -20 301 6 387 5 19 10 55
10 80 0 25 14 90 30 145 16 55 30 108 30 118 0 9 4 25 9 35 5 9 17 44 26 77
10 33 24 76 31 95 7 19 16 51 20 70 4 19 13 44 20 55 17 26 72 255 78 325 3
30 10 96 17 145 14 96 17 238 7 295 -3 19 -6 45 -7 58 -1 31 -61 86 -110 100
-22 7 -45 21 -51 32 -13 25 -61 50 -94 50 -14 0 -28 5 -31 10 -4 6 -16 8 -27
5 -11 -4 -26 -1 -36 8 -22 20 -254 78 -267 67 -14 -11 -105 7 -125 25 -9 8
-24 15 -33 15 -9 0 -17 5 -17 10 0 6 -10 10 -23 10 -12 0 -40 9 -62 20 -22 11
-55 20 -74 20 -20 0 -53 12 -84 31 -27 16 -55 28 -63 25 -7 -3 -16 -1 -20 5
-12 20 -90 63 -119 66 -76 8 -121 16 -130 23 -5 5 -27 11 -48 15 -20 4 -40 11
-43 16 -3 5 -44 9 -92 9 -57 1 -96 6 -112 15 -14 8 -35 14 -46 15 -12 0 -27 7
-34 15 -8 9 -21 13 -32 9 -10 -3 -25 0 -33 6 -7 6 -42 13 -77 15 -36 2 -82 12
-108 24 -25 11 -57 21 -71 21 -15 0 -44 6 -66 14 -25 9 -45 11 -54 5 -8 -5
-27 -9 -43 -9 -23 0 -27 3 -18 12 7 7 12 16 12 20 0 13 -34 9 -46 -6z"/>
</g>
</svg>
