<?xml version="1.0" standalone="no"?>
<!DOCTYPE svg PUBLIC "-//W3C//DTD SVG 20010904//EN"
 "http://www.w3.org/TR/2001/REC-SVG-20010904/DTD/svg10.dtd">
<svg version="1.0" xmlns="http://www.w3.org/2000/svg"
 width="673.000000pt" height="1536.000000pt" viewBox="0 0 673.000000 1536.000000"
 preserveAspectRatio="xMidYMid meet">
<metadata>
Created by potrace 1.16, written by Peter Selinger 2001-2019
</metadata>
<g transform="translate(0.000000,1536.000000) scale(0.100000,-0.100000)"
fill="#000000" stroke="none">
<path d="M3732 15335 c-22 -49 -67 -373 -75 -535 -1 -44 -5 -54 -17 -50 -8 2
-123 6 -256 8 l-240 3 -18 72 c-17 73 -104 300 -158 415 -21 45 -34 62 -49 62
-10 0 -19 -2 -19 -5 0 -2 43 -124 95 -271 52 -146 95 -272 95 -279 0 -7 -28
-23 -63 -34 -61 -20 -248 -70 -276 -74 -18 -2 -32 24 -77 148 -50 137 -184
415 -201 415 -7 0 -13 -4 -13 -8 0 -23 40 -135 130 -368 55 -141 100 -258 100
-261 0 -3 -9 -3 -20 0 -14 4 -29 -4 -50 -26 l-29 -31 -16 36 c-8 21 -15 43
-15 50 0 19 -29 58 -42 58 -14 0 -4 -101 17 -159 30 -87 -24 -181 -105 -181
-58 0 -91 20 -210 130 -134 125 -332 295 -360 310 -12 6 -24 9 -28 6 -14 -14
34 -69 188 -214 225 -211 255 -246 268 -307 6 -27 8 -53 6 -57 -3 -4 -23 -8
-46 -8 -48 0 -55 7 -192 183 -104 134 -152 187 -167 187 -16 0 17 -56 124
-210 136 -196 166 -256 174 -347 l6 -73 -39 -16 c-59 -25 -121 -14 -222 38
-109 55 -290 159 -359 205 -35 24 -59 33 -70 28 -40 -15 133 -138 417 -296 80
-45 134 -84 180 -129 66 -64 67 -67 98 -175 45 -158 62 -229 62 -259 0 -26 -1
-26 -75 -26 -94 0 -130 -14 -207 -85 -44 -39 -69 -55 -90 -55 -21 0 -29 -6
-34 -25 -6 -23 -4 -36 13 -102 3 -13 3 -30 -1 -39 -5 -13 -11 -10 -32 16 -24
28 -31 31 -64 25 -25 -4 -40 -2 -48 8 -6 7 -21 71 -32 142 -22 132 -25 145
-39 145 -30 0 -16 -244 20 -347 29 -85 30 -83 -59 -83 -73 0 -84 3 -153 41
-101 55 -448 225 -509 249 -28 11 -50 16 -50 12 0 -21 169 -129 392 -249 89
-48 176 -100 194 -115 26 -23 74 -116 74 -143 0 -8 -72 -41 -126 -59 l-51 -17
-79 49 c-130 81 -311 162 -360 162 -28 0 -9 -24 39 -50 121 -65 296 -166 334
-192 74 -50 106 -126 129 -307 8 -64 24 -153 34 -199 14 -56 20 -120 20 -193
0 -93 4 -122 29 -196 39 -120 44 -161 23 -167 -30 -8 -203 -19 -327 -20 -115
-1 -122 -2 -156 -28 -37 -29 -63 -35 -74 -18 -3 6 -23 10 -44 10 -57 0 -81
-31 -81 -104 0 -31 -4 -65 -10 -75 -13 -25 -37 -33 -254 -86 -200 -49 -256
-67 -256 -84 0 -6 19 -11 43 -11 68 0 287 29 345 46 65 18 78 15 126 -35 l37
-38 -42 -36 c-24 -21 -70 -45 -108 -58 -127 -42 -357 -174 -381 -220 -18 -33
19 -23 167 42 123 55 264 109 284 109 14 0 86 -106 103 -152 9 -26 44 -91 76
-145 79 -130 79 -136 -7 -130 -38 2 -77 7 -89 11 -42 15 -62 -28 -97 -214 -9
-47 -31 -121 -48 -165 -17 -43 -35 -109 -41 -145 -16 -106 -29 -125 -120 -171
-103 -51 -241 -145 -297 -203 -38 -39 -42 -46 -27 -52 11 -4 29 2 46 15 73 53
261 147 344 172 41 12 92 -14 115 -60 16 -30 42 -142 65 -276 2 -17 1 -37 -4
-45 -7 -12 -12 -11 -30 5 -17 16 -40 20 -118 23 l-98 4 -11 -134 c-7 -82 -20
-156 -32 -189 -15 -42 -20 -86 -23 -194 -3 -129 -5 -145 -31 -197 -19 -38 -44
-68 -80 -96 -66 -51 -297 -285 -297 -300 0 -7 7 -12 15 -12 16 0 243 168 312
231 24 22 49 39 57 39 8 0 45 -48 83 -107 37 -60 87 -132 111 -160 23 -29 42
-55 42 -58 0 -13 -73 -3 -136 19 -109 38 -130 16 -119 -130 7 -91 6 -96 -16
-120 -21 -22 -23 -35 -25 -137 -1 -61 -6 -165 -11 -229 -9 -136 -14 -146 -119
-226 -138 -105 -327 -292 -311 -308 9 -9 43 12 232 146 99 70 189 130 200 134
56 17 169 -86 181 -165 4 -23 14 -44 25 -50 28 -15 74 -98 61 -111 -6 -6 -48
-9 -110 -6 l-99 4 -6 -181 c-4 -121 -11 -199 -22 -239 -9 -32 -20 -122 -24
-200 -5 -86 -14 -155 -23 -176 -8 -19 -46 -75 -84 -125 -94 -123 -184 -256
-184 -272 0 -7 5 -13 11 -13 17 0 184 179 302 324 47 57 47 56 119 -62 29 -48
68 -104 87 -125 28 -31 32 -40 20 -48 -16 -11 -85 -6 -142 9 -31 8 -41 7 -54
-6 -13 -14 -14 -29 -8 -102 11 -107 11 -180 1 -400 -10 -225 -16 -253 -72
-340 -111 -173 -207 -426 -139 -370 17 14 186 267 226 337 26 47 39 50 92 28
37 -15 66 -47 107 -115 14 -23 49 -63 78 -87 28 -25 52 -52 52 -59 0 -26 -47
-44 -150 -59 -188 -29 -217 -59 -171 -180 26 -69 31 -111 39 -333 l7 -194 33
-27 c29 -23 33 -31 27 -56 -12 -56 -28 -90 -88 -190 -101 -168 -143 -273 -120
-296 13 -13 169 201 218 299 31 63 39 72 63 72 34 0 167 -81 240 -146 l54 -47
-63 -63 c-51 -51 -75 -68 -124 -84 -93 -31 -105 -43 -105 -99 0 -58 23 -138
60 -211 15 -30 38 -81 50 -113 l23 -59 -42 -109 c-41 -111 -48 -143 -32 -153
14 -9 31 17 61 95 l28 72 23 -44 c12 -24 32 -68 44 -98 l22 -54 -34 -78 c-43
-100 -102 -294 -106 -345 -1 -29 2 -39 13 -39 16 0 138 260 165 351 19 61 45
88 88 90 18 1 58 5 89 9 59 8 158 -9 158 -26 0 -19 -63 -135 -88 -161 -14 -16
-34 -28 -43 -28 -10 0 -31 -17 -46 -37 -25 -32 -28 -45 -29 -112 -1 -87 -12
-120 -140 -422 -45 -108 -87 -214 -93 -235 -13 -47 -14 -94 -2 -94 11 0 23 26
96 200 97 230 176 398 191 404 32 12 124 -40 124 -70 0 -6 7 -25 15 -40 8 -16
15 -37 15 -46 0 -33 40 -124 83 -188 l44 -64 -44 -95 c-76 -162 -135 -371
-104 -371 23 0 131 203 177 335 15 44 28 81 30 83 7 10 178 38 206 34 24 -4
51 -23 101 -72 37 -38 67 -76 67 -86 0 -11 -12 -55 -25 -99 -51 -164 -95 -456
-95 -632 0 -94 9 -129 25 -103 4 6 13 70 21 143 8 73 26 182 40 242 61 267 86
365 93 360 11 -6 98 -156 114 -196 8 -19 22 -68 32 -109 l17 -76 -91 -271
c-50 -149 -91 -282 -91 -297 0 -28 11 -34 27 -14 14 18 58 124 77 185 9 28 31
84 49 125 l34 73 34 -67 33 -68 -41 -77 c-79 -150 -133 -313 -104 -313 28 0
171 227 192 302 11 44 48 68 103 68 59 0 86 -20 146 -110 32 -47 75 -101 96
-119 42 -37 108 -70 140 -71 12 0 27 -7 34 -15 7 -8 18 -85 26 -176 14 -162
27 -233 43 -244 5 -2 12 2 15 10 7 19 23 157 31 277 4 49 10 88 15 88 11 0
201 -39 223 -46 10 -3 36 -30 58 -60 23 -30 48 -54 57 -54 8 0 33 18 54 41 64
67 131 63 174 -11 25 -41 56 -39 89 4 14 19 38 39 53 45 29 12 180 51 198 51
7 0 14 -41 18 -112 11 -172 39 -309 59 -289 7 7 12 83 15 213 2 112 8 207 13
212 4 5 41 18 80 28 95 24 176 62 217 101 19 18 58 67 88 109 30 43 63 82 73
88 28 14 154 13 173 -3 8 -6 41 -52 73 -102 86 -135 185 -265 202 -265 18 0
14 14 -38 132 -52 119 -85 184 -126 245 l-34 52 33 51 c18 27 37 49 43 47 5
-2 33 -68 61 -148 59 -167 83 -219 101 -219 7 0 13 6 13 13 -1 43 -50 221
-111 401 -77 227 -76 225 -43 353 19 75 94 234 108 230 26 -8 72 -210 101
-442 19 -147 31 -205 45 -205 34 0 -23 545 -76 728 l-16 53 42 64 42 65 132 0
131 -1 55 -86 c60 -94 206 -251 257 -277 18 -9 33 -13 33 -8 0 13 -94 165
-177 287 l-76 109 44 38 c24 21 58 45 75 53 39 18 47 38 84 191 16 69 44 157
61 195 58 134 53 155 -55 235 -36 26 -66 54 -66 61 0 32 161 101 256 110 76 7
87 0 104 -65 23 -91 148 -368 173 -384 30 -19 26 29 -14 150 -22 70 -54 169
-71 220 l-30 92 45 98 c41 87 46 107 52 197 9 126 32 200 94 304 58 96 74 139
66 174 -11 41 -38 58 -110 68 -81 11 -169 54 -173 85 -2 14 10 29 45 52 26 18
76 53 111 77 66 47 102 61 127 51 8 -3 35 -48 60 -100 53 -113 160 -276 181
-276 8 0 14 3 14 7 0 7 -91 221 -139 324 -47 102 -57 153 -37 184 11 17 16 47
16 103 0 44 6 117 14 163 8 46 19 127 25 179 6 52 18 125 28 162 l17 67 -29
31 c-28 29 -45 36 -142 60 -22 6 -51 19 -64 29 l-23 18 85 93 c46 50 111 112
144 137 54 41 61 43 70 28 58 -100 282 -355 311 -355 16 0 19 26 5 35 -15 9
-222 318 -254 378 -41 78 -55 255 -39 498 13 214 12 218 -67 261 -30 16 -57
31 -60 33 -2 3 21 42 52 87 32 46 57 92 57 103 0 36 21 96 36 102 8 3 44 -23
90 -66 80 -74 245 -191 270 -191 21 0 7 22 -68 108 -56 65 -133 135 -217 200
-26 19 -33 38 -60 150 -69 293 -82 402 -61 512 14 76 0 100 -73 123 -34 11
-57 24 -57 33 0 8 -7 14 -15 14 -8 0 -15 4 -15 9 0 19 131 269 158 301 27 32
31 34 57 22 15 -7 66 -46 114 -86 47 -41 104 -83 126 -94 22 -11 51 -32 64
-46 29 -30 68 -37 52 -8 -5 9 -72 85 -150 167 -77 83 -150 168 -160 190 -61
125 -91 196 -91 213 0 11 -7 38 -15 62 -13 37 -13 54 0 148 8 58 15 114 15
124 0 33 -42 65 -96 72 -95 14 -126 63 -81 129 23 34 49 118 62 199 7 42 48
98 74 98 9 0 48 -23 86 -51 132 -96 326 -209 360 -209 32 0 12 29 -52 79 -38
28 -97 75 -132 106 -35 30 -99 72 -141 94 -50 26 -80 49 -88 66 -8 16 -12 84
-12 184 0 121 -4 169 -16 202 -10 26 -19 94 -23 165 -5 97 -10 126 -24 142
-19 20 -98 46 -179 57 -57 7 -57 6 -23 133 28 106 37 126 73 165 34 36 88 36
207 -2 117 -36 334 -85 343 -77 8 8 -9 37 -29 48 -65 35 -254 112 -308 125
-98 22 -113 30 -144 74 -35 51 -42 84 -29 146 9 38 8 62 -3 103 -11 42 -12 64
-3 97 22 89 1 105 -187 143 -155 32 -156 32 -161 45 -3 6 1 104 9 218 13 199
14 207 42 246 15 23 35 41 45 41 9 0 50 -11 90 -25 102 -35 268 -65 353 -65
65 1 70 2 53 15 -18 14 -346 123 -435 146 -51 12 -111 66 -111 97 0 12 11 34
24 49 l24 28 246 3 c204 3 246 6 246 17 0 18 -3 19 -245 50 -110 15 -211 30
-225 33 -34 10 -70 67 -70 113 0 55 -15 87 -45 95 -37 9 -135 -12 -207 -46
-92 -43 -109 -43 -120 0 -14 58 -30 80 -74 106 -33 19 -55 24 -112 24 l-72 0
0 31 c0 32 54 319 70 374 5 17 20 61 34 98 14 37 35 121 47 185 11 64 31 152
45 195 22 70 33 88 108 171 149 165 236 296 197 296 -6 0 -84 -71 -173 -159
-90 -87 -174 -161 -186 -165 -11 -4 -31 -2 -43 4 -25 14 -22 41 11 118 18 41
35 58 108 109 214 148 406 323 356 323 -4 0 -64 -38 -133 -84 -69 -46 -166
-110 -215 -142 -49 -33 -107 -71 -129 -86 -61 -42 -100 -38 -149 15 -34 37
-38 46 -33 77 30 182 21 490 -15 490 -9 0 -14 -47 -31 -252 -12 -154 -27 -228
-49 -238 -8 -4 -35 -16 -59 -28 -24 -12 -46 -20 -48 -18 -3 2 -7 37 -10 78 -5
72 -5 75 21 91 16 11 26 27 26 42 0 30 -34 67 -54 59 -8 -3 -39 18 -75 49 -60
54 -180 123 -253 147 -21 6 -40 15 -43 19 -2 5 4 59 15 121 29 174 90 281 205
360 22 15 113 66 203 114 227 120 349 203 329 223 -4 3 -114 -47 -244 -112
-261 -129 -299 -145 -349 -145 -52 0 -67 31 -62 132 3 80 5 86 55 163 108 170
203 347 203 382 0 35 -31 -3 -115 -140 -149 -243 -211 -318 -250 -303 -12 4
-14 17 -9 63 9 92 20 113 94 198 115 131 301 428 281 448 -15 15 -32 -3 -134
-150 -108 -153 -252 -334 -280 -350 -26 -15 -101 -17 -126 -3 -33 17 -52 86
-52 180 0 47 -3 99 -8 115 l-9 30 -16 -37 c-9 -21 -16 -44 -16 -53 0 -21 -27
-30 -44 -15 -19 15 -11 38 89 245 42 88 85 187 96 220 12 33 25 64 30 70 11
11 12 55 1 55 -28 0 -121 -167 -211 -379 -39 -90 -73 -166 -75 -169 -3 -2 -12
2 -20 11 -16 16 -105 49 -261 96 -55 17 -106 35 -114 40 -12 8 -11 29 3 142
39 320 44 448 20 456 -6 2 -16 -8 -22 -22z"/>
<path d="M40 13435 l0 -1216 103 3 102 3 3 1213 2 1212 -105 0 -105 0 0 -1215z"/>
</g>
</svg>
