<?xml version="1.0" standalone="no"?>
<!DOCTYPE svg PUBLIC "-//W3C//DTD SVG 20010904//EN"
 "http://www.w3.org/TR/2001/REC-SVG-20010904/DTD/svg10.dtd">
<svg version="1.0" xmlns="http://www.w3.org/2000/svg"
 width="1536.000000pt" height="1476.000000pt" viewBox="0 0 1536.000000 1476.000000"
 preserveAspectRatio="xMidYMid meet">
<metadata>
Created by potrace 1.16, written by Peter Selinger 2001-2019
</metadata>
<g transform="translate(0.000000,1476.000000) scale(0.100000,-0.100000)"
fill="#000000" stroke="none">
<path d="M12045 14455 c-5 -1 -37 -8 -70 -15 -184 -39 -333 -114 -535 -269
-145 -112 -454 -433 -617 -641 -6 -8 -23 -28 -36 -45 -54 -66 -216 -287 -282
-384 -131 -192 -186 -262 -265 -340 l-79 -79 -88 -6 c-120 -9 -278 5 -538 49
-55 10 -116 19 -135 21 -19 3 -57 9 -85 14 -61 11 -275 36 -450 51 -123 11
-501 7 -761 -7 l-101 -5 -69 44 c-101 64 -218 108 -339 127 -98 16 -436 21
-520 9 -98 -14 -217 -54 -307 -102 l-77 -40 -158 62 c-193 76 -259 97 -388
123 -55 11 -122 24 -150 30 -60 12 -657 5 -825 -10 -115 -10 -222 -22 -401
-43 -101 -12 -129 -9 -129 14 0 15 6 18 130 62 41 15 84 30 95 35 11 5 43 19
70 30 76 33 214 101 265 130 25 15 76 43 113 64 127 69 142 78 158 92 8 8 19
14 22 14 4 0 26 12 49 26 52 33 279 164 284 164 2 0 27 15 56 33 48 30 221
117 232 117 3 0 29 11 58 24 65 29 293 102 368 117 30 6 71 15 90 19 19 5 64
15 100 23 140 32 238 75 291 128 46 46 48 67 13 102 -24 24 -37 28 -144 43
-57 7 -220 -11 -325 -36 -103 -25 -192 -56 -335 -117 -59 -25 -371 -180 -435
-216 -61 -34 -412 -255 -495 -311 -58 -39 -77 -51 -120 -76 -19 -11 -44 -26
-55 -33 -149 -94 -494 -267 -604 -303 -103 -34 -279 -106 -329 -134 -31 -18
-57 -42 -62 -56 -18 -46 8 -69 111 -102 46 -16 680 -16 804 -1 130 16 853 17
935 2 36 -7 106 -20 155 -28 50 -9 104 -20 120 -25 17 -6 69 -22 117 -36 49
-15 93 -33 100 -41 9 -12 -7 -33 -88 -116 -239 -244 -371 -494 -399 -752 -6
-50 -15 -72 -54 -130 -80 -116 -133 -258 -162 -430 -26 -149 -15 -468 21 -615
4 -19 14 -60 20 -90 46 -205 135 -375 265 -505 110 -110 187 -148 378 -190 61
-14 107 -16 205 -12 70 3 139 9 155 12 34 9 35 -5 3 -48 -13 -18 -36 -57 -52
-87 -35 -67 -73 -121 -140 -199 -107 -125 -204 -255 -231 -311 -44 -91 -53
-149 -53 -323 1 -191 18 -337 64 -527 9 -36 21 -85 27 -110 5 -25 14 -61 18
-80 5 -19 17 -71 26 -115 9 -44 19 -90 22 -102 16 -69 -116 26 -226 162 -58
72 -171 230 -171 240 0 3 -12 24 -27 48 -26 40 -193 371 -193 382 0 2 -13 33
-29 67 -15 35 -40 88 -53 118 -14 31 -42 96 -63 145 -20 50 -50 118 -66 153
-16 35 -29 65 -29 67 0 3 -11 29 -25 59 -14 30 -25 58 -25 62 0 4 -23 55 -51
113 -51 105 -54 108 -243 296 -213 212 -253 255 -312 335 -114 155 -150 213
-225 367 -48 100 -149 386 -149 423 0 10 -4 22 -10 25 -5 3 -10 17 -10 31 0
13 -4 32 -10 42 -5 9 -15 33 -23 52 -8 19 -26 61 -41 93 -14 32 -26 60 -26 63
0 12 -177 364 -207 412 -18 29 -33 56 -33 60 -1 11 -120 175 -158 216 -52 57
-62 50 -62 -44 0 -68 6 -96 36 -177 20 -52 44 -110 54 -128 49 -88 191 -366
211 -415 21 -50 24 -75 29 -295 3 -133 11 -256 17 -275 6 -19 21 -66 33 -105
31 -98 118 -279 182 -377 94 -144 175 -236 444 -503 287 -285 326 -335 394
-500 14 -34 50 -160 69 -245 63 -277 120 -468 174 -579 17 -36 65 -108 107
-160 86 -109 313 -339 373 -379 88 -60 143 -92 155 -92 7 0 20 -4 30 -10 25
-13 126 -40 154 -40 51 0 58 -37 34 -170 -31 -162 -59 -241 -103 -285 -56 -56
-251 -98 -351 -75 -113 26 -156 55 -311 204 -191 185 -286 252 -420 295 -64
21 -179 11 -247 -21 -12 -5 -54 -7 -95 -4 -172 13 -917 18 -1059 7 -146 -12
-297 -37 -315 -53 -5 -4 -15 -8 -23 -8 -12 0 -67 -26 -189 -89 -58 -29 -121
-49 -193 -62 -143 -24 -217 -30 -495 -38 -993 -32 -1382 -56 -1422 -87 -17
-13 -17 -15 2 -26 42 -26 177 -52 360 -70 160 -15 1110 -22 1255 -9 252 23
404 51 495 92 158 71 292 86 564 62 242 -21 634 -28 726 -14 78 13 253 45 360
67 38 8 78 11 88 8 20 -6 208 -165 242 -204 42 -48 195 -168 246 -193 112 -55
187 -65 504 -68 160 -2 298 -7 309 -12 16 -8 17 -16 12 -60 -22 -173 -17 -255
30 -435 5 -15 -8 -52 -39 -115 -44 -91 -85 -185 -114 -262 -77 -205 -200 -342
-386 -428 -32 -15 -63 -27 -71 -27 -7 0 -16 -3 -20 -7 -12 -12 -77 -32 -233
-73 -260 -68 -295 -79 -337 -107 -73 -47 -154 -117 -331 -284 -28 -26 -56 -58
-62 -71 -7 -13 -30 -61 -52 -108 -39 -83 -73 -146 -123 -226 -13 -21 -28 -46
-31 -54 -4 -8 -17 -31 -28 -50 -12 -19 -33 -55 -47 -80 -51 -90 -282 -449
-374 -582 -53 -74 -97 -140 -99 -144 -2 -5 -34 -55 -72 -111 -37 -57 -76 -120
-88 -140 -11 -21 -30 -54 -41 -73 -25 -42 -52 -91 -103 -185 -81 -151 -67
-139 -347 -316 -142 -90 -291 -185 -331 -211 -40 -26 -81 -52 -92 -57 -11 -5
-105 -64 -210 -131 -104 -66 -197 -123 -205 -127 -8 -4 -67 -39 -130 -78 -63
-40 -120 -74 -125 -76 -6 -2 -62 -36 -125 -75 -63 -39 -148 -90 -189 -115 -40
-24 -90 -54 -110 -66 -20 -13 -42 -26 -49 -29 -7 -4 -84 -50 -170 -102 -86
-52 -175 -106 -197 -119 -22 -13 -47 -28 -55 -33 -21 -14 -381 -231 -405 -244
-18 -11 -151 -90 -200 -119 -193 -117 -230 -144 -257 -186 -27 -44 -37 -91
-19 -91 11 0 374 181 476 238 39 21 102 56 140 77 39 21 77 44 86 51 8 8 19
14 22 14 4 0 55 29 114 63 60 35 133 77 163 94 108 60 157 87 265 146 61 33
127 71 147 84 21 12 40 23 42 23 9 0 391 236 539 333 81 53 149 97 151 97 2 0
36 22 77 49 66 43 695 441 761 480 14 9 95 58 180 110 84 52 164 100 177 107
43 22 85 69 188 206 89 119 262 364 288 410 6 9 38 64 71 120 112 188 207 373
321 628 57 126 166 343 192 382 17 25 55 68 84 95 43 39 72 54 153 82 486 166
812 346 1029 571 53 55 102 95 145 118 105 56 255 167 319 236 27 28 51 34 51
12 0 -13 -19 -65 -40 -111 -40 -87 -54 -163 -54 -290 0 -146 15 -211 65 -290
l30 -48 -68 -71 c-112 -115 -141 -187 -150 -361 -7 -140 4 -207 49 -296 30
-59 30 -63 13 -76 -11 -7 -25 -13 -33 -13 -54 0 -293 -96 -390 -157 -29 -18
-55 -33 -57 -33 -3 0 -42 -26 -87 -59 -250 -177 -396 -377 -533 -726 -67 -172
-79 -211 -125 -395 -28 -112 -60 -431 -60 -593 0 -135 25 -359 61 -547 10 -51
30 -132 64 -256 36 -131 142 -353 301 -627 19 -32 34 -60 34 -63 0 -3 8 -17
18 -32 11 -15 43 -63 72 -107 137 -205 316 -383 470 -468 194 -106 486 -116
705 -23 307 130 551 334 902 755 70 83 213 276 213 287 0 3 15 28 33 57 51 80
126 241 175 372 37 103 47 136 66 215 50 218 66 378 66 657 0 253 -16 395 -65
563 -7 25 -18 65 -25 90 -17 62 -62 183 -72 194 -4 6 -8 17 -8 25 0 31 -101
225 -174 335 -83 124 -236 282 -340 350 -76 51 -193 108 -278 137 -64 21 -82
39 -57 55 24 15 81 119 105 193 22 69 25 92 21 187 -2 60 -8 125 -14 144 -21
75 -70 157 -127 214 -55 55 -58 61 -48 85 5 14 22 55 37 90 43 101 55 164 55
279 0 76 -6 130 -21 187 -32 120 -32 125 -20 125 14 0 87 -78 132 -140 60 -82
152 -166 209 -191 30 -12 172 -81 315 -153 317 -160 471 -231 550 -256 22 -7
49 -16 60 -21 11 -4 31 -10 45 -13 14 -3 54 -12 90 -21 56 -13 177 -40 340
-75 77 -17 204 -42 235 -47 174 -25 252 -96 371 -333 38 -77 63 -135 92 -210
11 -30 36 -98 56 -150 20 -53 36 -103 36 -111 0 -8 4 -19 9 -25 4 -5 16 -34
25 -64 9 -30 21 -64 26 -75 4 -11 36 -94 71 -185 74 -198 80 -210 229 -515
137 -281 238 -455 280 -485 16 -11 51 -30 77 -41 26 -11 62 -27 78 -34 17 -7
71 -30 120 -50 50 -21 110 -46 135 -57 94 -42 108 -48 114 -48 3 0 25 -8 49
-19 23 -10 56 -23 72 -29 26 -9 210 -78 270 -102 96 -37 155 -60 185 -70 19
-7 51 -20 70 -28 56 -23 68 -28 200 -77 69 -26 149 -58 178 -71 29 -13 55 -24
58 -24 3 0 30 -11 60 -25 30 -14 56 -25 59 -25 4 0 130 -58 240 -111 82 -39
233 -125 272 -155 17 -13 35 -24 38 -24 4 0 59 -39 122 -87 117 -88 355 -317
435 -418 125 -157 178 -227 228 -296 68 -94 141 -179 153 -179 13 0 2 85 -19
151 -21 64 -94 212 -141 287 -18 29 -33 55 -33 57 0 5 -89 130 -125 175 -35
45 -299 305 -349 346 -27 21 -63 51 -80 65 -39 33 -232 163 -311 210 -213 125
-572 270 -1085 439 -168 55 -314 104 -325 109 -11 5 -54 21 -95 36 -41 15 -84
30 -95 35 -11 4 -105 43 -210 85 -104 42 -197 84 -206 92 -9 8 -36 73 -59 146
-23 73 -46 141 -50 152 -5 11 -29 83 -55 160 -48 144 -89 251 -131 343 -13 29
-24 55 -24 57 0 5 -36 83 -109 239 -28 60 -86 184 -128 275 -139 300 -281 560
-352 645 -15 17 -39 48 -54 69 -53 71 -255 191 -442 262 -55 20 -109 41 -120
45 -67 27 -195 62 -450 126 -121 30 -238 59 -260 65 -22 6 -60 17 -85 24 -25
7 -65 18 -90 25 -69 19 -131 41 -177 61 -24 11 -47 19 -52 19 -5 0 -42 14 -82
31 -205 86 -233 111 -272 239 -31 99 -99 343 -115 413 -17 67 -15 87 12 143
50 104 67 182 73 329 3 77 9 145 14 151 5 6 55 16 111 23 57 6 122 16 146 21
23 6 63 10 89 10 26 0 72 4 102 10 58 10 264 25 546 40 320 18 439 33 590 79
99 31 172 71 305 170 63 47 125 92 138 99 48 26 58 32 92 46 66 27 95 29 500
36 375 6 501 15 605 40 22 5 69 16 105 24 89 22 195 56 325 107 124 48 171 55
430 69 163 8 359 27 505 50 184 28 227 36 400 74 175 38 406 110 565 176 135
55 335 173 335 198 0 7 -13 12 -32 12 -72 -1 -349 -58 -390 -80 -10 -6 -28
-10 -41 -10 -13 0 -27 -4 -33 -9 -5 -5 -29 -14 -54 -19 -46 -11 -75 -19 -170
-46 -89 -26 -322 -86 -365 -95 -22 -5 -85 -18 -140 -30 -139 -29 -194 -40
-235 -45 -19 -2 -73 -9 -120 -17 -49 -7 -174 -13 -295 -12 -171 0 -218 3 -255
16 -63 23 -233 22 -440 -4 -292 -36 -364 -52 -603 -133 -282 -95 -372 -112
-555 -103 -173 9 -292 -4 -397 -43 -91 -34 -397 -155 -440 -175 -29 -13 -69
-28 -220 -82 -38 -13 -79 -28 -90 -33 -11 -4 -60 -20 -110 -34 -49 -15 -103
-31 -120 -36 -41 -12 -136 -28 -279 -46 -88 -10 -141 -12 -205 -5 -47 6 -137
15 -199 22 -108 11 -114 13 -124 38 -16 41 -32 196 -33 310 0 115 -3 110 75
131 58 16 69 20 163 66 175 84 348 242 463 421 36 56 134 256 134 273 0 5 4
18 10 28 14 26 60 168 60 186 0 9 4 24 9 34 5 9 16 60 25 112 34 197 49 247
97 307 43 54 169 229 184 255 6 10 28 48 50 85 56 94 165 322 165 344 0 5 4
17 9 27 26 47 75 215 121 412 7 30 23 78 36 105 12 28 41 91 64 140 79 171
180 459 180 512 0 10 4 23 9 28 12 14 21 84 12 90 -13 8 -171 -162 -238 -257
-115 -162 -263 -430 -352 -638 -12 -30 -29 -69 -37 -87 -8 -17 -14 -34 -14
-37 0 -3 -13 -35 -30 -71 -16 -36 -30 -68 -30 -70 0 -9 -82 -203 -139 -328
-17 -37 -31 -69 -31 -72 0 -4 -59 -131 -119 -257 -23 -47 -71 -125 -106 -172
-76 -101 -117 -180 -174 -336 -24 -63 -46 -124 -51 -135 -4 -11 -25 -65 -46
-120 -97 -261 -258 -512 -379 -591 -47 -31 -55 -13 -30 63 12 37 27 92 34 121
28 132 35 162 53 232 26 97 30 113 73 250 43 135 56 287 36 405 -15 84 -71
230 -117 303 -19 29 -34 55 -34 58 0 3 -30 44 -67 91 -105 132 -126 163 -167
236 -20 37 -45 83 -56 102 -23 40 -13 51 33 37 94 -28 150 -33 312 -30 94 3
190 10 215 17 82 23 163 74 242 153 82 82 86 88 148 218 57 117 57 118 76 180
9 30 19 66 24 80 41 132 80 434 80 629 0 151 -31 460 -60 601 -30 142 -52 227
-71 275 -4 11 -13 38 -20 60 -26 89 -122 282 -177 360 -32 45 -108 137 -155
189 -9 11 -16 25 -14 31 2 6 71 11 188 13 204 3 373 -12 789 -72 58 -8 130
-17 160 -21 30 -3 80 -10 110 -15 191 -31 616 -62 664 -49 52 14 176 142 311
319 125 164 353 430 633 738 234 259 420 423 555 490 79 39 196 92 203 92 7 0
26 8 155 68 101 46 202 113 225 147 21 32 14 67 -16 82 -22 11 -147 17 -175 8z"/>
</g>
</svg>
