<?xml version="1.0" standalone="no"?>
<!DOCTYPE svg PUBLIC "-//W3C//DTD SVG 20010904//EN"
 "http://www.w3.org/TR/2001/REC-SVG-20010904/DTD/svg10.dtd">
<svg version="1.0" xmlns="http://www.w3.org/2000/svg"
 width="1124.000000pt" height="1536.000000pt" viewBox="0 0 1124.000000 1536.000000"
 preserveAspectRatio="xMidYMid meet">
<metadata>
Created by potrace 1.16, written by Peter Selinger 2001-2019
</metadata>
<g transform="translate(0.000000,1536.000000) scale(0.100000,-0.100000)"
fill="#000000" stroke="none">
<path d="M120 15350 c41 -5 136 -16 210 -25 205 -25 465 -71 563 -99 108 -32
185 -70 301 -150 127 -86 229 -187 470 -461 603 -687 1981 -2240 2160 -2434
169 -184 823 -889 885 -954 l35 -37 -31 6 c-44 9 -89 -16 -163 -92 l-65 -65
65 29 c83 37 123 45 171 32 42 -12 160 -93 255 -177 l63 -55 -52 -72 c-28 -39
-66 -88 -83 -108 -47 -52 -73 -108 -80 -170 -6 -51 -8 -54 -61 -87 -112 -68
-183 -148 -266 -298 -43 -76 -81 -144 -86 -152 -7 -11 -31 6 -107 77 -59 55
-130 110 -181 139 -153 87 -177 106 -298 228 -66 66 -153 147 -194 180 l-73
59 6 45 6 44 -30 -41 c-17 -25 -38 -42 -49 -42 -32 0 -33 -17 -2 -30 17 -6 47
-39 74 -78 55 -81 98 -123 287 -282 102 -86 156 -139 181 -179 40 -63 75 -97
205 -195 l92 -69 -65 -131 c-50 -103 -66 -147 -75 -206 -11 -79 -5 -218 13
-285 23 -89 23 -89 -41 -229 -59 -127 -64 -135 -84 -125 -20 9 -20 9 -3 -4 17
-14 17 -18 3 -69 -20 -68 -61 -340 -78 -515 l-12 -135 -51 -45 c-27 -25 -67
-57 -87 -71 -34 -22 -42 -23 -78 -14 -47 12 -51 8 -13 -12 l28 -14 -33 -19
c-91 -49 -141 -93 -204 -178 -62 -84 -71 -92 -155 -134 -112 -56 -373 -137
-385 -119 -13 20 -28 -10 -28 -57 0 -22 4 -35 8 -28 10 16 291 85 317 79 27
-7 142 31 180 59 17 12 62 52 101 88 49 46 74 63 84 57 11 -7 11 -11 0 -24
-24 -30 -4 -26 51 10 30 19 84 51 120 69 37 19 97 57 134 86 66 50 67 51 61
23 -10 -50 -46 -343 -46 -379 0 -19 -3 -35 -7 -35 -5 0 -8 -88 -7 -195 1 -128
-3 -195 -9 -195 -6 0 -4 -6 5 -12 9 -7 24 -40 33 -73 22 -79 50 -132 95 -181
28 -31 39 -52 44 -90 4 -27 9 -63 12 -80 l6 -31 -78 -8 c-112 -10 -176 -30
-278 -83 -112 -59 -169 -113 -237 -226 -56 -93 -143 -178 -439 -431 -169 -144
-210 -185 -231 -233 -28 -65 -205 -241 -336 -334 -61 -44 -148 -118 -193 -164
-76 -79 -83 -84 -123 -84 l-42 -1 31 -27 c17 -15 39 -40 49 -56 l18 -30 27 31
c15 17 61 48 101 69 41 22 94 54 118 73 24 18 80 51 123 73 87 44 138 96 281
289 56 75 80 99 113 113 42 17 239 173 374 295 51 47 90 93 123 148 l47 81
143 4 c117 4 170 11 305 42 90 21 165 36 167 34 2 -2 8 -66 13 -143 8 -107 16
-157 36 -210 19 -53 66 -287 66 -330 0 -3 -15 -6 -32 -6 l-33 -2 30 -4 c17 -3
33 -8 36 -11 4 -4 14 -61 23 -127 25 -183 25 -183 58 -221 28 -31 35 -56 74
-240 53 -253 74 -319 123 -381 31 -39 50 -86 105 -257 37 -115 81 -238 97
-274 17 -35 48 -118 71 -183 22 -65 44 -117 50 -116 5 1 18 -20 28 -48 15 -38
17 -51 7 -57 -9 -6 -8 -8 3 -8 10 0 36 -55 79 -166 66 -171 79 -190 143 -213
18 -7 40 -16 48 -20 8 -5 33 -55 56 -112 43 -109 208 -429 253 -489 14 -19 24
-41 23 -49 -2 -7 1 -11 5 -8 5 3 76 -102 158 -234 81 -132 158 -252 169 -267
12 -14 53 -107 92 -206 63 -161 77 -185 112 -203 6 -2 -449 -716 -467 -733 -9
-9 -17 -21 -19 -28 -1 -7 -32 -61 -70 -120 -44 -71 -151 -205 -316 -397 -136
-159 -250 -296 -253 -303 -3 -7 -1 -18 5 -24 7 -7 49 30 138 123 71 74 214
222 320 329 131 134 217 232 275 313 65 91 85 113 91 100 5 -14 7 -11 7 9 1
27 57 118 73 118 4 0 8 5 8 10 0 9 50 82 92 135 4 6 63 87 130 180 67 94 123
172 125 175 2 2 20 -12 39 -31 35 -35 36 -40 65 -210 66 -397 90 -502 117
-531 14 -15 29 -25 34 -22 4 3 6 9 4 13 -2 3 -16 121 -30 261 -14 140 -28 270
-30 289 l-5 34 34 -33 c18 -18 54 -75 79 -126 25 -52 48 -94 51 -94 3 0 -13
37 -36 83 l-41 82 61 -60 c34 -33 61 -64 61 -70 0 -6 28 -9 72 -7 l73 2 190
-284 c193 -289 204 -302 244 -277 11 7 -7 61 -93 272 -81 203 -106 276 -107
314 -2 46 -2 47 -8 15 l-6 -35 -17 44 c-14 34 -15 48 -6 58 9 11 13 12 19 1 6
-9 9 -7 9 9 0 12 5 23 10 25 7 2 7 15 0 38 -6 19 -12 60 -14 90 -2 30 -7 71
-10 90 -14 92 -15 110 -4 104 6 -4 5 2 -2 15 -20 38 -6 44 20 9 98 -131 326
-447 356 -493 40 -59 54 -62 54 -10 0 37 -168 324 -349 598 -54 81 -95 147
-92 147 3 0 69 -18 146 -40 77 -22 277 -79 445 -126 281 -79 307 -88 333 -117
l28 -32 -18 30 c-14 23 -15 28 -3 23 65 -24 171 -43 475 -83 193 -25 392 -52
444 -61 93 -14 118 -11 102 14 -6 10 -295 74 -536 118 -135 25 -258 54 -264
61 -3 5 -13 9 -21 9 -22 2 -424 145 -434 155 -6 5 -6 14 0 22 5 7 2 5 -6 -4
-14 -16 -21 -15 -100 14 -47 17 -87 33 -90 36 -3 3 -12 6 -20 7 -14 1 -511
173 -518 179 -2 2 5 20 16 41 l20 38 -35 96 c-35 95 -123 351 -123 358 0 2 5
0 10 -3 6 -3 1 9 -9 27 -11 18 -25 60 -31 93 -7 33 -32 126 -56 206 -46 152
-58 263 -31 272 6 2 5 3 -5 2 -12 -2 -29 27 -65 109 -49 110 -50 111 -29 124
20 12 20 12 -5 6 -21 -4 -27 -1 -32 15 -6 24 -6 24 46 41 21 6 36 14 34 16 -2
2 -23 -3 -47 -11 -24 -8 -44 -14 -46 -13 -1 2 -22 48 -46 103 -43 96 -44 101
-30 135 13 33 10 61 -15 125 -3 9 22 28 76 55 45 22 81 42 81 45 0 3 -36 -13
-80 -35 -44 -22 -81 -40 -84 -40 -2 0 -33 80 -69 178 -58 157 -74 217 -141
537 -61 294 -81 409 -105 630 -17 152 -26 272 -21 275 5 3 -2 108 -17 243 -13
131 -22 245 -18 255 8 18 8 65 -1 124 l-6 38 49 -22 c26 -12 81 -31 122 -43
l75 -22 22 -92 c13 -51 39 -121 58 -156 72 -132 223 -361 268 -409 35 -36 53
-67 69 -115 12 -36 44 -124 72 -195 46 -120 54 -134 121 -205 40 -42 79 -87
88 -101 8 -14 47 -59 86 -100 38 -42 77 -93 86 -115 l16 -38 33 30 c17 17 46
35 62 41 l30 10 -41 17 c-38 16 -45 24 -84 111 -27 59 -75 137 -127 207 -120
160 -210 340 -228 459 -3 21 -51 111 -117 220 -263 436 -288 481 -314 588 -32
132 -45 161 -109 240 -63 79 -142 149 -203 179 -53 27 -54 21 28 211 135 315
158 457 130 806 -6 71 -8 140 -5 153 l6 24 27 -26 c42 -40 186 -103 302 -131
58 -15 120 -33 138 -41 44 -20 55 -19 40 5 -25 40 7 33 118 -25 l115 -60 87 0
c48 0 153 4 235 9 137 8 149 8 168 -10 20 -18 20 -18 14 11 -4 17 -16 43 -26
60 -15 25 -19 27 -25 12 -6 -16 -18 -17 -143 -12 -131 6 -258 24 -331 47 -19
6 -72 42 -117 80 -81 68 -90 73 -252 124 -11 3 -8 11 10 30 l24 26 -42 -21
c-48 -24 -60 -21 -202 48 -47 23 -91 41 -99 41 -8 0 -11 7 -8 18 43 151 51
406 22 675 l-18 159 46 69 c71 106 81 156 81 399 0 164 -4 217 -18 265 -17 60
-17 60 5 75 13 8 41 29 64 46 27 21 109 55 247 102 213 73 280 103 357 156 25
16 64 35 88 41 43 11 43 11 18 24 -16 9 -28 29 -37 60 l-12 46 -10 -41 -9 -41
-97 -30 c-53 -17 -143 -53 -201 -81 -125 -60 -237 -95 -379 -116 -57 -9 -105
-15 -106 -14 -1 2 -24 60 -52 130 -38 94 -48 129 -39 138 8 8 7 10 -4 6 -11
-5 -27 20 -62 100 -38 86 -45 110 -37 131 15 40 10 75 -16 122 -14 23 -25 48
-25 53 0 16 272 304 368 391 87 77 167 127 206 127 27 0 109 -23 161 -44 l40
-17 -35 31 c-107 94 -142 115 -192 114 -66 -1 -137 -51 -248 -178 -49 -56
-145 -157 -213 -225 l-126 -124 -9 34 c-5 19 -6 39 -3 45 3 6 229 249 502 540
272 291 596 637 719 769 193 208 1801 2010 2311 2590 242 275 348 372 511 469
167 98 343 142 783 195 94 11 184 23 200 25 17 3 -62 3 -175 1 -436 -8 -777
-94 -985 -247 -171 -126 -973 -976 -2200 -2333 -270 -297 -616 -658 -1407
-1464 -295 -300 -320 -323 -336 -308 -52 47 -267 117 -361 117 -24 0 -108 11
-185 25 -78 14 -173 26 -211 28 l-70 3 -321 330 c-848 870 -1097 1131 -1343
1404 -1336 1483 -2082 2272 -2252 2386 -214 142 -555 218 -1019 229 -147 3
-177 2 -120 -5z"/>
<path d="M6398 10114 c-38 -20 -36 -28 2 -9 17 9 30 18 30 20 0 7 -1 6 -32
-11z"/>
<path d="M6334 10074 c-18 -14 -18 -15 4 -4 12 6 22 13 22 15 0 8 -5 6 -26
-11z"/>
<path d="M6678 9383 c12 -2 30 -2 40 0 9 3 -1 5 -23 4 -22 0 -30 -2 -17 -4z"/>
<path d="M6593 9373 c9 -2 23 -2 30 0 6 3 -1 5 -18 5 -16 0 -22 -2 -12 -5z"/>
<path d="M6528 9363 c6 -2 18 -2 25 0 6 3 1 5 -13 5 -14 0 -19 -2 -12 -5z"/>
<path d="M6478 9353 c7 -3 16 -2 19 1 4 3 -2 6 -13 5 -11 0 -14 -3 -6 -6z"/>
<path d="M3810 8980 c8 -5 20 -10 25 -10 6 0 3 5 -5 10 -8 5 -19 10 -25 10 -5
0 -3 -5 5 -10z"/>
<path d="M3860 8960 c8 -5 20 -10 25 -10 6 0 3 5 -5 10 -8 5 -19 10 -25 10 -5
0 -3 -5 5 -10z"/>
<path d="M3901 8946 c10 -9 149 -76 149 -71 0 5 -136 75 -146 75 -4 0 -5 -2
-3 -4z"/>
<path d="M3938 7463 c7 -3 16 -2 19 1 4 3 -2 6 -13 5 -11 0 -14 -3 -6 -6z"/>
<path d="M3898 7453 c7 -3 16 -2 19 1 4 3 -2 6 -13 5 -11 0 -14 -3 -6 -6z"/>
<path d="M3858 7443 c7 -3 16 -2 19 1 4 3 -2 6 -13 5 -11 0 -14 -3 -6 -6z"/>
<path d="M3818 7433 c7 -3 16 -2 19 1 4 3 -2 6 -13 5 -11 0 -14 -3 -6 -6z"/>
<path d="M3768 7423 c7 -3 16 -2 19 1 4 3 -2 6 -13 5 -11 0 -14 -3 -6 -6z"/>
<path d="M3718 7413 c7 -3 16 -2 19 1 4 3 -2 6 -13 5 -11 0 -14 -3 -6 -6z"/>
<path d="M3670 7194 c0 -7 52 -25 57 -20 2 2 -10 8 -26 14 -17 6 -31 9 -31 6z"/>
<path d="M3810 7142 c8 -5 26 -13 40 -16 17 -5 20 -4 10 2 -8 5 -26 13 -40 16
-17 5 -20 4 -10 -2z"/>
<path d="M3920 7100 c8 -5 20 -10 25 -10 6 0 3 5 -5 10 -8 5 -19 10 -25 10 -5
0 -3 -5 5 -10z"/>
<path d="M3653 6473 c9 -2 23 -2 30 0 6 3 -1 5 -18 5 -16 0 -22 -2 -12 -5z"/>
<path d="M3583 6463 c9 -2 23 -2 30 0 6 3 -1 5 -18 5 -16 0 -22 -2 -12 -5z"/>
<path d="M3513 6453 c9 -2 23 -2 30 0 6 3 -1 5 -18 5 -16 0 -22 -2 -12 -5z"/>
<path d="M4188 5493 c12 -2 32 -2 45 0 12 2 2 4 -23 4 -25 0 -35 -2 -22 -4z"/>
<path d="M4068 5483 c12 -2 32 -2 45 0 12 2 2 4 -23 4 -25 0 -35 -2 -22 -4z"/>
<path d="M4928 3573 c7 -3 16 -2 19 1 4 3 -2 6 -13 5 -11 0 -14 -3 -6 -6z"/>
<path d="M4888 3563 c7 -3 16 -2 19 1 4 3 -2 6 -13 5 -11 0 -14 -3 -6 -6z"/>
<path d="M4848 3553 c7 -3 16 -2 19 1 4 3 -2 6 -13 5 -11 0 -14 -3 -6 -6z"/>
<path d="M4808 3543 c7 -3 16 -2 19 1 4 3 -2 6 -13 5 -11 0 -14 -3 -6 -6z"/>
<path d="M6760 3440 c-8 -5 -10 -10 -5 -10 6 0 17 5 25 10 8 5 11 10 5 10 -5
0 -17 -5 -25 -10z"/>
<path d="M6680 3410 c-8 -5 -10 -10 -5 -10 6 0 17 5 25 10 8 5 11 10 5 10 -5
0 -17 -5 -25 -10z"/>
<path d="M6880 2500 c12 -16 24 -30 26 -30 3 0 -4 14 -16 30 -12 17 -24 30
-26 30 -3 0 4 -13 16 -30z"/>
<path d="M6930 2430 c12 -16 24 -30 26 -30 3 0 -4 14 -16 30 -12 17 -24 30
-26 30 -3 0 4 -13 16 -30z"/>
<path d="M5521 2354 c0 -11 3 -14 6 -6 3 7 2 16 -1 19 -3 4 -6 -2 -5 -13z"/>
<path d="M5501 2284 c0 -11 3 -14 6 -6 3 7 2 16 -1 19 -3 4 -6 -2 -5 -13z"/>
<path d="M5492 2240 c0 -14 2 -19 5 -12 2 6 2 18 0 25 -3 6 -5 1 -5 -13z"/>
<path d="M5481 2194 c0 -11 3 -14 6 -6 3 7 2 16 -1 19 -3 4 -6 -2 -5 -13z"/>
<path d="M5472 2140 c0 -14 2 -19 5 -12 2 6 2 18 0 25 -3 6 -5 1 -5 -13z"/>
<path d="M5461 2094 c0 -11 3 -14 6 -6 3 7 2 16 -1 19 -3 4 -6 -2 -5 -13z"/>
<path d="M7535 1920 c-14 -27 -23 -50 -20 -50 2 0 16 23 30 50 14 28 23 50 20
50 -2 0 -16 -22 -30 -50z"/>
<path d="M7730 1840 c-12 -16 -19 -30 -16 -30 2 0 14 14 26 30 12 17 19 30 16
30 -2 0 -14 -13 -26 -30z"/>
<path d="M8329 1753 c-13 -16 -12 -17 4 -4 9 7 17 15 17 17 0 8 -8 3 -21 -13z"/>
<path d="M8246 1690 c-32 -27 -66 -56 -75 -66 -9 -9 19 11 62 45 65 53 87 73
75 70 -2 0 -30 -22 -62 -49z"/>
<path d="M7341 1674 c0 -11 3 -14 6 -6 3 7 2 16 -1 19 -3 4 -6 -2 -5 -13z"/>
<path d="M7351 1634 c0 -11 3 -14 6 -6 3 7 2 16 -1 19 -3 4 -6 -2 -5 -13z"/>
<path d="M8738 1583 c7 -3 16 -2 19 1 4 3 -2 6 -13 5 -11 0 -14 -3 -6 -6z"/>
<path d="M8688 1573 c6 -2 18 -2 25 0 6 3 1 5 -13 5 -14 0 -19 -2 -12 -5z"/>
<path d="M8648 1563 c7 -3 16 -2 19 1 4 3 -2 6 -13 5 -11 0 -14 -3 -6 -6z"/>
<path d="M8598 1553 c6 -2 18 -2 25 0 6 3 1 5 -13 5 -14 0 -19 -2 -12 -5z"/>
<path d="M8558 1543 c7 -3 16 -2 19 1 4 3 -2 6 -13 5 -11 0 -14 -3 -6 -6z"/>
<path d="M8508 1533 c6 -2 18 -2 25 0 6 3 1 5 -13 5 -14 0 -19 -2 -12 -5z"/>
<path d="M7030 1510 c6 -11 13 -20 16 -20 2 0 0 9 -6 20 -6 11 -13 20 -16 20
-2 0 0 -9 6 -20z"/>
<path d="M7950 1486 c0 -2 8 -10 18 -17 15 -13 16 -12 3 4 -13 16 -21 21 -21
13z"/>
<path d="M7060 1460 c6 -11 13 -20 16 -20 2 0 0 9 -6 20 -6 11 -13 20 -16 20
-2 0 0 -9 6 -20z"/>
<path d="M7980 1446 c0 -2 8 -10 18 -17 15 -13 16 -12 3 4 -13 16 -21 21 -21
13z"/>
<path d="M7090 1410 c6 -11 13 -20 16 -20 2 0 0 9 -6 20 -6 11 -13 20 -16 20
-2 0 0 -9 6 -20z"/>
<path d="M5698 1343 c7 -3 16 -2 19 1 4 3 -2 6 -13 5 -11 0 -14 -3 -6 -6z"/>
<path d="M5738 1333 c6 -2 18 -2 25 0 6 3 1 5 -13 5 -14 0 -19 -2 -12 -5z"/>
<path d="M5788 1323 c7 -3 16 -2 19 1 4 3 -2 6 -13 5 -11 0 -14 -3 -6 -6z"/>
<path d="M5828 1313 c6 -2 18 -2 25 0 6 3 1 5 -13 5 -14 0 -19 -2 -12 -5z"/>
<path d="M5878 1303 c6 -2 18 -2 25 0 6 3 1 5 -13 5 -14 0 -19 -2 -12 -5z"/>
<path d="M7051 1194 c0 -11 3 -14 6 -6 3 7 2 16 -1 19 -3 4 -6 -2 -5 -13z"/>
<path d="M6090 1146 c0 -2 8 -10 18 -17 15 -13 16 -12 3 4 -13 16 -21 21 -21
13z"/>
<path d="M7071 1124 c0 -11 3 -14 6 -6 3 7 2 16 -1 19 -3 4 -6 -2 -5 -13z"/>
<path d="M6011 1125 c0 -5 8 -26 19 -45 11 -19 19 -30 19 -25 0 6 -8 26 -19
45 -11 19 -19 31 -19 25z"/>
<path d="M7081 1084 c0 -11 3 -14 6 -6 3 7 2 16 -1 19 -3 4 -6 -2 -5 -13z"/>
<path d="M6779 1055 c5 -11 17 -29 26 -40 l16 -20 -10 20 c-5 11 -17 29 -26
40 l-16 20 10 -20z"/>
<path d="M6630 1020 c6 -11 13 -20 16 -20 2 0 0 9 -6 20 -6 11 -13 20 -16 20
-2 0 0 -9 6 -20z"/>
<path d="M7101 1014 c0 -11 3 -14 6 -6 3 7 2 16 -1 19 -3 4 -6 -2 -5 -13z"/>
<path d="M6656 977 c3 -10 9 -15 12 -12 3 3 0 11 -7 18 -10 9 -11 8 -5 -6z"/>
<path d="M6080 971 c0 -6 4 -13 10 -16 6 -3 7 1 4 9 -7 18 -14 21 -14 7z"/>
<path d="M6700 965 c0 -5 5 -17 10 -25 5 -8 10 -10 10 -5 0 6 -5 17 -10 25 -5
8 -10 11 -10 5z"/>
<path d="M5912 930 c0 -19 2 -27 5 -17 2 9 2 25 0 35 -3 9 -5 1 -5 -18z"/>
<path d="M6850 940 c6 -11 13 -20 16 -20 2 0 0 9 -6 20 -6 11 -13 20 -16 20
-2 0 0 -9 6 -20z"/>
<path d="M6720 915 c0 -5 5 -17 10 -25 5 -8 10 -10 10 -5 0 6 -5 17 -10 25 -5
8 -10 11 -10 5z"/>
<path d="M6899 865 c17 -33 31 -51 31 -40 0 6 -10 21 -21 35 -13 17 -17 18
-10 5z"/>
<path d="M6741 865 c0 -5 8 -26 19 -45 11 -19 19 -30 19 -25 0 6 -8 26 -19 45
-11 19 -19 31 -19 25z"/>
<path d="M5590 850 c-8 -5 -10 -10 -5 -10 6 0 17 5 25 10 8 5 11 10 5 10 -5 0
-17 -5 -25 -10z"/>
<path d="M5832 820 c0 -14 2 -19 5 -12 2 6 2 18 0 25 -3 6 -5 1 -5 -13z"/>
<path d="M6795 750 c9 -16 18 -30 21 -30 2 0 -2 14 -11 30 -9 17 -18 30 -21
30 -2 0 2 -13 11 -30z"/>
</g>
</svg>
