<?xml version="1.0" standalone="no"?>
<!DOCTYPE svg PUBLIC "-//W3C//DTD SVG 20010904//EN"
 "http://www.w3.org/TR/2001/REC-SVG-20010904/DTD/svg10.dtd">
<svg version="1.0" xmlns="http://www.w3.org/2000/svg"
 width="1536.000000pt" height="1170.000000pt" viewBox="0 0 1536.000000 1170.000000"
 preserveAspectRatio="xMidYMid meet">
<metadata>
Created by potrace 1.16, written by Peter Selinger 2001-2019
</metadata>
<g transform="translate(0.000000,1170.000000) scale(0.100000,-0.100000)"
fill="#000000" stroke="none">
<path d="M5562 11248 c-7 -7 -12 -39 -12 -72 0 -67 64 -273 122 -394 27 -59
32 -81 39 -187 6 -101 14 -141 49 -250 41 -127 42 -135 51 -325 9 -202 12
-224 35 -300 8 -25 32 -162 55 -305 55 -352 62 -385 125 -573 34 -102 53 -170
48 -180 -4 -10 -11 -111 -14 -227 -7 -200 -9 -217 -47 -370 -56 -219 -57 -229
-38 -266 16 -30 16 -32 -8 -58 -14 -14 -29 -43 -32 -64 -5 -26 -12 -37 -22
-35 -8 2 -40 44 -70 93 -30 50 -74 110 -97 135 -63 68 -66 72 -75 149 -7 56
-17 84 -49 133 -21 35 -46 79 -55 98 -38 80 -197 238 -330 329 -39 27 -100 79
-135 115 -35 36 -89 80 -120 97 -31 18 -86 52 -121 76 -35 24 -69 43 -77 43
-7 0 -41 19 -76 43 -35 24 -83 53 -108 65 -25 12 -88 60 -141 105 -52 46 -126
105 -165 132 -38 27 -89 65 -114 85 -25 20 -57 41 -72 48 -15 6 -60 42 -100
80 -95 89 -251 222 -408 346 -69 55 -161 130 -205 166 -44 37 -95 72 -114 79
-40 13 -90 51 -261 196 -69 59 -165 133 -215 165 -135 89 -161 110 -317 256
-199 188 -344 284 -362 238 -21 -54 130 -215 351 -372 117 -83 173 -138 173
-171 0 -22 191 -205 305 -291 140 -106 163 -127 185 -170 19 -38 139 -191 199
-254 20 -21 61 -56 91 -79 69 -51 141 -113 355 -306 198 -180 349 -303 408
-332 23 -12 114 -92 202 -178 88 -86 192 -177 230 -202 39 -26 109 -72 157
-103 101 -66 199 -160 319 -306 99 -122 160 -210 184 -266 9 -21 27 -50 40
-64 56 -60 84 -140 49 -140 -20 0 -146 132 -237 250 -40 52 -87 102 -103 110
-17 8 -55 36 -85 62 -58 50 -94 68 -135 68 -14 0 -51 11 -84 25 -127 53 -220
17 -220 -86 0 -32 46 -89 72 -89 8 0 29 -11 48 -25 19 -14 70 -39 115 -56 178
-68 352 -185 322 -215 -4 -4 -62 -11 -130 -16 -145 -9 -212 -28 -267 -75 -56
-48 -70 -80 -81 -186 -5 -50 -16 -101 -24 -113 -8 -13 -43 -38 -77 -56 -53
-28 -67 -41 -90 -87 -24 -46 -28 -65 -28 -135 1 -110 18 -145 138 -269 104
-107 118 -127 99 -146 -16 -16 -62 -14 -174 8 -132 26 -168 41 -308 132 -66
43 -133 83 -150 89 -16 6 -52 25 -79 42 l-48 31 -35 -18 c-54 -30 -83 -70 -83
-117 0 -34 6 -46 36 -75 121 -114 571 -251 882 -270 85 -5 112 -3 157 12 44
15 56 16 69 6 27 -23 1 -48 -86 -81 -46 -17 -108 -42 -139 -55 -92 -41 -426
-85 -636 -85 -284 0 -460 25 -605 85 -70 29 -147 38 -453 54 -129 7 -193 14
-225 27 -40 15 -96 18 -479 22 -473 4 -681 -6 -809 -39 -42 -12 -93 -25 -112
-30 -19 -4 -102 -16 -184 -24 -208 -22 -307 -41 -406 -77 -83 -30 -90 -31
-290 -34 -344 -5 -537 -57 -413 -111 52 -23 256 -22 378 2 64 12 172 19 370
25 154 4 336 13 403 21 100 10 146 10 240 0 65 -7 313 -16 552 -21 356 -7 458
-12 563 -29 71 -11 192 -25 269 -31 100 -7 154 -16 186 -30 24 -11 56 -20 71
-20 14 0 46 -9 69 -20 24 -11 85 -29 135 -41 51 -12 115 -30 142 -40 80 -29
159 -47 361 -81 169 -29 209 -32 379 -32 222 1 297 16 422 85 73 40 75 41 119
29 28 -8 70 -10 113 -6 86 8 104 -6 74 -56 -10 -18 -30 -38 -44 -45 -14 -7
-60 -43 -103 -80 -184 -160 -201 -172 -459 -318 -97 -55 -157 -82 -201 -91
-35 -7 -90 -25 -121 -39 -32 -14 -76 -28 -99 -32 -23 -3 -66 -23 -96 -43 -30
-21 -68 -44 -85 -53 -16 -8 -54 -31 -84 -51 -32 -22 -93 -48 -155 -67 -270
-81 -307 -94 -411 -152 -103 -56 -231 -131 -335 -196 -25 -15 -81 -48 -124
-72 -60 -33 -116 -79 -227 -186 -91 -87 -195 -175 -271 -228 -74 -52 -161
-126 -218 -184 -75 -76 -118 -110 -205 -161 -230 -135 -355 -230 -355 -272 0
-76 205 21 429 200 113 91 179 133 231 145 33 8 113 62 269 180 68 52 146 105
175 119 28 14 107 53 176 86 69 34 208 109 310 167 240 138 286 161 340 170
59 10 265 79 360 121 42 18 98 38 125 45 28 6 77 20 110 30 33 10 83 21 110
25 28 4 67 15 87 25 20 10 79 30 132 43 52 14 117 36 143 49 26 13 66 30 88
37 69 22 325 138 378 171 28 17 73 49 99 71 49 42 197 201 235 253 l21 30 36
-18 c52 -24 64 -22 162 29 61 32 90 42 97 35 17 -17 -9 -98 -49 -153 -35 -47
-36 -49 -19 -74 19 -29 16 -35 -49 -112 -29 -35 -36 -52 -36 -86 0 -24 -16
-89 -37 -147 -48 -136 -50 -222 -10 -351 l28 -87 -41 -75 c-23 -42 -54 -112
-70 -156 -33 -92 -102 -209 -161 -272 -46 -48 -97 -144 -127 -235 -28 -84 -31
-89 -122 -189 -90 -99 -140 -168 -140 -196 0 -35 -27 -82 -111 -198 -232 -319
-289 -430 -220 -430 54 0 162 124 266 305 96 168 120 194 480 532 77 72 167
167 200 212 33 44 67 83 75 86 8 3 32 40 52 83 21 42 67 131 103 197 36 66 74
149 85 185 12 35 32 83 45 106 13 23 47 106 74 186 27 79 72 191 100 249 58
120 101 239 101 283 0 40 10 76 21 76 5 0 22 -26 38 -57 39 -75 55 -98 119
-168 l53 -58 42 42 c63 60 77 56 77 -24 0 -81 23 -149 66 -198 19 -21 34 -48
34 -62 0 -40 36 -124 96 -225 31 -52 66 -118 79 -146 24 -54 178 -290 250
-384 24 -30 48 -72 54 -92 23 -70 115 -176 224 -256 31 -24 69 -61 83 -83 13
-22 35 -44 48 -48 23 -9 195 -142 294 -227 29 -25 79 -80 111 -123 82 -107
203 -234 259 -271 26 -17 67 -60 92 -94 25 -35 64 -90 88 -122 24 -33 58 -81
75 -109 20 -31 46 -56 68 -67 52 -24 154 -141 224 -254 118 -192 235 -320 385
-419 124 -83 130 -89 257 -231 59 -67 163 -182 230 -255 105 -117 323 -386
520 -645 67 -88 125 -144 175 -170 95 -49 212 -144 477 -389 163 -150 227
-203 274 -223 41 -18 57 -15 57 9 0 58 -155 212 -453 451 -214 171 -224 180
-282 278 -21 35 -69 96 -105 135 -111 117 -180 204 -255 319 -39 61 -119 167
-176 236 -57 69 -129 161 -160 205 -67 96 -156 208 -230 291 -30 34 -71 94
-91 135 -21 41 -80 125 -132 188 -53 63 -102 129 -111 147 -9 19 -65 77 -125
130 -128 112 -212 201 -236 252 -9 21 -49 73 -88 117 -39 44 -121 141 -181
215 -61 74 -129 155 -152 179 -50 52 -53 63 -15 61 15 -1 31 -2 35 -1 16 2
-20 40 -93 101 -132 109 -199 181 -230 246 -21 44 -66 99 -165 203 -124 131
-165 181 -150 181 3 0 38 -22 78 -49 181 -121 557 -331 595 -331 23 0 161 -50
255 -92 85 -38 90 -39 230 -44 96 -4 154 -11 179 -21 51 -21 208 -15 232 10
13 13 35 17 90 17 58 0 79 4 99 20 14 11 40 20 59 20 18 0 45 8 58 17 14 10
74 44 135 76 342 182 539 405 612 694 25 102 27 122 27 338 1 250 -7 304 -74
499 -44 129 -163 364 -230 453 -88 119 -201 235 -278 286 -37 25 -107 82 -157
127 -85 77 -133 112 -257 188 -30 19 -72 50 -94 70 l-39 37 27 3 c48 6 370
-88 568 -165 63 -25 151 -58 195 -73 44 -15 163 -69 265 -118 216 -105 330
-146 456 -161 127 -15 324 -73 499 -146 22 -9 168 -76 325 -148 l285 -132 125
-6 c116 -5 131 -8 200 -41 148 -69 466 -165 621 -187 62 -9 142 -2 157 14 11
11 -48 52 -107 74 -64 23 -302 90 -536 151 -193 51 -255 74 -359 134 -44 25
-108 55 -142 66 -35 12 -74 30 -88 41 -35 27 -216 111 -297 138 -36 12 -121
53 -190 92 -68 39 -155 86 -194 103 -38 18 -108 59 -155 91 -47 33 -116 72
-153 88 -38 15 -90 42 -115 58 -46 29 -121 55 -346 119 -61 17 -155 53 -210
80 -62 29 -164 66 -261 94 -103 29 -203 65 -280 102 -162 76 -227 100 -369
134 -161 38 -162 39 -307 135 -69 47 -160 101 -201 120 l-75 36 -102 -17 c-97
-16 -105 -16 -151 0 -106 38 -254 29 -387 -24 -43 -17 -93 -30 -118 -30 -61 0
-93 -14 -145 -65 -58 -56 -81 -62 -126 -36 -42 25 -70 26 -144 6 -65 -17 -100
-19 -100 -4 0 5 14 28 31 49 30 37 32 43 26 99 -8 69 -4 74 68 92 28 6 67 20
87 31 52 25 143 118 172 176 13 26 55 81 93 122 37 41 85 97 107 123 23 30 59
58 94 76 74 37 610 395 640 427 13 13 46 36 75 50 78 40 153 94 242 174 105
94 256 208 345 260 40 23 107 70 149 104 124 100 165 125 329 198 220 98 355
179 366 220 8 33 -11 58 -44 58 -34 0 -261 -112 -415 -206 -157 -95 -175 -103
-231 -102 -60 1 -207 -65 -358 -161 -105 -67 -191 -111 -217 -111 -9 0 -59
-20 -110 -44 -68 -31 -119 -65 -183 -121 -49 -42 -108 -85 -131 -96 -23 -11
-71 -46 -107 -78 -106 -94 -129 -109 -249 -161 -62 -28 -147 -72 -188 -99
-100 -66 -170 -97 -261 -116 -41 -9 -98 -26 -126 -39 -69 -32 -185 -150 -224
-230 -27 -53 -45 -82 -114 -182 -9 -13 -31 -24 -56 -28 -49 -8 -91 -28 -141
-67 -43 -34 -79 -37 -124 -9 -41 26 -45 39 -45 184 0 114 -1 122 -27 159 l-27
39 23 66 c13 37 45 105 72 152 47 82 49 89 55 185 9 152 -8 279 -56 430 -23
72 -59 198 -80 281 -22 83 -57 204 -80 270 -76 217 -91 277 -146 579 -64 349
-72 383 -118 492 -19 44 -53 141 -76 215 -23 73 -62 170 -86 215 -37 67 -49
105 -68 206 -39 202 -87 342 -142 414 -27 35 -43 40 -62 21z m2502 -4598 c6
-6 2 -12 -8 -16 -22 -8 -69 13 -60 27 7 11 53 4 68 -11z"/>
</g>
</svg>
